<svg width="45" height="45" viewBox="0 0 45 45" fill="none" xmlns="http://www.w3.org/2000/svg">
<path d="M44 22.5C44 34.3741 34.3741 44 22.5 44C10.6259 44 1 34.3741 1 22.5C1 10.6259 10.6259 1 22.5 1C34.3741 1 44 10.6259 44 22.5Z" fill="white" stroke="#F1F1F1" stroke-width="2"/>
<path d="M10.5486 21.631H12.9831V22.3172L12.0702 22.3888C10.5904 22.4962 10.125 22.884 10.125 23.9819V24.2027C10.125 25.0082 10.6859 25.4915 11.551 25.4915C12.2372 25.4915 12.6251 25.3304 13.1084 24.8352H13.1859V25.3602H14.1585V20.563H10.5486V21.631ZM12.9831 23.9402C12.6788 24.2445 12.2313 24.4414 11.8554 24.4414C11.4556 24.4414 11.2825 24.2922 11.2945 23.9581C11.3064 23.4927 11.4735 23.3853 12.2492 23.3137L12.9831 23.2421C12.9831 23.248 12.9831 23.9402 12.9831 23.9402Z" fill="#FF8800"/>
<path d="M33.4072 22.4962L32.6852 22.4246C32.2855 22.3828 32.184 22.2814 32.184 21.9592C32.184 21.5952 32.3272 21.5057 32.8881 21.5057C33.3893 21.5057 33.5325 21.5833 33.6041 21.9294H34.7318C34.702 20.7838 34.35 20.4914 32.9537 20.4914C31.4263 20.4914 31.0444 20.7838 31.0444 21.9592C31.0444 23.0332 31.3248 23.3256 32.4645 23.439L33.0611 23.4986C33.5922 23.5464 33.7235 23.6478 33.7235 23.97C33.7235 24.3638 33.5624 24.4652 32.912 24.4652C32.3392 24.4652 32.19 24.3757 32.1602 23.9998H31.0265C31.0563 25.1872 31.4203 25.4915 32.8642 25.4915C34.4753 25.4915 34.875 25.1693 34.875 23.8626C34.8571 22.89 34.5648 22.6036 33.4072 22.4962Z" fill="#054ADA"/>
<path d="M27.3747 22.5857C27.3747 21.0344 26.8437 20.4914 25.3102 20.4914C23.7768 20.4914 23.21 21.1955 23.21 22.9437C23.21 24.8531 23.735 25.4915 25.4236 25.4915C26.6408 25.4915 27.154 25.1216 27.327 24.0714H26.1695C26.0382 24.3936 25.901 24.4652 25.4057 24.4652C24.6599 24.4652 24.4689 24.2564 24.4272 23.3614H27.2912C27.3449 23.0989 27.3747 22.7886 27.3747 22.5857ZM24.4391 22.4127C24.451 21.7384 24.7195 21.4878 25.364 21.4878C26.0084 21.4878 26.2291 21.7384 26.247 22.4127H24.4391Z" fill="#054ADA"/>
<path d="M18.1323 20.563H16.2528V19.125H15.0535V25.3602H16.2528V21.637H17.9593V25.3602H19.1586V21.5415H18.1323V20.563Z" fill="#054ADA"/>
<path d="M28.0491 20.7718V25.3602H29.2484V21.5893H30.6864V20.563H29.2484V20.4317C29.2603 20.1513 29.326 20.0677 29.5587 20.0677H30.8654V19.125H29.4572C28.5025 19.125 28.0491 19.4174 28.0491 20.7718Z" fill="#054ADA"/>
<path d="M20.0417 25.3602H21.241V21.6907H23.0191V20.563H20.0417V25.3602Z" fill="#054ADA"/>
</svg>
