<svg width="45" height="45" viewBox="0 0 45 45" fill="none" xmlns="http://www.w3.org/2000/svg">
<path d="M44 22.5C44 34.3741 34.3741 44 22.5 44C10.6259 44 1 34.3741 1 22.5C1 10.6259 10.6259 1 22.5 1C34.3741 1 44 10.6259 44 22.5Z" fill="white" stroke="#F1F1F1" stroke-width="2"/>
<path d="M31.8342 31.1211C21.3069 36.1312 14.7736 31.9394 10.5914 29.3934C10.3326 29.2329 9.89273 29.4309 10.2744 29.8692C11.6677 31.5586 16.2338 35.6306 22.194 35.6306C28.1582 35.6306 31.7064 32.3762 32.1502 31.8085C32.5911 31.2456 32.2797 30.9351 31.8341 31.1211H31.8342ZM34.7908 29.4883C34.5081 29.1202 33.0718 29.0515 32.1678 29.1626C31.2625 29.2704 29.9036 29.8237 30.0218 30.1559C30.0824 30.2804 30.2061 30.2246 30.8281 30.1686C31.4517 30.1064 33.1987 29.8859 33.5627 30.3618C33.9285 30.841 33.0055 33.1236 32.837 33.4917C32.6741 33.8599 32.8992 33.9548 33.2051 33.7096C33.5068 33.4645 34.053 32.8298 34.4196 31.9316C34.7836 31.0285 35.0057 29.7686 34.7908 29.4883Z" fill="#FF9900"/>
<path fill-rule="evenodd" clip-rule="evenodd" d="M24.7558 20.898C24.7558 22.2126 24.789 23.3089 24.1246 24.4763C23.5883 25.4255 22.7388 26.0092 21.7896 26.0092C20.494 26.0092 19.7394 25.0221 19.7394 23.5652C19.7394 20.6891 22.3163 20.1671 24.7558 20.1671V20.898ZM28.1585 29.1226C27.9355 29.3218 27.6127 29.3361 27.3612 29.2032C26.2412 28.2731 26.0419 27.8412 25.4249 26.9537C23.5741 28.8426 22.2642 29.4073 19.8628 29.4073C17.0248 29.4073 14.8132 27.656 14.8132 24.1489C14.8132 21.4106 16.2988 19.5454 18.4105 18.6343C20.2425 17.8274 22.8005 17.6851 24.7558 17.4621V17.0254C24.7558 16.2233 24.8174 15.2742 24.3477 14.5813C23.9347 13.9596 23.1469 13.7033 22.454 13.7033C21.1679 13.7033 20.0194 14.363 19.7394 15.7298C19.6824 16.0336 19.4594 16.3326 19.1557 16.3468L15.881 15.9956C15.6058 15.9338 15.3021 15.7108 15.378 15.2884C16.1326 11.321 19.7156 10.1249 22.9237 10.1249C24.5658 10.1249 26.7109 10.5616 28.0066 11.805C29.6487 13.3379 29.492 15.3833 29.492 17.6091V22.8675C29.492 24.4479 30.1469 25.1407 30.7639 25.995C30.9821 26.2988 31.0297 26.6643 30.7544 26.892C30.0662 27.4662 28.8418 28.5341 28.1679 29.1321L28.1584 29.1226" fill="black"/>
<path d="M31.8342 31.1211C21.3069 36.1312 14.7736 31.9394 10.5914 29.3934C10.3326 29.2329 9.89273 29.4309 10.2744 29.8692C11.6677 31.5586 16.2338 35.6306 22.194 35.6306C28.1582 35.6306 31.7064 32.3762 32.1502 31.8085C32.5911 31.2456 32.2797 30.9351 31.8341 31.1211H31.8342ZM34.7908 29.4883C34.5081 29.1202 33.0718 29.0515 32.1678 29.1626C31.2625 29.2704 29.9036 29.8237 30.0218 30.1559C30.0824 30.2804 30.2061 30.2246 30.8281 30.1686C31.4517 30.1064 33.1987 29.8859 33.5627 30.3618C33.9285 30.841 33.0055 33.1236 32.837 33.4917C32.6741 33.8599 32.8992 33.9548 33.2051 33.7096C33.5068 33.4645 34.053 32.8298 34.4196 31.9316C34.7836 31.0285 35.0057 29.7686 34.7908 29.4883Z" fill="#FF9900"/>
<path fill-rule="evenodd" clip-rule="evenodd" d="M24.7558 20.898C24.7558 22.2126 24.789 23.3089 24.1246 24.4763C23.5883 25.4255 22.7388 26.0092 21.7896 26.0092C20.494 26.0092 19.7394 25.0221 19.7394 23.5652C19.7394 20.6891 22.3163 20.1671 24.7558 20.1671V20.898ZM28.1585 29.1226C27.9355 29.3218 27.6127 29.3361 27.3612 29.2032C26.2412 28.2731 26.0419 27.8412 25.4249 26.9537C23.5741 28.8426 22.2642 29.4073 19.8628 29.4073C17.0248 29.4073 14.8132 27.656 14.8132 24.1489C14.8132 21.4106 16.2988 19.5454 18.4105 18.6343C20.2425 17.8274 22.8005 17.6851 24.7558 17.4621V17.0254C24.7558 16.2233 24.8174 15.2742 24.3477 14.5813C23.9347 13.9596 23.1469 13.7033 22.454 13.7033C21.1679 13.7033 20.0194 14.363 19.7394 15.7298C19.6824 16.0336 19.4594 16.3326 19.1557 16.3468L15.881 15.9956C15.6058 15.9338 15.3021 15.7108 15.378 15.2884C16.1326 11.321 19.7156 10.1249 22.9237 10.1249C24.5658 10.1249 26.7109 10.5616 28.0066 11.805C29.6487 13.3379 29.492 15.3833 29.492 17.6091V22.8675C29.492 24.4479 30.1469 25.1407 30.7639 25.995C30.9821 26.2988 31.0297 26.6643 30.7544 26.892C30.0662 27.4662 28.8418 28.5341 28.1679 29.1321L28.1584 29.1226" fill="black"/>
</svg>
