<svg width="45" height="45" viewBox="0 0 45 45" fill="none" xmlns="http://www.w3.org/2000/svg">
<circle cx="22.5" cy="22.5" r="21.5" fill="white" stroke="#F1F1F1" stroke-width="2"/>
<path d="M28.0364 11.2989V32.8206C28.0364 35.2288 29.6972 36.5706 31.4558 36.5706C33.0841 36.5706 34.8752 35.4293 34.8752 32.8206V11.462C34.8752 9.25435 33.2469 7.875 31.4558 7.875C29.6647 7.875 28.0364 9.39619 28.0364 11.2989Z" fill="#F9AB00"/>
<path d="M19.0808 22.2228V32.8206C19.0808 35.2288 20.7417 36.5706 22.5002 36.5706C24.1285 36.5706 25.9196 35.4293 25.9196 32.8206V22.3858C25.9196 20.1782 24.2913 18.7989 22.5002 18.7989C20.7091 18.7989 19.0808 20.3201 19.0808 22.2228Z" fill="#E37400"/>
<path d="M13.5444 36.5706C15.4329 36.5706 16.9638 35.0377 16.9638 33.1467C16.9638 31.2557 15.4329 29.7228 13.5444 29.7228C11.6559 29.7228 10.125 31.2557 10.125 33.1467C10.125 35.0377 11.6559 36.5706 13.5444 36.5706Z" fill="#E37400"/>
</svg>
