<svg width="45" height="45" viewBox="0 0 45 45" fill="none" xmlns="http://www.w3.org/2000/svg">
<path d="M44 22.5C44 34.3741 34.3741 44 22.5 44C10.6259 44 1 34.3741 1 22.5C1 10.6259 10.6259 1 22.5 1C34.3741 1 44 10.6259 44 22.5Z" fill="white" stroke="#F1F1F1" stroke-width="2"/>
<path d="M31.8824 17.4381C31.7389 17.5495 29.2042 18.9777 29.2042 22.1535C29.2042 25.8267 32.4295 27.1262 32.526 27.1584C32.5111 27.2376 32.0136 28.9381 30.8255 30.6708C29.7661 32.1955 28.6597 33.7178 26.9765 33.7178C25.2933 33.7178 24.8601 32.7401 22.9171 32.7401C21.0235 32.7401 20.3502 33.75 18.8106 33.75C17.271 33.75 16.1968 32.3391 14.9616 30.6064C13.5309 28.5718 12.375 25.4109 12.375 22.4109C12.375 17.599 15.5037 15.047 18.5829 15.047C20.2191 15.047 21.5829 16.1213 22.6101 16.1213C23.5879 16.1213 25.1126 14.9827 26.974 14.9827C27.6795 14.9827 30.2141 15.047 31.8824 17.4381ZM26.0903 12.9455C26.8601 12.0322 27.4047 10.7649 27.4047 9.49752C27.4047 9.32178 27.3899 9.14356 27.3577 9C26.1052 9.04703 24.6151 9.83416 23.7166 10.8762C23.0111 11.6782 22.3527 12.9455 22.3527 14.2302C22.3527 14.4233 22.3849 14.6163 22.3998 14.6782C22.479 14.6931 22.6077 14.7104 22.7364 14.7104C23.8601 14.7104 25.2735 13.9579 26.0903 12.9455Z" fill="black"/>
</svg>
