<svg width="45" height="45" viewBox="0 0 45 45" fill="none" xmlns="http://www.w3.org/2000/svg">
<path d="M44 22.5C44 34.3741 34.3741 44 22.5 44C10.6259 44 1 34.3741 1 22.5C1 10.6259 10.6259 1 22.5 1C34.3741 1 44 10.6259 44 22.5Z" fill="white" stroke="#F1F1F1" stroke-width="2"/>
<path fill-rule="evenodd" clip-rule="evenodd" d="M28.8713 17.3554L22.9707 10.1932C22.8541 10.0533 22.627 10.1441 22.6395 10.3257L23.1247 17.2627L18.8157 13.5675C18.6773 13.4493 18.4689 13.5781 18.5128 13.755L20.2164 20.6071L16.0816 18.1654C15.9249 18.073 15.742 18.2363 15.816 18.4027L23.0749 34.7638C23.1496 34.9318 23.3953 34.9026 23.4295 34.7222L25.0071 26.327L29.0383 19.4976C29.4396 18.8195 29.3724 17.961 28.8713 17.3532V17.3554Z" fill="#FF6600"/>
<path fill-rule="evenodd" clip-rule="evenodd" d="M23.0756 17.2627L18.7663 13.5675C18.6282 13.4493 18.4195 13.5781 18.4634 13.7547L20.1673 20.6062L23.4445 22.5415L23.0756 17.2599V17.2627Z" fill="#E74030"/>
<path fill-rule="evenodd" clip-rule="evenodd" d="M23.1409 31.1532C23.0765 31.3252 22.8292 31.3109 22.7847 31.1327L20.1673 20.6037L16.0322 18.1623C15.8754 18.0699 15.6932 18.2332 15.7669 18.3996L23.0258 34.7607C23.1005 34.9287 23.3462 34.9001 23.3804 34.7197L24.9574 26.327L24.931 26.3721L23.1409 31.1516V31.1532Z" fill="#FAB418"/>
<path fill-rule="evenodd" clip-rule="evenodd" d="M23.1409 31.1532L24.931 26.3749L24.1471 27.7031C24.0538 27.8611 23.8124 27.8038 23.7997 27.6206L23.4451 22.5412L20.1666 20.6071L22.7841 31.133C22.8286 31.3115 23.0759 31.3258 23.1403 31.1538" fill="#DE0732"/>
<path fill-rule="evenodd" clip-rule="evenodd" d="M28.8223 17.3554L22.9211 10.1932C22.8054 10.0533 22.578 10.1441 22.5907 10.3257L23.076 17.2627L26.0692 19.8301C26.6664 20.3418 26.8795 21.1729 26.6036 21.9098L24.9675 26.2769L24.9581 26.3292L28.9893 19.4998C29.3906 18.8211 29.3234 17.9632 28.8223 17.3554Z" fill="#FF6600"/>
<path fill-rule="evenodd" clip-rule="evenodd" d="M24.3173 23.0569C24.9953 23.4576 25.3499 24.2408 25.2047 25.0159L24.9677 26.2766L26.6038 21.9095C26.8794 21.1729 26.666 20.3418 26.0688 19.8298L23.0755 17.2637L23.4444 22.5422L24.3173 23.0585V23.0569Z" fill="#DE0733"/>
<path fill-rule="evenodd" clip-rule="evenodd" d="M24.931 26.3812L24.9595 26.3326L24.9688 26.2769" fill="black"/>
<path fill-rule="evenodd" clip-rule="evenodd" d="M24.931 26.3812L24.9595 26.3326L24.9688 26.2769" fill="black"/>
<path fill-rule="evenodd" clip-rule="evenodd" d="M24.3174 23.057L23.4445 22.5419L23.7998 27.6207C23.8122 27.8042 24.0536 27.8611 24.1469 27.7028L24.9307 26.3746L24.9681 26.2766L25.2045 25.0159C25.3507 24.2408 24.9954 23.4576 24.3174 23.057Z" fill="#CC1D46"/>
</svg>
