<svg width="45" height="45" viewBox="0 0 45 45" fill="none" xmlns="http://www.w3.org/2000/svg">
<path d="M44 22.5C44 34.3741 34.3741 44 22.5 44C10.6259 44 1 34.3741 1 22.5C1 10.6259 10.6259 1 22.5 1C34.3741 1 44 10.6259 44 22.5Z" fill="white" stroke="#F1F1F1" stroke-width="2"/>
<path d="M33.509 34.875C34.2633 34.875 34.875 34.2633 34.875 33.509V11.4911C34.875 10.7365 34.2633 10.125 33.509 10.125H11.491C10.7364 10.125 10.125 10.7365 10.125 11.4911V33.509C10.125 34.2633 10.7364 34.875 11.491 34.875H33.509Z" fill="#3B5998"/>
<path d="M27.2021 34.875V25.2906H30.4194L30.901 21.5553H27.2021V19.1705C27.2021 18.089 27.5024 17.3521 29.0533 17.3521L31.0313 17.3511V14.0103C30.6891 13.9649 29.515 13.8632 28.149 13.8632C25.2972 13.8632 23.3449 15.6039 23.3449 18.8006V21.5553H20.1195V25.2906H23.3449V34.875H27.2021Z" fill="white"/>
</svg>
