<svg width="45" height="45" viewBox="0 0 45 45" fill="none" xmlns="http://www.w3.org/2000/svg">
<path d="M44 22.5C44 34.3741 34.3741 44 22.5 44C10.6259 44 1 34.3741 1 22.5C1 10.6259 10.6259 1 22.5 1C34.3741 1 44 10.6259 44 22.5Z" fill="white" stroke="#F1F1F1" stroke-width="2"/>
<path d="M10.6946 27.3502L18.9178 13.2722C19.9624 13.8871 25.2296 16.8021 26.0803 17.3564L17.857 31.4354C16.9577 32.6234 9.55521 29.1532 10.6946 27.3494V27.3502Z" fill="#FBBC04"/>
<path d="M34.3214 27.3499L26.0982 13.2727C24.9486 11.3595 22.4725 10.6643 20.4389 11.7942C18.4053 12.9242 17.7861 15.3584 18.9357 17.357L27.159 31.4359C28.3086 33.3482 30.7846 34.0434 32.8182 32.9135C34.763 31.7835 35.471 29.2631 34.3214 27.3516V27.3499Z" fill="#4285F4"/>
<path d="M14.2528 33.4576C16.5326 33.4576 18.3807 31.6554 18.3807 29.4323C18.3807 27.2091 16.5326 25.4069 14.2528 25.4069C11.9731 25.4069 10.125 27.2091 10.125 29.4323C10.125 31.6554 11.9731 33.4576 14.2528 33.4576Z" fill="#34A853"/>
</svg>
