<svg width="45" height="45" viewBox="0 0 45 45" fill="none" xmlns="http://www.w3.org/2000/svg">
<path d="M44 22.5C44 34.3741 34.3741 44 22.5 44C10.6259 44 1 34.3741 1 22.5C1 10.6259 10.6259 1 22.5 1C34.3741 1 44 10.6259 44 22.5Z" fill="white" stroke="#F1F1F1" stroke-width="2"/>
<path d="M29.7383 22.5C29.7394 24.2033 29.1394 25.8524 28.0439 27.1568C26.9484 28.4611 25.4277 29.337 23.7498 29.6301C22.0718 29.9232 20.3443 29.6147 18.8715 28.7591C17.3986 27.9034 16.2751 26.5553 15.6987 24.9525L11.5586 28.2645C12.8459 30.7116 14.9161 32.6569 17.4385 33.7896C19.9609 34.9223 22.7901 35.1772 25.4744 34.5136C28.1586 33.85 30.5431 32.3061 32.2471 30.1285C33.9511 27.9508 34.8763 25.2651 34.8751 22.5" fill="#00AC47"/>
<path d="M15.2618 22.5C15.2636 21.6634 15.4114 20.8334 15.6986 20.0476L11.5585 16.7355C10.6172 18.5112 10.125 20.4903 10.125 22.5C10.125 24.5098 10.6172 26.4889 11.5585 28.2646L15.6986 24.9525C15.4114 24.1667 15.2636 23.3367 15.2618 22.5Z" fill="#FFBA00"/>
<path d="M22.5001 15.2618C24.0316 15.2622 25.523 15.7517 26.7571 16.6588L30.5489 13.1198C29.1413 11.9061 27.4778 11.0261 25.6826 10.5452C23.8873 10.0644 22.0066 9.99519 20.1808 10.3428C18.3551 10.6904 16.6314 11.4459 15.1384 12.5528C13.6454 13.6597 12.4217 15.0895 11.5586 16.7355L15.6987 20.0475C16.2036 18.6479 17.1273 17.4376 18.3442 16.5814C19.5611 15.7251 21.0121 15.2644 22.5001 15.2618Z" fill="#EA4435"/>
<path d="M34.8749 21.566V22.5L32.7735 25.7689H22.9669V20.6321H33.941C34.1887 20.6321 34.4262 20.7305 34.6014 20.9056C34.7765 21.0808 34.8749 21.3183 34.8749 21.566Z" fill="#4285F4"/>
</svg>
