<svg width="45" height="45" viewBox="0 0 45 45" fill="none" xmlns="http://www.w3.org/2000/svg">
<path d="M44 22.5C44 34.3741 34.3741 44 22.5 44C10.6259 44 1 34.3741 1 22.5C1 10.6259 10.6259 1 22.5 1C34.3741 1 44 10.6259 44 22.5Z" fill="white" stroke="#F1F1F1" stroke-width="2"/>
<path d="M22.504 10.125C17.3376 10.125 15.8266 10.1303 15.5329 10.1547C14.4727 10.2429 13.8129 10.4098 13.0941 10.7678C12.5402 11.0429 12.1034 11.3618 11.6722 11.8089C10.8871 12.6242 10.4112 13.6272 10.2389 14.8195C10.1552 15.3983 10.1308 15.5164 10.1258 18.4729C10.1239 19.4584 10.1258 20.7555 10.1258 22.4951C10.1258 27.6588 10.1316 29.1687 10.1563 29.4619C10.242 30.4939 10.4038 31.1431 10.7464 31.8533C11.4012 33.2128 12.6518 34.2334 14.1251 34.6142C14.6352 34.7455 15.1986 34.8179 15.922 34.8522C16.2284 34.8655 19.3521 34.875 22.4776 34.875C25.6031 34.875 28.7286 34.8712 29.0275 34.856C29.865 34.8166 30.3514 34.7512 30.8891 34.6122C32.3719 34.2295 33.5997 33.2242 34.2678 31.8457C34.6038 31.1527 34.7741 30.4786 34.8512 29.5006C34.868 29.2873 34.875 25.8873 34.875 22.4919C34.875 19.0959 34.8674 15.7022 34.8506 15.489C34.7726 14.4951 34.6022 13.8268 34.2554 13.1204C33.9708 12.5421 33.6549 12.1103 33.1961 11.6688C32.3774 10.8866 31.3762 10.4106 30.1831 10.2385C29.605 10.1549 29.4898 10.1301 26.5318 10.125H22.504Z" fill="url(#paint0_radial_3243_1162)"/>
<path d="M22.4982 13.3618C20.0168 13.3618 19.7054 13.3727 18.7308 13.417C17.7582 13.4616 17.0942 13.6156 16.5133 13.8416C15.9123 14.0751 15.4026 14.3873 14.8947 14.8955C14.3865 15.4035 14.0743 15.9134 13.8402 16.5143C13.6137 17.0956 13.4595 17.7599 13.4157 18.7324C13.3721 19.7073 13.3607 20.019 13.3607 22.5011C13.3607 24.9831 13.3718 25.2937 13.4159 26.2685C13.4607 27.2415 13.6146 27.9056 13.8404 28.4867C14.074 29.0878 14.3861 29.5977 14.8942 30.1057C15.4018 30.614 15.9116 30.927 16.5121 31.1605C17.0935 31.3865 17.7576 31.5405 18.7301 31.5851C19.7047 31.6294 20.0159 31.6403 22.4971 31.6403C24.9787 31.6403 25.2891 31.6294 26.2637 31.5851C27.2364 31.5405 27.9011 31.3865 28.4824 31.1605C29.0831 30.927 29.5921 30.614 30.0998 30.1057C30.608 29.5977 30.9202 29.0878 31.1543 28.4869C31.3789 27.9056 31.5331 27.2413 31.5788 26.2687C31.6226 25.2938 31.634 24.9831 31.634 22.5011C31.634 20.019 31.6226 19.7075 31.5788 18.7326C31.5331 17.7597 31.3789 17.0956 31.1543 16.5145C30.9202 15.9134 30.608 15.4035 30.0998 14.8955C29.5916 14.3871 29.0833 14.0749 28.4818 13.8416C27.8994 13.6156 27.2351 13.4616 26.2624 13.417C25.2878 13.3727 24.9775 13.3618 22.4954 13.3618H22.4982ZM21.6786 15.0088C21.9218 15.0084 22.1933 15.0088 22.4982 15.0088C24.9377 15.0088 25.2269 15.0175 26.1902 15.0613C27.0811 15.1021 27.5645 15.251 27.8866 15.3761C28.313 15.5417 28.617 15.7397 28.9366 16.0596C29.2564 16.3795 29.4543 16.6841 29.6203 17.1106C29.7454 17.4324 29.8944 17.916 29.935 18.8071C29.9787 19.7705 29.9883 20.0599 29.9883 22.499C29.9883 24.938 29.9787 25.2274 29.935 26.1908C29.8942 27.0819 29.7454 27.5655 29.6203 27.8873C29.4547 28.3138 29.2564 28.6175 28.9366 28.9372C28.6168 29.257 28.3132 29.4551 27.8866 29.6207C27.5649 29.7464 27.0811 29.8949 26.1902 29.9356C25.2271 29.9794 24.9377 29.9889 22.4982 29.9889C20.0585 29.9889 19.7694 29.9794 18.8062 29.9356C17.9154 29.8945 17.4319 29.7456 17.1096 29.6205C16.6833 29.4549 16.3787 29.2568 16.0589 28.937C15.7391 28.6171 15.5412 28.3132 15.3752 27.8865C15.2501 27.5648 15.1011 27.0811 15.0605 26.1901C15.0168 25.2266 15.008 24.9372 15.008 22.4967C15.008 20.0561 15.0168 19.7682 15.0605 18.8048C15.1013 17.9137 15.2501 17.4301 15.3752 17.108C15.5408 16.6815 15.7391 16.3768 16.0589 16.0569C16.3787 15.7371 16.6833 15.539 17.1096 15.373C17.4317 15.2474 17.9154 15.0988 18.8062 15.0579C19.6491 15.0198 19.9757 15.0084 21.6786 15.0065V15.0088ZM27.3753 16.5263C26.77 16.5263 26.2789 17.0169 26.2789 17.6226C26.2789 18.2281 26.77 18.7193 27.3753 18.7193C27.9806 18.7193 28.4717 18.2281 28.4717 17.6226C28.4717 17.0171 27.9806 16.5259 27.3753 16.5259V16.5263ZM22.4982 17.8077C19.907 17.8077 17.8061 19.9091 17.8061 22.5011C17.8061 25.093 19.907 27.1935 22.4982 27.1935C25.0894 27.1935 27.1896 25.093 27.1896 22.5011C27.1896 19.9091 25.0894 17.8077 22.4982 17.8077ZM22.4982 19.4546C24.1801 19.4546 25.5438 20.8185 25.5438 22.5011C25.5438 24.1834 24.1801 25.5475 22.4982 25.5475C20.8161 25.5475 19.4526 24.1834 19.4526 22.5011C19.4526 20.8185 20.8161 19.4546 22.4982 19.4546Z" fill="white"/>
<path d="M22.504 10.125C17.3376 10.125 15.8266 10.1303 15.5329 10.1547C14.4727 10.2429 13.8129 10.4098 13.0941 10.7678C12.5402 11.0429 12.1034 11.3618 11.6722 11.8089C10.8871 12.6242 10.4112 13.6272 10.2389 14.8195C10.1552 15.3983 10.1308 15.5164 10.1258 18.4729C10.1239 19.4584 10.1258 20.7555 10.1258 22.4951C10.1258 27.6588 10.1316 29.1687 10.1563 29.4619C10.242 30.4939 10.4038 31.1431 10.7464 31.8533C11.4012 33.2128 12.6518 34.2334 14.1251 34.6142C14.6352 34.7455 15.1986 34.8179 15.922 34.8522C16.2284 34.8655 19.3521 34.875 22.4776 34.875C25.6031 34.875 28.7286 34.8712 29.0275 34.856C29.865 34.8166 30.3514 34.7512 30.8891 34.6122C32.3719 34.2295 33.5997 33.2242 34.2678 31.8457C34.6038 31.1527 34.7741 30.4786 34.8512 29.5006C34.868 29.2873 34.875 25.8873 34.875 22.4919C34.875 19.0959 34.8674 15.7022 34.8506 15.489C34.7726 14.4951 34.6022 13.8268 34.2554 13.1204C33.9708 12.5421 33.6549 12.1103 33.1961 11.6688C32.3774 10.8866 31.3762 10.4106 30.1831 10.2385C29.605 10.1549 29.4898 10.1301 26.5318 10.125H22.504Z" fill="url(#paint1_radial_3243_1162)"/>
<path d="M22.4982 13.3618C20.0168 13.3618 19.7054 13.3727 18.7308 13.417C17.7582 13.4616 17.0942 13.6156 16.5133 13.8416C15.9123 14.0751 15.4026 14.3873 14.8947 14.8955C14.3865 15.4035 14.0743 15.9134 13.8402 16.5143C13.6137 17.0956 13.4595 17.7599 13.4157 18.7324C13.3721 19.7073 13.3607 20.019 13.3607 22.5011C13.3607 24.9831 13.3718 25.2937 13.4159 26.2685C13.4607 27.2415 13.6146 27.9056 13.8404 28.4867C14.074 29.0878 14.3861 29.5977 14.8942 30.1057C15.4018 30.614 15.9116 30.927 16.5121 31.1605C17.0935 31.3865 17.7576 31.5405 18.7301 31.5851C19.7047 31.6294 20.0159 31.6403 22.4971 31.6403C24.9787 31.6403 25.2891 31.6294 26.2637 31.5851C27.2364 31.5405 27.9011 31.3865 28.4824 31.1605C29.0831 30.927 29.5921 30.614 30.0998 30.1057C30.608 29.5977 30.9202 29.0878 31.1543 28.4869C31.3789 27.9056 31.5331 27.2413 31.5788 26.2687C31.6226 25.2938 31.634 24.9831 31.634 22.5011C31.634 20.019 31.6226 19.7075 31.5788 18.7326C31.5331 17.7597 31.3789 17.0956 31.1543 16.5145C30.9202 15.9134 30.608 15.4035 30.0998 14.8955C29.5916 14.3871 29.0833 14.0749 28.4818 13.8416C27.8994 13.6156 27.2351 13.4616 26.2624 13.417C25.2878 13.3727 24.9775 13.3618 22.4954 13.3618H22.4982ZM21.6786 15.0088C21.9218 15.0084 22.1933 15.0088 22.4982 15.0088C24.9377 15.0088 25.2269 15.0175 26.1902 15.0613C27.0811 15.1021 27.5645 15.251 27.8866 15.3761C28.313 15.5417 28.617 15.7397 28.9366 16.0596C29.2564 16.3795 29.4543 16.6841 29.6203 17.1106C29.7454 17.4324 29.8944 17.916 29.935 18.8071C29.9787 19.7705 29.9883 20.0599 29.9883 22.499C29.9883 24.938 29.9787 25.2274 29.935 26.1908C29.8942 27.0819 29.7454 27.5655 29.6203 27.8873C29.4547 28.3138 29.2564 28.6175 28.9366 28.9372C28.6168 29.257 28.3132 29.4551 27.8866 29.6207C27.5649 29.7464 27.0811 29.8949 26.1902 29.9356C25.2271 29.9794 24.9377 29.9889 22.4982 29.9889C20.0585 29.9889 19.7694 29.9794 18.8062 29.9356C17.9154 29.8945 17.4319 29.7456 17.1096 29.6205C16.6833 29.4549 16.3787 29.2568 16.0589 28.937C15.7391 28.6171 15.5412 28.3132 15.3752 27.8865C15.2501 27.5648 15.1011 27.0811 15.0605 26.1901C15.0168 25.2266 15.008 24.9372 15.008 22.4967C15.008 20.0561 15.0168 19.7682 15.0605 18.8048C15.1013 17.9137 15.2501 17.4301 15.3752 17.108C15.5408 16.6815 15.7391 16.3768 16.0589 16.0569C16.3787 15.7371 16.6833 15.539 17.1096 15.373C17.4317 15.2474 17.9154 15.0988 18.8062 15.0579C19.6491 15.0198 19.9757 15.0084 21.6786 15.0065V15.0088ZM27.3753 16.5263C26.77 16.5263 26.2789 17.0169 26.2789 17.6226C26.2789 18.2281 26.77 18.7193 27.3753 18.7193C27.9806 18.7193 28.4717 18.2281 28.4717 17.6226C28.4717 17.0171 27.9806 16.5259 27.3753 16.5259V16.5263ZM22.4982 17.8077C19.907 17.8077 17.8061 19.9091 17.8061 22.5011C17.8061 25.093 19.907 27.1935 22.4982 27.1935C25.0894 27.1935 27.1896 25.093 27.1896 22.5011C27.1896 19.9091 25.0894 17.8077 22.4982 17.8077ZM22.4982 19.4546C24.1801 19.4546 25.5438 20.8185 25.5438 22.5011C25.5438 24.1834 24.1801 25.5475 22.4982 25.5475C20.8161 25.5475 19.4526 24.1834 19.4526 22.5011C19.4526 20.8185 20.8161 19.4546 22.4982 19.4546Z" fill="white"/>
<defs>
<radialGradient id="paint0_radial_3243_1162" cx="0" cy="0" r="1" gradientUnits="userSpaceOnUse" gradientTransform="translate(16.6993 36.7813) rotate(-90) scale(24.5291 22.814)">
<stop stop-color="#FFDD55"/>
<stop offset="0.1" stop-color="#FFDD55"/>
<stop offset="0.5" stop-color="#FF543E"/>
<stop offset="1" stop-color="#C837AB"/>
</radialGradient>
<radialGradient id="paint1_radial_3243_1162" cx="0" cy="0" r="1" gradientUnits="userSpaceOnUse" gradientTransform="translate(16.6993 36.7813) rotate(-90) scale(24.5291 22.814)">
<stop stop-color="#FFDD55"/>
<stop offset="0.1" stop-color="#FFDD55"/>
<stop offset="0.5" stop-color="#FF543E"/>
<stop offset="1" stop-color="#C837AB"/>
</radialGradient>
</defs>
</svg>
