<svg width="45" height="45" viewBox="0 0 45 45" fill="none" xmlns="http://www.w3.org/2000/svg">
<path d="M44 22.5C44 34.3741 34.3741 44 22.5 44C10.6259 44 1 34.3741 1 22.5C1 10.6259 10.6259 1 22.5 1C34.3741 1 44 10.6259 44 22.5Z" fill="white" stroke="#F1F1F1" stroke-width="2"/>
<path fill-rule="evenodd" clip-rule="evenodd" d="M12.875 34.875H32.125C33.6438 34.875 34.875 33.6438 34.875 32.125V12.875C34.875 11.3562 33.6438 10.125 32.125 10.125H12.875C11.3562 10.125 10.125 11.3562 10.125 12.875V32.125C10.125 33.6438 11.3562 34.875 12.875 34.875Z" fill="#007EBB"/>
<path fill-rule="evenodd" clip-rule="evenodd" d="M31.4376 31.4375H27.7649V25.182C27.7649 23.4669 27.1132 22.5084 25.7557 22.5084C24.2789 22.5084 23.5073 23.5059 23.5073 25.182V31.4375H19.9678V19.5208H23.5073V21.126C23.5073 21.126 24.5716 19.1568 27.1004 19.1568C29.628 19.1568 31.4376 20.7003 31.4376 23.8926V31.4375ZM15.7452 17.9604C14.5396 17.9604 13.5626 16.9758 13.5626 15.7615C13.5626 14.5471 14.5396 13.5625 15.7452 13.5625C16.9508 13.5625 17.9272 14.5471 17.9272 15.7615C17.9272 16.9758 16.9508 17.9604 15.7452 17.9604ZM13.9176 31.4375H17.6084V19.5208H13.9176V31.4375Z" fill="white"/>
</svg>
