<svg width="45" height="45" viewBox="0 0 45 45" fill="none" xmlns="http://www.w3.org/2000/svg">
<circle cx="22.5" cy="22.5" r="21.5" fill="white" stroke="#F1F1F1" stroke-width="2"/>
<path d="M13.5167 25.2061C13.5167 26.0958 13.712 26.7788 13.9672 27.1921C14.3018 27.7333 14.801 27.9626 15.3098 27.9626C15.9661 27.9626 16.5665 27.7998 17.7236 26.1995C18.6505 24.9168 19.7428 23.1164 20.4777 21.9877L21.7222 20.0755C22.5868 18.7475 23.5875 17.2712 24.7348 16.2705C25.6715 15.4537 26.6819 15 27.6987 15C29.406 15 31.0322 15.9893 32.2767 17.8448C33.6388 19.877 34.3 22.4366 34.3 25.0781C34.3 26.6484 33.9905 27.8022 33.4638 28.7137C32.9549 29.5953 31.9632 30.4761 30.2948 30.4761V27.9626C31.7233 27.9626 32.0799 26.65 32.0799 25.1478C32.0799 23.007 31.5807 20.6313 30.4812 18.9338C29.7009 17.7298 28.6897 16.9941 27.5772 16.9941C26.374 16.9941 25.4057 17.9016 24.3175 19.5197C23.739 20.3793 23.1451 21.427 22.4782 22.6092L21.7441 23.9097C20.2694 26.5244 19.8959 27.1199 19.1586 28.1028C17.8662 29.8238 16.7626 30.4761 15.3098 30.4761C13.5864 30.4761 12.4966 29.7298 11.8216 28.6052C11.2706 27.6887 11 26.4863 11 25.1162L13.5167 25.2061Z" fill="#0081FB"/>
<path d="M12.9844 18.0223C14.1382 16.2438 15.8033 15 17.7131 15C18.8191 15 19.9186 15.3273 21.0668 16.2648C22.3227 17.2898 23.6612 18.9776 25.3312 21.7592L25.93 22.7575C27.3755 25.1656 28.1979 26.4045 28.6792 26.9887C29.2982 27.739 29.7317 27.9626 30.2949 27.9626C31.7234 27.9626 32.0799 26.65 32.0799 25.1478L34.3 25.0781C34.3 26.6484 33.9905 27.8022 33.4638 28.7137C32.955 29.5953 31.9632 30.4761 30.2949 30.4761C29.2577 30.4761 28.3389 30.2508 27.3228 29.2923C26.5417 28.5565 25.6286 27.2496 24.9261 26.0747L22.8364 22.5841C21.7879 20.8323 20.8261 19.5261 20.2695 18.9346C19.6707 18.2986 18.9009 17.5305 17.6726 17.5305C16.6784 17.5305 15.8341 18.2281 15.1275 19.2952L12.9844 18.0223Z" fill="url(#paint0_linear_3243_2311)"/>
<path d="M17.6725 17.5305C16.6783 17.5305 15.834 18.2281 15.1275 19.2952C14.1284 20.8031 13.5167 23.0492 13.5167 25.2061C13.5167 26.0958 13.712 26.7788 13.9672 27.1921L11.8216 28.6052C11.2706 27.6887 11 26.4863 11 25.1162C11 22.6246 11.6839 20.0277 12.9843 18.0223C14.1382 16.2438 15.8033 15 17.713 15L17.6725 17.5305Z" fill="url(#paint1_linear_3243_2311)"/>
<defs>
<linearGradient id="paint0_linear_3243_2311" x1="15.9427" y1="24.4801" x2="31.9859" y2="25.2904" gradientUnits="userSpaceOnUse">
<stop stop-color="#0064E1"/>
<stop offset="0.4" stop-color="#0064E1"/>
<stop offset="0.83" stop-color="#0073EE"/>
<stop offset="1" stop-color="#0082FB"/>
</linearGradient>
<linearGradient id="paint1_linear_3243_2311" x1="14.6462" y1="26.2627" x2="14.6462" y2="20.3477" gradientUnits="userSpaceOnUse">
<stop stop-color="#0082FB"/>
<stop offset="1" stop-color="#0064E0"/>
</linearGradient>
</defs>
</svg>
