<svg width="45" height="45" viewBox="0 0 45 45" fill="none" xmlns="http://www.w3.org/2000/svg">
<path d="M44 22.5C44 34.3741 34.3741 44 22.5 44C10.6259 44 1 34.3741 1 22.5C1 10.6259 10.6259 1 22.5 1C34.3741 1 44 10.6259 44 22.5Z" fill="white" stroke="#F1F1F1" stroke-width="2"/>
<path d="M22.5 10.125C15.6622 10.125 10.125 15.6622 10.125 22.5C10.125 27.7399 13.3767 32.2179 17.9848 34.0203C17.8733 33.0355 17.7804 31.549 18.022 30.4713C18.2449 29.5051 19.4713 24.3209 19.4713 24.3209C19.4713 24.3209 19.0997 23.5777 19.0997 22.4814C19.0997 20.7534 20.103 19.4713 21.3294 19.4713C22.3885 19.4713 22.8902 20.2703 22.8902 21.2179C22.8902 22.277 22.2213 23.875 21.8682 25.3429C21.5709 26.5693 22.4814 27.5726 23.7078 27.5726C25.9003 27.5726 27.5912 25.25 27.5912 21.9054C27.5912 18.951 25.4544 16.8699 22.4257 16.8699C18.9139 16.8699 16.8328 19.5084 16.8328 22.2399C16.8328 23.299 17.2416 24.451 17.7618 25.0642C17.8547 25.1943 17.8733 25.2872 17.8547 25.4172C17.7618 25.8074 17.5574 26.6436 17.5203 26.8108C17.4645 27.0338 17.3345 27.0895 17.1115 26.978C15.5693 26.2534 14.603 24.0051 14.603 22.1841C14.603 18.2821 17.4459 14.6959 22.7787 14.6959C27.0709 14.6959 30.397 17.7618 30.397 21.8311C30.397 26.0861 27.7027 29.5236 23.9865 29.5236C22.7416 29.5236 21.5524 28.8733 21.1436 28.1115C21.1436 28.1115 20.5304 30.4713 20.3818 31.0473C20.103 32.125 19.3412 33.4628 18.8395 34.299C19.9916 34.652 21.2179 34.8564 22.5 34.8564C29.3378 34.8564 34.875 29.3193 34.875 22.4814C34.875 15.6622 29.3378 10.125 22.5 10.125Z" fill="#BD081C"/>
</svg>
