<svg width="45" height="45" viewBox="0 0 45 45" fill="none" xmlns="http://www.w3.org/2000/svg">
<path d="M44 22.5C44 34.3741 34.3741 44 22.5 44C10.6259 44 1 34.3741 1 22.5C1 10.6259 10.6259 1 22.5 1C34.3741 1 44 10.6259 44 22.5Z" fill="white" stroke="#F1F1F1" stroke-width="2"/>
<path d="M15.4985 32.1683L10.4229 23.3767C10.2277 23.0387 10.125 22.6553 10.125 22.265C10.125 21.8747 10.2277 21.4913 10.4229 21.1533L15.4985 12.3618C15.6937 12.0238 15.9745 11.743 16.3125 11.5479C16.6506 11.3527 17.0341 11.25 17.4244 11.25H27.5757C27.9661 11.25 28.3495 11.3528 28.6875 11.5479C29.0255 11.7431 29.3062 12.0238 29.5014 12.3618L34.5771 21.1533C34.7722 21.4913 34.875 21.8747 34.875 22.2651C34.875 22.6554 34.7722 23.0388 34.5771 23.3769L29.5014 32.1683C29.3062 32.5063 29.0255 32.787 28.6875 32.9821C28.3495 33.1772 27.966 33.2799 27.5757 33.2799H17.4244C17.034 33.28 16.6506 33.1773 16.3125 32.9821C15.9744 32.7869 15.6937 32.5064 15.4985 32.1683Z" fill="url(#paint0_linear_3243_1166)"/>
<path opacity="0.07" d="M33.1791 26.6117L25.7147 19.1469L22.5001 18.2867L19.6126 19.3598L18.4975 22.265L19.3941 25.4997L27.3099 33.4155L28.9896 33.3408L33.1791 26.6117Z" fill="black"/>
<path d="M22.5001 17.7799C20.0231 17.7799 18.0151 19.7879 18.0151 22.2651C18.0151 24.742 20.0231 26.75 22.5001 26.75C24.977 26.75 26.9848 24.742 26.9848 22.2651C26.9848 19.7879 24.9768 17.7799 22.5001 17.7799ZM22.5001 25.668C20.6206 25.668 19.0969 24.1443 19.0969 22.2649C19.0969 20.3854 20.6206 18.8619 22.5001 18.8619C24.3795 18.8619 25.9032 20.3856 25.9032 22.2651C25.9032 24.1445 24.3795 25.668 22.5001 25.668Z" fill="white"/>
<path d="M20.3708 22.0917V23.4859C20.5771 23.84 20.8681 24.1373 21.2177 24.3511V22.0917H20.3708ZM22.0501 20.9165V24.6698C22.1942 24.6963 22.3415 24.7123 22.4929 24.7123C22.631 24.7123 22.7656 24.6978 22.8976 24.6758V20.9165H22.0501ZM23.808 22.671V24.3266C24.1632 24.1007 24.4548 23.7879 24.6553 23.4178V22.6712L23.808 22.671ZM25.727 25.0275L25.2624 25.4925C25.2231 25.532 25.201 25.5854 25.201 25.6411C25.201 25.6968 25.2231 25.7503 25.2624 25.7897L27.0249 27.5516C27.0643 27.591 27.1178 27.6131 27.1735 27.6131C27.2292 27.6131 27.2826 27.591 27.3221 27.5516L27.7867 27.0872C27.8258 27.0476 27.8477 26.9943 27.8477 26.9387C27.8477 26.8831 27.8258 26.8297 27.7867 26.7902L26.024 25.0275C25.9846 24.9883 25.9312 24.9663 25.8755 24.9663C25.8199 24.9663 25.7665 24.9883 25.727 25.0275Z" fill="white"/>
<defs>
<linearGradient id="paint0_linear_3243_1166" x1="22.5001" y1="11.2502" x2="22.5001" y2="33.2457" gradientUnits="userSpaceOnUse">
<stop stop-color="#4387FD"/>
<stop offset="1" stop-color="#4683EA"/>
</linearGradient>
</defs>
</svg>
