<svg width="45" height="45" viewBox="0 0 45 45" fill="none" xmlns="http://www.w3.org/2000/svg">
<path d="M44 22.5C44 34.3741 34.3741 44 22.5 44C10.6259 44 1 34.3741 1 22.5C1 10.6259 10.6259 1 22.5 1C34.3741 1 44 10.6259 44 22.5Z" fill="white" stroke="#F1F1F1" stroke-width="2"/>
<path d="M30.8337 16.6071C31.6391 18.375 32.1105 20.3785 32.1302 22.5H34.2712C34.2516 20.3589 33.6623 18.3357 32.6212 16.6268C32.6016 16.6268 32.6016 16.6071 32.582 16.6071H30.8337Z" fill="#73BADD"/>
<path d="M30.7947 28.5893H32.5625C33.6036 26.8214 34.2322 24.8571 34.2518 22.6964H32.1108C32.0911 24.8571 31.6197 26.8214 30.7947 28.5893Z" fill="#73BADD"/>
<path d="M15.1 28.7857H13.3518C14.8839 31.1428 17.2804 32.9303 20.1089 33.6571C18.0072 32.8125 16.2393 31.1428 15.1 28.7857Z" fill="#2884A9"/>
<path d="M25.6877 33.6571C28.4967 32.95 30.8931 31.1428 32.4449 28.7857H30.6967C29.5574 31.1428 27.7895 32.8125 25.6877 33.6571Z" fill="#73BADD"/>
<path d="M30.7358 16.4107H32.484C30.9518 14.0536 28.5358 12.2071 25.6876 11.4803C27.809 12.325 29.5965 14.0536 30.7358 16.4107Z" fill="#73BADD"/>
<path d="M20.109 11.4803C17.2608 12.2071 14.8447 14.0536 13.3126 16.4107H15.0608C16.2001 14.0536 17.9876 12.325 20.109 11.4803Z" fill="#2884A9"/>
<path d="M15.0017 28.5893C14.1767 26.8214 13.7053 24.8571 13.6856 22.6964H11.5446C11.5642 24.8571 12.1731 26.8214 13.2338 28.5893H15.0017Z" fill="#2884A9"/>
<path d="M14.9624 16.6071H13.1749C12.1338 18.375 11.5445 20.3785 11.5249 22.5H13.666C13.6856 20.3785 14.157 18.375 14.9624 16.6071Z" fill="#2884A9"/>
<path d="M28.2215 22.6964C28.2018 24.8571 27.9268 26.8214 27.4554 28.5893H30.5786C31.4036 26.8214 31.8947 24.8571 31.9143 22.6964H28.2215Z" fill="#73BADD"/>
<path d="M21.6999 11.225C19.0089 11.6768 16.6714 13.6607 15.2767 16.4107H18.3607C19.1071 13.8571 20.3053 11.9321 21.6999 11.225Z" fill="#33A5D2"/>
<path d="M18.3803 28.7857H15.2964C16.691 31.5357 19.0089 33.4411 21.6803 33.8928C20.3053 33.2053 19.1267 31.3393 18.3803 28.7857Z" fill="#33A5D2"/>
<path d="M24.0964 33.8928C26.7679 33.4411 29.0857 31.5357 30.4804 28.7857H27.4161C26.6697 31.3393 25.4911 33.2053 24.0964 33.8928Z" fill="#73BADD"/>
<path d="M13.8822 22.6964C13.9018 24.8571 14.3929 26.8214 15.2179 28.5893H18.3411C17.8697 26.8214 17.5947 24.8571 17.5751 22.6964H13.8822Z" fill="#33A5D2"/>
<path d="M27.4357 16.4107H30.5197C29.125 13.6607 26.7875 11.6768 24.0964 11.225C25.4911 11.9321 26.6893 13.8571 27.4357 16.4107Z" fill="#73BADD"/>
<path d="M17.5751 22.5C17.5751 20.3785 17.8501 18.375 18.3215 16.6071H15.1786C14.3536 18.375 13.8822 20.3785 13.8822 22.5H17.5751Z" fill="#33A5D2"/>
<path d="M31.934 22.5C31.934 20.3785 31.443 18.375 30.6376 16.6071H27.4948C27.9662 18.375 28.2412 20.3785 28.2412 22.5H31.934Z" fill="#73BADD"/>
<path d="M22.8983 22.6964V28.5893H27.2787C27.7501 26.8214 28.0251 24.8571 28.0447 22.6964H22.8983Z" fill="#73BADD"/>
<path d="M27.2197 28.7857H22.8983V33.9125C22.8983 33.9125 22.8983 33.9518 22.918 33.9518C24.7251 33.9518 26.2965 31.9286 27.2197 28.7857Z" fill="#73BADD"/>
<path d="M28.025 22.5C28.025 20.3785 27.75 18.375 27.2786 16.6071H22.8983V22.5H28.025Z" fill="#73BADD"/>
<path d="M22.7018 33.9125V28.7857H18.5768C19.4607 31.7321 20.9339 33.7357 22.7018 33.9125Z" fill="#33A5D2"/>
<path d="M17.7715 22.6964C17.7911 24.8571 18.0661 26.8214 18.5376 28.5893H22.7215V22.6964H17.7715Z" fill="#33A5D2"/>
<path d="M22.8983 16.4107H27.2393C26.3358 13.2679 24.7447 11.1661 22.9179 11.1661C22.8983 11.1661 22.8983 11.2054 22.8983 11.2054V16.4107Z" fill="#73BADD"/>
<path d="M17.7715 22.5H22.7018V16.6071H18.4983C18.0465 18.375 17.7715 20.3785 17.7715 22.5Z" fill="#33A5D2"/>
<path d="M22.7018 11.225C20.9339 11.3821 19.4411 13.4643 18.5571 16.4107H22.7018V11.225Z" fill="#33A5D2"/>
<path d="M22.8982 34.2071C16.475 34.2071 11.25 28.9821 11.25 22.5589C11.25 16.1357 16.475 10.9107 22.8982 10.9107C29.3214 10.9107 34.5464 16.1357 34.5464 22.5589C34.5464 28.9821 29.3214 34.2071 22.8982 34.2071ZM22.8982 11.3036C16.6911 11.3036 11.6429 16.3518 11.6429 22.5589C11.6429 28.7661 16.6911 33.8143 22.8982 33.8143C29.1054 33.8143 34.1536 28.7661 34.1536 22.5589C34.1536 16.3518 29.1054 11.3036 22.8982 11.3036Z" fill="black"/>
<path d="M22.7018 34.875C22.5839 34.875 22.5054 34.7964 22.5054 34.6786V10.3214C22.5054 10.2036 22.5839 10.125 22.7018 10.125C22.8197 10.125 22.8982 10.2036 22.8982 10.3214V34.6786C22.8982 34.7964 22.8197 34.875 22.7018 34.875Z" fill="black"/>
<path d="M22.8982 34.2071C17.7518 34.2071 13.5679 28.9821 13.5679 22.5589C13.5679 16.1357 17.7518 10.9107 22.8982 10.9107C28.0447 10.9107 32.2286 16.1357 32.2286 22.5589C32.2286 28.9821 28.0447 34.2071 22.8982 34.2071ZM22.8982 11.3036C17.9679 11.3036 13.9607 16.3518 13.9607 22.5589C13.9607 28.7661 17.9679 33.8143 22.8982 33.8143C27.8286 33.8143 31.8357 28.7661 31.8357 22.5589C31.8357 16.3518 27.8286 11.3036 22.8982 11.3036Z" fill="black"/>
<path d="M22.8982 34.2071C19.9125 34.2071 17.4768 28.9821 17.4768 22.5589C17.4768 16.1357 19.9125 10.9107 22.8982 10.9107C25.8839 10.9107 28.3197 16.1357 28.3197 22.5589C28.3197 28.9821 25.8839 34.2071 22.8982 34.2071ZM22.8982 11.3036C20.1286 11.3036 17.8697 16.3518 17.8697 22.5589C17.8697 28.7661 20.1286 33.8143 22.8982 33.8143C25.6679 33.8143 27.9268 28.7661 27.9268 22.5589C27.9268 16.3518 25.6679 11.3036 22.8982 11.3036Z" fill="black"/>
<path d="M34.291 22.8929H11.5053C11.3875 22.8929 11.3089 22.8143 11.3089 22.6964C11.3089 22.5786 11.3875 22.5 11.5053 22.5H34.291C34.4089 22.5 34.4875 22.5786 34.4875 22.6964C34.4875 22.8143 34.4089 22.8929 34.291 22.8929Z" fill="black"/>
<path d="M32.5232 16.8036H13.2732C13.1554 16.8036 13.0768 16.725 13.0768 16.6071C13.0768 16.4893 13.1554 16.4107 13.2732 16.4107H32.5232C32.6411 16.4107 32.7196 16.4893 32.7196 16.6071C32.7196 16.725 32.6411 16.8036 32.5232 16.8036Z" fill="black"/>
<path d="M32.5232 28.9822H13.2732C13.1554 28.9822 13.0768 28.9036 13.0768 28.7857C13.0768 28.6679 13.1554 28.5893 13.2732 28.5893H32.5232C32.6411 28.5893 32.7196 28.6679 32.7196 28.7857C32.7196 28.9036 32.6411 28.9822 32.5232 28.9822Z" fill="black"/>
</svg>
