<svg width="45" height="45" viewBox="0 0 45 45" fill="none" xmlns="http://www.w3.org/2000/svg">
<path d="M44 22.5C44 34.3741 34.3741 44 22.5 44C10.6259 44 1 34.3741 1 22.5C1 10.6259 10.6259 1 22.5 1C34.3741 1 44 10.6259 44 22.5Z" fill="white" stroke="#F1F1F1" stroke-width="2"/>
<path fill-rule="evenodd" clip-rule="evenodd" d="M17.0651 13.0895L18.9046 11.25V14.7618H17.0651V13.0895ZM27.935 13.0895L26.0955 11.25V14.7618H27.935V13.0895Z" fill="#7B7B7B"/>
<path d="M18.9046 11.25H26.0955V13.0059H18.9046V11.25Z" fill="#5A5A5A"/>
<path fill-rule="evenodd" clip-rule="evenodd" d="M32.8682 33.3243H12.1318C11.5995 33.3243 11.0891 33.1129 10.7128 32.7366C10.3364 32.3602 10.125 31.8498 10.125 31.3176V18.21L13.5731 14.7618H31.4269L34.875 18.21V31.3176C34.875 31.8498 34.6636 32.3602 34.2872 32.7366C33.9109 33.1129 33.4005 33.3243 32.8682 33.3243Z" fill="#E6E7E8"/>
<path fill-rule="evenodd" clip-rule="evenodd" d="M10.125 21.8691V18.21L13.5731 14.7618H31.4269L34.875 18.21V21.8691H10.125Z" fill="#D0D1D2"/>
<path fill-rule="evenodd" clip-rule="evenodd" d="M12.9678 33.3244V19.1098C12.9678 18.8881 13.0559 18.6754 13.2127 18.5186C13.3695 18.3618 13.5822 18.2737 13.804 18.2737H31.1959C31.4176 18.2737 31.6303 18.3618 31.7871 18.5186C31.9439 18.6754 32.032 18.8881 32.032 19.1098V33.3244H12.9678Z" fill="#458CF5"/>
<path d="M12.9678 21.8691H32.032V33.3243H12.9678V21.8691Z" fill="white"/>
<path fill-rule="evenodd" clip-rule="evenodd" d="M26.3463 33.3243V29.8961L24.674 28.2238L23.587 25.2137L24.3395 23.2905L28.6039 27.5549L29.3564 24.3775L32.0321 27.0532V33.3243H26.3463Z" fill="#D2D3D4"/>
<path d="M14.2221 23.2069H20.5768V30.3142H14.2221V23.2069ZM14.2221 31.9029H22.4163V33.3243H14.2221V31.9029Z" fill="#D2D3D4"/>
<path fill-rule="evenodd" clip-rule="evenodd" d="M27.935 30.657V33.3243H24.4231V30.6949C23.7072 30.369 23.0989 29.8459 22.6695 29.1868C22.2401 28.5277 22.0074 27.7599 21.9986 26.9734C21.9898 26.1868 22.2054 25.414 22.6199 24.7455C23.0345 24.077 23.631 23.5405 24.3395 23.1987V27.1368L26.0954 28.2238L27.935 27.1368V23.1985C28.6365 23.537 29.2284 24.0664 29.6426 24.7261C30.0568 25.3857 30.2765 26.1489 30.2765 26.9278C30.2765 27.7067 30.0568 28.4698 29.6426 29.1295C29.2284 29.7891 28.6365 30.3186 27.935 30.657Z" fill="#505050"/>
<path fill-rule="evenodd" clip-rule="evenodd" d="M14.9328 19.1934C15.0734 19.1934 15.2108 19.2351 15.3277 19.3132C15.4445 19.3913 15.5356 19.5023 15.5894 19.6322C15.6432 19.762 15.6573 19.9049 15.6299 20.0428C15.6024 20.1807 15.5348 20.3073 15.4354 20.4067C15.336 20.5061 15.2093 20.5738 15.0715 20.6012C14.9336 20.6286 14.7907 20.6146 14.6608 20.5608C14.531 20.507 14.42 20.4159 14.3419 20.299C14.2638 20.1821 14.2221 20.0447 14.2221 19.9041C14.2221 19.7157 14.297 19.5349 14.4302 19.4016C14.5635 19.2683 14.7443 19.1934 14.9328 19.1934ZM17.0232 19.1934C17.1637 19.1934 17.3012 19.2351 17.418 19.3132C17.5349 19.3913 17.626 19.5023 17.6798 19.6322C17.7336 19.762 17.7477 19.9049 17.7202 20.0428C17.6928 20.1807 17.6251 20.3073 17.5257 20.4067C17.4263 20.5061 17.2997 20.5738 17.1618 20.6012C17.024 20.6286 16.8811 20.6146 16.7512 20.5608C16.6213 20.507 16.5103 20.4159 16.4322 20.299C16.3541 20.1821 16.3124 20.0447 16.3124 19.9041C16.3124 19.7157 16.3873 19.5349 16.5206 19.4016C16.6539 19.2683 16.8347 19.1934 17.0232 19.1934Z" fill="#E6E7E8"/>
</svg>
