<svg width="45" height="45" viewBox="0 0 45 45" fill="none" xmlns="http://www.w3.org/2000/svg">
<path d="M44 22.5C44 34.3741 34.3741 44 22.5 44C10.6259 44 1 34.3741 1 22.5C1 10.6259 10.6259 1 22.5 1C34.3741 1 44 10.6259 44 22.5Z" fill="white" stroke="#F1F1F1" stroke-width="2"/>
<path d="M29.4175 19.4277V16.4925C29.8058 16.3107 30.1345 16.0226 30.3656 15.6615C30.5967 15.3005 30.7207 14.8812 30.7232 14.4526V14.3835C30.7215 13.7843 30.4829 13.2101 30.0593 12.7864C29.6357 12.3626 29.0617 12.1237 28.4625 12.1218H28.3934C27.7942 12.1234 27.2201 12.3621 26.7963 12.7856C26.3725 13.2092 26.1336 13.7833 26.1317 14.3824V14.4515C26.1336 14.8778 26.2558 15.295 26.4842 15.6549C26.7126 16.0149 27.038 16.3031 27.4229 16.4863L27.4363 16.4925V19.4338C26.3141 19.6053 25.2575 20.0715 24.3743 20.7849L24.3867 20.7756L16.3135 14.4887C16.4671 13.9127 16.4161 13.3014 16.1693 12.7589C15.9225 12.2164 15.4951 11.7762 14.9601 11.5136C14.4251 11.2509 13.8155 11.1819 13.2354 11.3185C12.6552 11.455 12.1403 11.7885 11.7786 12.2622C11.4168 12.7359 11.2306 13.3204 11.2516 13.916C11.2726 14.5117 11.4996 15.0816 11.8939 15.5286C12.2881 15.9756 12.8252 16.272 13.4135 16.3673C14.0019 16.4626 14.6051 16.3508 15.1203 16.0511L15.1079 16.0573L23.045 22.236C22.3432 23.2881 21.9705 24.5252 21.9744 25.7899C21.9744 27.175 22.4128 28.459 23.1574 29.5089L23.144 29.4893L20.7286 31.9046C20.5352 31.8422 20.3336 31.8092 20.1304 31.8066H20.1284C19.7137 31.8066 19.3083 31.9296 18.9635 32.16C18.6187 32.3904 18.35 32.7178 18.1913 33.101C18.0326 33.4841 17.9911 33.9056 18.072 34.3124C18.1529 34.7191 18.3526 35.0927 18.6458 35.3859C18.939 35.6791 19.3126 35.8788 19.7193 35.9597C20.126 36.0406 20.5476 35.9991 20.9307 35.8404C21.3139 35.6817 21.6413 35.413 21.8717 35.0682C22.1021 34.7234 22.2251 34.318 22.2251 33.9033C22.2226 33.6948 22.1882 33.4878 22.123 33.2897L22.1271 33.3041L24.5167 30.9145C25.2954 31.5092 26.1996 31.9184 27.1604 32.111C28.1211 32.3035 29.1131 32.2744 30.061 32.0259C31.0088 31.7773 31.8874 31.3158 32.63 30.6765C33.3726 30.0372 33.9596 29.237 34.3463 28.3366C34.733 27.4363 34.9093 26.4597 34.8617 25.4809C34.8141 24.5022 34.5438 23.5473 34.0716 22.6887C33.5993 21.8302 32.9374 21.0907 32.1363 20.5265C31.3352 19.9623 30.4159 19.5882 29.4484 19.4328L29.4113 19.4277H29.4175ZM28.4233 29.0984C27.7697 29.0968 27.1313 28.9014 26.5886 28.5371C26.046 28.1728 25.6235 27.6559 25.3745 27.0516C25.1255 26.4473 25.0612 25.7827 25.1897 25.1419C25.3182 24.501 25.6337 23.9126 26.0965 23.4511C26.5592 22.9895 27.1484 22.6754 27.7895 22.5485C28.4307 22.4216 29.0951 22.4875 29.6988 22.738C30.3025 22.9885 30.8184 23.4123 31.1813 23.9559C31.5443 24.4994 31.738 25.1384 31.738 25.792V25.794C31.738 26.6709 31.3896 27.5119 30.7696 28.132C30.1495 28.7521 29.3085 29.1004 28.4316 29.1004L28.4233 29.0984Z" fill="#F8761F"/>
</svg>
