<svg width="45" height="45" viewBox="0 0 45 45" fill="none" xmlns="http://www.w3.org/2000/svg">
<path d="M44 22.5C44 34.3741 34.3741 44 22.5 44C10.6259 44 1 34.3741 1 22.5C1 10.6259 10.6259 1 22.5 1C34.3741 1 44 10.6259 44 22.5Z" fill="white" stroke="#F1F1F1" stroke-width="2"/>
<path d="M28.7429 21.4305C28.923 21.4091 29.1072 21.4091 29.2864 21.4305C29.3851 21.2077 29.4023 20.818 29.3119 20.3986C29.1836 19.7737 29.0077 19.3922 28.6393 19.4523C28.2751 19.5123 28.2628 19.9661 28.391 20.591C28.4683 20.9421 28.5966 21.2463 28.7421 21.4305H28.7429ZM25.6078 21.9271C25.8693 22.0431 26.0272 22.1195 26.0921 22.0513C26.1308 22.0085 26.1217 21.9312 26.0576 21.8285C25.9293 21.6188 25.6637 21.4042 25.3809 21.285C24.7897 21.0367 24.1089 21.1181 23.5909 21.4987C23.415 21.627 23.253 21.8071 23.2744 21.914C23.2826 21.9485 23.3089 21.974 23.3689 21.9822C23.5145 21.9995 24.0152 21.7471 24.5981 21.7084C25.0051 21.6829 25.3472 21.8112 25.6086 21.9271H25.6078ZM25.0816 22.2272C24.7387 22.2831 24.5546 22.3941 24.4353 22.4969C24.3285 22.5865 24.2684 22.6893 24.2684 22.7584L24.2939 22.8225L24.3498 22.8439C24.4271 22.8439 24.5981 22.7707 24.5981 22.7707C24.9492 22.6424 25.3258 22.5997 25.6942 22.6597C25.8652 22.677 25.9466 22.6893 25.9852 22.6301C25.9934 22.6128 26.0066 22.5783 25.9721 22.5232C25.8948 22.3908 25.5478 22.1713 25.0816 22.2272ZM27.6856 23.3315C27.9166 23.4425 28.1698 23.3997 28.2512 23.2328C28.3368 23.0618 28.2167 22.8299 27.9857 22.7189C27.7546 22.603 27.5014 22.6507 27.4159 22.8176C27.3345 22.9886 27.4545 23.2155 27.6856 23.3315ZM29.1713 22.0299C28.983 22.0258 28.8243 22.2313 28.8243 22.492C28.8202 22.7493 28.9657 22.959 29.154 22.9631C29.3423 22.9672 29.4969 22.7617 29.501 22.5051C29.5051 22.2478 29.3555 22.034 29.1713 22.0299ZM16.5594 26.6803C16.5125 26.6244 16.4352 26.6417 16.362 26.659C16.302 26.6721 16.242 26.6803 16.1861 26.6845C16.0578 26.6845 15.9378 26.6244 15.8646 26.5217C15.7791 26.3893 15.7832 26.1919 15.8777 25.9691L15.9205 25.8663C16.0751 25.5284 16.3234 24.9627 16.0405 24.4234C15.8309 24.0164 15.4839 23.7639 15.0637 23.7121C14.6609 23.6603 14.2629 23.8018 13.9842 24.0978C13.569 24.5557 13.5048 25.1814 13.5862 25.4043C13.6158 25.4857 13.6635 25.507 13.6972 25.5112C13.7655 25.5194 13.8682 25.4684 13.9373 25.2924L13.9546 25.2365C13.9842 25.142 14.0401 24.9668 14.1256 24.8295C14.3566 24.4785 14.8237 24.3798 15.1706 24.6108C15.4617 24.7991 15.5776 25.1592 15.4535 25.4972C15.3893 25.6772 15.2825 26.0111 15.3079 26.2898C15.3548 26.8505 15.6977 27.0734 16.006 27.0988C16.3061 27.112 16.5158 26.9402 16.5717 26.816C16.6013 26.7428 16.5758 26.7001 16.5585 26.6787L16.5594 26.6803ZM33.9073 25.6567C33.8941 25.6139 33.8217 25.3401 33.719 25.0145L33.5093 24.4538C33.9204 23.8371 33.9286 23.2846 33.8735 22.9722C33.8135 22.5865 33.6548 22.2568 33.3301 21.9189C33.0086 21.576 32.345 21.2249 31.4118 20.9643L30.9234 20.8319C30.9234 20.8106 30.898 19.6759 30.8766 19.1916C30.8634 18.8405 30.8338 18.288 30.6628 17.7486C30.4614 17.016 30.1062 16.3739 29.6646 15.9628C30.8807 14.6999 31.6429 13.3078 31.6388 12.1173C31.6347 9.81755 28.821 9.1236 25.3521 10.5625L24.6154 10.8749C24.1657 10.4342 23.72 9.99268 23.2662 9.55197C19.3088 6.09621 6.94192 19.8642 10.8943 23.2131L11.7593 23.9457C11.5282 24.5705 11.4468 25.2431 11.5192 25.9116C11.6137 26.8324 12.0849 27.7147 12.8553 28.3955C13.5829 29.0417 14.5425 29.4528 15.4765 29.4528C17.014 33.0032 20.5298 35.1829 24.6491 35.307C29.0726 35.4353 32.7858 33.3584 34.3397 29.6247C34.4425 29.3632 34.875 28.1817 34.875 27.1408C34.875 26.0916 34.2838 25.6592 33.9073 25.6592V25.6567ZM15.8144 28.4489C15.6821 28.4744 15.5406 28.4835 15.4033 28.4785C14.0713 28.444 12.6284 27.2411 12.4828 25.8104C12.3241 24.2301 13.1291 23.0182 14.5556 22.7312C14.753 22.6885 14.9536 22.6753 15.155 22.6844C15.9559 22.7312 17.1333 23.3438 17.3988 25.0869C17.6389 26.6327 17.2615 28.2047 15.8144 28.453V28.4489ZM14.3246 21.7857C13.4382 21.9567 12.6547 22.4624 12.1745 23.1563C11.8875 22.9212 11.3564 22.4583 11.2627 22.2782C10.5005 20.8221 12.098 18.0002 13.2113 16.4027C15.969 12.4626 20.2897 9.47797 22.2902 10.0173C22.6158 10.1119 23.6904 11.3617 23.6904 11.3617C23.6904 11.3617 21.6908 12.4708 19.8359 14.0207C17.3396 15.948 15.4551 18.7443 14.3246 21.7849V21.7857ZM28.34 27.8627C28.3696 27.8495 28.3918 27.8158 28.3869 27.7854C28.3828 27.7426 28.3483 27.7122 28.3055 27.7172C28.3055 27.7172 26.2154 28.0296 24.2372 27.3019C24.451 26.6039 25.0249 26.8563 25.8898 26.9254C27.2342 27.0068 28.5834 26.8612 29.8809 26.4929C30.7763 26.2355 31.9496 25.7307 32.8655 25.0071C33.1738 25.6838 33.2807 26.4287 33.2807 26.4287C33.2807 26.4287 33.5208 26.386 33.7173 26.5101C33.9056 26.6261 34.0429 26.8703 33.9484 27.491C33.7601 28.6561 33.2635 29.6025 32.4322 30.4757C31.9142 31.0364 31.2975 31.4993 30.6077 31.8373C30.2262 32.0387 29.8282 32.2056 29.4213 32.3429C26.2862 33.3666 23.0787 32.2402 22.0427 29.8204C21.9613 29.6362 21.8931 29.4438 21.8371 29.2465C21.3964 27.653 21.7689 25.7389 22.9422 24.536C23.0104 24.4587 23.0836 24.3691 23.0836 24.2532C23.0836 24.1586 23.0236 24.0608 22.9726 23.9876C22.5656 23.3923 21.1481 22.3818 21.431 20.42C21.6365 19.0107 22.8657 18.0216 24.0136 18.0775L24.3046 18.0948C24.8012 18.1244 25.2337 18.1893 25.6407 18.2058C26.3256 18.2354 26.9423 18.1375 27.6708 17.5291C27.915 17.3235 28.1115 17.1435 28.4461 17.0884C28.4806 17.0843 28.5703 17.0497 28.7413 17.0588C28.9213 17.067 29.0924 17.1229 29.242 17.2216C29.8291 17.6113 29.9105 18.5536 29.9401 19.2426C29.9573 19.6364 30.0042 20.5869 30.0215 20.8615C30.0601 21.4864 30.2229 21.5769 30.5526 21.6837C30.7409 21.7479 30.9169 21.7947 31.1693 21.8638C31.9446 22.0825 32.4026 22.3045 32.6896 22.5874C32.8655 22.7633 32.942 22.9516 32.9683 23.1308C33.0628 23.7993 32.4544 24.6215 30.8445 25.3706C29.0841 26.1887 26.9521 26.3942 25.4787 26.2314L24.9607 26.1714C23.7833 26.0127 23.1108 27.5371 23.817 28.5871C24.2709 29.2596 25.5174 29.7003 26.7589 29.7003C29.6071 29.7003 31.7991 28.4802 32.6131 27.4261L32.6772 27.3315C32.72 27.2715 32.6854 27.2419 32.6345 27.2756C31.9709 27.7295 29.0118 29.5408 25.8512 28.9973C25.8512 28.9973 25.4656 28.9332 25.1145 28.7959C24.8358 28.689 24.2536 28.4193 24.1813 27.8191C26.7334 28.6117 28.3392 27.8619 28.3392 27.8619L28.34 27.8627ZM19.4157 16.3854C20.3966 15.2507 21.6036 14.2657 22.6832 13.7132C22.7219 13.6918 22.7605 13.7346 22.7432 13.7691C22.6577 13.9237 22.4908 14.2616 22.439 14.5099C22.4308 14.5486 22.4735 14.5782 22.5031 14.5568C23.1798 14.0988 24.349 13.6063 25.3768 13.5422C25.4195 13.5422 25.4409 13.5981 25.4064 13.6236C25.2354 13.756 25.0849 13.9064 24.9525 14.0774C24.9311 14.107 24.9525 14.1457 24.9871 14.1457C25.7106 14.1539 26.726 14.4071 27.3855 14.7796C27.4323 14.8051 27.4027 14.8906 27.3509 14.8783C26.3486 14.6472 24.7083 14.4713 23.0047 14.8914C21.4844 15.2639 20.3243 15.8337 19.4757 16.4545C19.433 16.4841 19.3812 16.4282 19.4157 16.3854Z" fill="black"/>
</svg>
