<svg width="45" height="45" viewBox="0 0 45 45" fill="none" xmlns="http://www.w3.org/2000/svg">
<path d="M44 22.5C44 34.3741 34.3741 44 22.5 44C10.6259 44 1 34.3741 1 22.5C1 10.6259 10.6259 1 22.5 1C34.3741 1 44 10.6259 44 22.5Z" fill="white" stroke="#F1F1F1" stroke-width="2"/>
<mask id="mask0_3243_1150" style="mask-type:luminance" maskUnits="userSpaceOnUse" x="10" y="13" width="25" height="18">
<path d="M10.125 13.5H34.875V30.7886H10.125V13.5Z" fill="white"/>
</mask>
<g mask="url(#mask0_3243_1150)">
<path fill-rule="evenodd" clip-rule="evenodd" d="M20.4018 15.3926C21.2008 14.5609 22.3127 14.0459 23.5411 14.0459C25.179 14.0459 26.5984 14.9559 27.3628 16.3116C28.0413 16.0083 28.7761 15.8518 29.5193 15.8521C32.4675 15.8521 34.8606 18.2634 34.8606 21.2389C34.8606 24.2144 32.4675 26.6257 29.5193 26.6257C29.159 26.6257 28.8077 26.5894 28.4638 26.521C27.795 27.713 26.5166 28.5229 25.0607 28.5229C24.4679 28.524 23.8828 28.3896 23.35 28.1298C22.6721 29.7221 21.0934 30.8413 19.2553 30.8413C17.3354 30.8413 15.7066 29.6311 15.0788 27.9296C14.7993 27.9886 14.5145 28.0182 14.2289 28.018C11.945 28.018 10.0978 26.1436 10.0978 23.8415C10.0978 22.2946 10.9295 20.9479 12.1634 20.22C11.9016 19.6169 11.7669 18.9665 11.7676 18.3091C11.7676 15.6521 13.9241 13.5047 16.5811 13.5047C18.137 13.5047 19.5292 14.2463 20.4028 15.3973" fill="#00A1E0"/>
</g>
<path fill-rule="evenodd" clip-rule="evenodd" d="M13.7046 22.49C13.689 22.5306 13.7102 22.5391 13.7152 22.5463C13.7617 22.58 13.8089 22.6043 13.8562 22.6317C14.1092 22.7655 14.3476 22.8046 14.5969 22.8046C15.1046 22.8046 15.4204 22.5344 15.4204 22.0994V22.0909C15.4204 21.6887 15.0637 21.5422 14.7306 21.4375L14.687 21.4234C14.435 21.3417 14.2175 21.2706 14.2175 21.105V21.0965C14.2175 20.9545 14.3449 20.8499 14.5415 20.8499C14.7598 20.8499 15.0201 20.9226 15.1866 21.0146C15.1866 21.0146 15.2359 21.0465 15.2538 20.9989C15.2636 20.9731 15.3485 20.7459 15.3576 20.7204C15.3672 20.6938 15.3503 20.6737 15.3329 20.6633C15.1418 20.5468 14.878 20.4676 14.605 20.4676L14.5543 20.4678C14.0893 20.4678 13.7645 20.749 13.7645 21.1512V21.1598C13.7645 21.5839 14.123 21.7222 14.4578 21.8177L14.5117 21.8344C14.7556 21.9094 14.9667 21.9746 14.9667 22.1456V22.1542C14.9667 22.3116 14.8293 22.429 14.6091 22.429C14.5234 22.429 14.2506 22.4275 13.9548 22.2406C13.9191 22.2198 13.8987 22.2048 13.8711 22.188C13.8566 22.1791 13.8202 22.1632 13.8043 22.2109L13.7042 22.4893M21.1383 22.4893C21.1228 22.5299 21.1439 22.5384 21.1491 22.5456C21.1954 22.5792 21.2428 22.6036 21.2901 22.631C21.5431 22.7648 21.7815 22.8039 22.0308 22.8039C22.5385 22.8039 22.8543 22.5336 22.8543 22.0987V22.0901C22.8543 21.6879 22.4985 21.5415 22.1646 21.4368L22.121 21.4227C21.8689 21.341 21.6514 21.2698 21.6514 21.1042V21.0958C21.6514 20.9538 21.7788 20.8492 21.9754 20.8492C22.1938 20.8492 22.4531 20.9219 22.6205 21.0139C22.6205 21.0139 22.6698 21.0457 22.6879 20.9981C22.6975 20.9724 22.7825 20.7452 22.7907 20.7197C22.8004 20.693 22.7834 20.6729 22.7661 20.6626C22.575 20.5461 22.3111 20.4669 22.0382 20.4669L21.9874 20.4671C21.5224 20.4671 21.1976 20.7483 21.1976 21.1505V21.1591C21.1976 21.5831 21.5561 21.7214 21.8909 21.817L21.9447 21.8337C22.1895 21.9087 22.3997 21.9738 22.3997 22.1449V22.1535C22.3997 22.3109 22.2623 22.4283 22.0421 22.4283C21.9563 22.4283 21.6827 22.4268 21.3878 22.2399C21.3521 22.2191 21.3312 22.2047 21.304 22.1872C21.2948 22.1814 21.252 22.1647 21.2373 22.2102L21.1372 22.4886M26.2146 21.6369C26.2146 21.8826 26.1688 22.0764 26.0791 22.2138C25.9895 22.3494 25.8543 22.4158 25.666 22.4158C25.4776 22.4158 25.3429 22.3499 25.2547 22.2147C25.1658 22.0782 25.1209 21.8835 25.1209 21.6378C25.1209 21.3921 25.166 21.1992 25.2547 21.0636C25.3427 20.929 25.4767 20.8644 25.666 20.8644C25.8552 20.8644 25.9899 20.9296 26.0791 21.0636C26.1693 21.1992 26.2146 21.3921 26.2146 21.6378M26.6387 21.1819C26.5969 21.0409 26.5322 20.9172 26.4458 20.8134C26.3592 20.7097 26.2501 20.626 26.12 20.5659C25.9908 20.5054 25.8379 20.4749 25.665 20.4749C25.4922 20.4749 25.3402 20.5056 25.2101 20.5659C25.0809 20.6263 24.9708 20.7097 24.8843 20.8134C24.7981 20.9172 24.7333 21.0409 24.6914 21.1819C24.65 21.3221 24.629 21.4749 24.629 21.6378C24.629 21.8007 24.65 21.9536 24.6914 22.0937C24.733 22.2347 24.7979 22.3585 24.8843 22.4622C24.9709 22.5659 25.0809 22.6487 25.2101 22.7079C25.3402 22.7668 25.4931 22.7969 25.665 22.7969C25.837 22.7969 25.9899 22.7668 26.1191 22.7079C26.2483 22.6489 26.3584 22.5659 26.4448 22.4622C26.5312 22.3585 26.5959 22.2347 26.6378 22.0937C26.6791 21.9536 26.7001 21.8007 26.7001 21.6378C26.7001 21.4758 26.6791 21.3221 26.6378 21.1819M30.1228 22.3466C30.1088 22.3054 30.0686 22.321 30.0686 22.321C30.007 22.3446 29.9412 22.3664 29.8712 22.3773C29.8006 22.3884 29.7219 22.394 29.6391 22.394C29.4344 22.394 29.2706 22.3329 29.1542 22.212C29.0368 22.091 28.9713 21.8962 28.9722 21.6324C28.9728 21.3921 29.0309 21.212 29.135 21.0737C29.2379 20.9372 29.3962 20.8662 29.6055 20.8662C29.7802 20.8662 29.9139 20.8865 30.0541 20.9303C30.0541 20.9303 30.0873 20.9448 30.1032 20.901C30.1404 20.7982 30.1679 20.7245 30.2078 20.6117C30.2191 20.5794 30.1915 20.5657 30.1814 20.5618C30.1264 20.5403 29.9967 20.5051 29.8984 20.4903C29.8065 20.4763 29.7 20.469 29.5799 20.469C29.4016 20.469 29.2432 20.4995 29.1077 20.5599C28.9721 20.6202 28.8574 20.7037 28.7664 20.8074C28.6754 20.9111 28.6063 21.0349 28.5599 21.1759C28.5139 21.3161 28.4907 21.4698 28.4907 21.6327C28.4907 21.9839 28.5854 22.2688 28.7728 22.4771C28.9602 22.6864 29.2423 22.792 29.6099 22.792C29.8274 22.792 30.0503 22.748 30.2105 22.6846C30.2105 22.6846 30.2411 22.6699 30.2278 22.6342L30.1231 22.3466M30.8647 21.4003C30.885 21.2638 30.9224 21.1501 30.9812 21.0618C31.0692 20.9272 31.2032 20.8535 31.3916 20.8535C31.5799 20.8535 31.7046 20.9275 31.7938 21.0618C31.8529 21.1505 31.8787 21.2684 31.8884 21.4003L30.8602 21.4001L30.8647 21.4003ZM32.2933 21.1C32.2572 20.9645 32.1677 20.8271 32.1095 20.7643C32.0167 20.6651 31.9266 20.595 31.8365 20.5568C31.7065 20.5015 31.5666 20.4731 31.4252 20.4734C31.246 20.4734 31.0831 20.5037 30.9512 20.5653C30.8192 20.6273 30.7082 20.7118 30.6209 20.8173C30.5336 20.9229 30.468 21.0475 30.4261 21.1904C30.3843 21.3314 30.3632 21.4861 30.3632 21.6481C30.3632 21.8137 30.3851 21.9675 30.4282 22.1067C30.4718 22.2468 30.542 22.3697 30.6366 22.4716C30.7312 22.5744 30.8523 22.6545 30.9978 22.7109C31.1425 22.7668 31.3181 22.7959 31.5192 22.7952C31.9342 22.7939 32.1525 22.7015 32.2417 22.6515C32.2576 22.6426 32.2727 22.6272 32.2539 22.5829L32.1602 22.3199C32.1458 22.2807 32.1061 22.2949 32.1061 22.2949C32.0033 22.3333 31.8577 22.4022 31.5165 22.4013C31.2936 22.401 31.1289 22.3352 31.0251 22.2321C30.9196 22.1265 30.8668 21.9728 30.8586 21.7544L32.2963 21.7555C32.2963 21.7555 32.3342 21.7551 32.3381 21.7182C32.3396 21.7029 32.3873 21.4233 32.2952 21.1003L32.2933 21.1ZM19.3724 21.4003C19.3926 21.2638 19.4301 21.1501 19.4888 21.0618C19.5769 20.9272 19.7108 20.8535 19.8992 20.8535C20.0876 20.8535 20.2122 20.9275 20.3014 21.0618C20.3604 21.1505 20.3863 21.2684 20.396 21.4003L19.3678 21.4001L19.3724 21.4003ZM20.8009 21.1C20.7649 20.9645 20.6754 20.8271 20.6171 20.7643C20.5243 20.6651 20.4342 20.595 20.3442 20.5568C20.2141 20.5015 20.0742 20.4731 19.9329 20.4734C19.7536 20.4734 19.5907 20.5037 19.4588 20.5653C19.3269 20.6273 19.2158 20.7118 19.1285 20.8173C19.0414 20.9229 18.9756 21.0475 18.9338 21.1904C18.892 21.3314 18.871 21.4861 18.871 21.6481C18.871 21.8137 18.8927 21.9675 18.9361 22.1067C18.9796 22.2468 19.0499 22.3697 19.1436 22.4716C19.2382 22.5744 19.3592 22.6545 19.5048 22.7109C19.6495 22.7668 19.8242 22.7959 20.0262 22.7952C20.4412 22.7939 20.6595 22.7015 20.7487 22.6515C20.7645 22.6426 20.7796 22.6272 20.7608 22.5829L20.6671 22.3199C20.6526 22.2807 20.6129 22.2949 20.6129 22.2949C20.5101 22.3333 20.3645 22.4022 20.0233 22.4013C19.8013 22.401 19.6357 22.3352 19.532 22.2321C19.4264 22.1265 19.3736 21.9728 19.3654 21.7544L20.8031 21.7555C20.8031 21.7555 20.841 21.7551 20.8449 21.7182C20.8464 21.7029 20.8941 21.4233 20.8019 21.1003L20.8009 21.1ZM16.2695 22.3375C16.2132 22.2926 16.2054 22.2816 16.1867 22.2524C16.1582 22.2084 16.1437 22.1459 16.1437 22.0658C16.1437 21.9403 16.1855 21.8493 16.272 21.7883C16.271 21.7885 16.3957 21.6809 16.6887 21.6846C16.8191 21.6869 16.9492 21.698 17.0782 21.7178V22.3702H17.0783C17.0783 22.3702 16.8964 22.4094 16.6907 22.4218C16.3986 22.4394 16.2694 22.3377 16.2703 22.338L16.2695 22.3375ZM16.8409 21.3275C16.7827 21.3233 16.7072 21.3212 16.6171 21.3212C16.4943 21.3212 16.3751 21.3364 16.264 21.3665C16.1521 21.3967 16.0511 21.4435 15.9647 21.5057C15.878 21.5675 15.8067 21.6485 15.7563 21.7423C15.7054 21.8369 15.6795 21.9479 15.6795 22.0735C15.6795 22.2009 15.7016 22.311 15.7453 22.4011C15.7881 22.4904 15.8525 22.5677 15.9327 22.6258C16.0125 22.6839 16.1111 22.7268 16.2248 22.7523C16.3377 22.778 16.465 22.7911 16.6052 22.7911C16.7526 22.7911 16.8991 22.7787 17.041 22.7547C17.1619 22.7339 17.2824 22.7105 17.4023 22.6845C17.4501 22.6735 17.5033 22.659 17.5033 22.659C17.5388 22.65 17.536 22.6121 17.536 22.6121L17.5352 21.3018C17.5352 21.0142 17.4584 20.8004 17.3068 20.6685C17.1558 20.5365 16.9347 20.4701 16.648 20.4701C16.5407 20.4701 16.3669 20.4847 16.2631 20.5055C16.2631 20.5055 15.9501 20.5663 15.8209 20.6675C15.8209 20.6675 15.7925 20.6849 15.808 20.7245L15.9099 20.9975C15.9225 21.0329 15.957 21.0208 15.957 21.0208C15.957 21.0208 15.9679 21.0165 15.9806 21.009C16.2563 20.8588 16.6057 20.8634 16.6057 20.8634C16.7604 20.8634 16.8805 20.8948 16.9606 20.9562C17.0389 21.0163 17.0789 21.1072 17.0789 21.2983V21.359C16.956 21.3412 16.8423 21.3309 16.8423 21.3309L16.8409 21.3275ZM28.397 20.5878C28.3991 20.583 28.4002 20.5778 28.4002 20.5726C28.4002 20.5673 28.3992 20.5622 28.3972 20.5573C28.3952 20.5525 28.3922 20.5482 28.3885 20.5445C28.3847 20.5408 28.3803 20.538 28.3754 20.5361C28.351 20.5268 28.2289 20.501 28.1352 20.4952C27.9551 20.4839 27.855 20.5143 27.7649 20.5547C27.6759 20.5949 27.5774 20.6594 27.5228 20.734L27.5227 20.5593C27.5227 20.5353 27.5056 20.5159 27.4814 20.5159H27.1138C27.09 20.5159 27.0727 20.5353 27.0727 20.5593V22.6976C27.0727 22.7092 27.0773 22.7202 27.0855 22.7284C27.0937 22.7366 27.1047 22.7412 27.1163 22.7412H27.493C27.5045 22.7412 27.5156 22.7366 27.5238 22.7284C27.5319 22.7202 27.5365 22.7091 27.5365 22.6976V21.6239C27.5365 21.4801 27.5523 21.3373 27.5839 21.2472C27.615 21.1581 27.6573 21.087 27.7095 21.0361C27.7592 20.9869 27.8201 20.9503 27.8869 20.9296C27.9496 20.9116 28.0146 20.9025 28.0798 20.9025C28.1549 20.9025 28.2372 20.9218 28.2372 20.9218C28.2649 20.9249 28.2803 20.908 28.2896 20.883C28.3143 20.8174 28.3843 20.621 28.3979 20.5818" fill="#FFFFFE"/>
<path fill-rule="evenodd" clip-rule="evenodd" d="M24.8786 19.6008C24.8321 19.5868 24.7847 19.5755 24.7368 19.5672C24.6723 19.5564 24.607 19.5514 24.5417 19.5521C24.2821 19.5521 24.0774 19.6254 23.9338 19.7703C23.7911 19.914 23.694 20.1331 23.6453 20.4212L23.6278 20.5185H23.3019C23.3019 20.5185 23.2622 20.5169 23.2538 20.5603L23.2003 20.8587C23.1965 20.8873 23.2088 20.9051 23.247 20.9049H23.5642L23.2424 22.7014C23.2172 22.8461 23.1884 22.9651 23.1564 23.0553C23.1249 23.1443 23.0942 23.211 23.0563 23.2594C23.0197 23.3062 22.9849 23.3407 22.9249 23.3608C22.8754 23.3775 22.8185 23.3851 22.7561 23.3851C22.7213 23.3851 22.6751 23.3793 22.6409 23.3725C22.6068 23.3658 22.5891 23.3581 22.5635 23.3474C22.5635 23.3474 22.5263 23.3332 22.5116 23.3705C22.4997 23.401 22.4152 23.6335 22.4052 23.6622C22.395 23.6906 22.4093 23.713 22.4273 23.7194C22.4695 23.7345 22.5009 23.7442 22.5584 23.7577C22.6383 23.7766 22.7056 23.7778 22.7687 23.7778C22.9008 23.7778 23.0212 23.7592 23.121 23.7232C23.2215 23.6869 23.3089 23.6236 23.3863 23.538C23.4699 23.4456 23.5225 23.3489 23.5728 23.217C23.6226 23.0862 23.665 22.9239 23.6989 22.7347L24.0223 20.9049H24.4951C24.4951 20.9049 24.535 20.9064 24.5432 20.8632L24.5967 20.5647C24.6005 20.5362 24.5883 20.5183 24.5499 20.5185H24.091C24.0933 20.5081 24.1141 20.3467 24.1668 20.1947C24.1893 20.1299 24.2316 20.0775 24.2674 20.0416C24.3009 20.0074 24.3421 19.9817 24.3876 19.9668C24.4375 19.9514 24.4895 19.9439 24.5417 19.9446C24.5849 19.9446 24.6273 19.9498 24.6596 19.9565C24.7041 19.966 24.7214 19.971 24.733 19.9745C24.7798 19.9887 24.7861 19.9749 24.7953 19.9523L24.905 19.6509C24.9163 19.6185 24.8888 19.6048 24.8786 19.6008ZM18.466 22.7052C18.466 22.7293 18.4489 22.7488 18.4249 22.7488H18.0443C18.0202 22.7488 18.0031 22.7293 18.0031 22.7052V19.6417C18.0031 19.6178 18.0202 19.5984 18.0443 19.5984H18.4249C18.4489 19.5984 18.466 19.6178 18.466 19.6417V22.7052Z" fill="#FFFFFE"/>
</svg>
