<svg width="45" height="45" viewBox="0 0 45 45" fill="none" xmlns="http://www.w3.org/2000/svg">
<path d="M44 22.5C44 34.3741 34.3741 44 22.5 44C10.6259 44 1 34.3741 1 22.5C1 10.6259 10.6259 1 22.5 1C34.3741 1 44 10.6259 44 22.5Z" fill="white" stroke="#F1F1F1" stroke-width="2"/>
<path d="M31.5026 23.0664C31.5026 23.5237 31.274 23.5808 30.7024 23.5808C30.0736 23.5808 29.9593 23.4665 29.9021 23.0092C29.7878 21.8089 28.9876 20.78 27.6158 20.7229C27.2156 20.6657 27.1013 20.5514 27.1013 19.9798C27.1013 19.4654 27.1585 19.2367 27.5586 19.2367C29.845 19.2939 31.5026 21.1801 31.5026 23.0664ZM34.875 23.0664C34.875 19.5225 32.4743 15.75 26.8727 15.75H15.8409C15.6123 15.75 15.4408 15.8643 15.4408 16.093C15.4408 16.2073 15.498 16.3216 15.6123 16.3788C16.0124 16.7217 16.584 17.0647 17.3842 17.4648C18.1273 17.8649 18.7561 18.0935 19.3277 18.3222C19.5563 18.4365 19.6706 18.5508 19.6706 18.6651C19.6706 18.8366 19.5563 19.0081 19.2705 19.0081H10.5251C10.2393 18.9509 10.125 19.1224 10.125 19.2939C10.125 19.4654 10.1822 19.5797 10.2965 19.694C10.9824 20.4371 12.1256 21.3516 13.7832 22.3805C15.2122 23.295 17.0413 24.2667 18.4703 24.9527C18.6989 25.067 18.8132 25.1813 18.8132 25.3528C18.8132 25.5242 18.6989 25.6386 18.4131 25.6386H14.3548C14.1262 25.6386 14.0118 25.7529 14.0118 25.9244C14.0118 26.0387 14.069 26.153 14.1833 26.2673C15.0979 27.1247 16.584 27.9821 18.5274 28.8395C21.1568 29.9255 23.7861 30.6114 26.7584 30.6114C32.4171 30.6114 34.875 26.3816 34.875 23.0664ZM27.5014 28.1536C24.7578 28.1536 22.4143 25.9244 22.4143 23.0664C22.4143 20.3227 24.7006 18.0935 27.5014 18.0935C30.3594 18.0935 32.5886 20.3227 32.5886 23.0664C32.5886 25.8672 30.3594 28.1536 27.5014 28.1536Z" fill="#FF642D"/>
</svg>
