<svg width="45" height="45" viewBox="0 0 45 45" fill="none" xmlns="http://www.w3.org/2000/svg">
<path d="M44 22.5C44 34.3741 34.3741 44 22.5 44C10.6259 44 1 34.3741 1 22.5C1 10.6259 10.6259 1 22.5 1C34.3741 1 44 10.6259 44 22.5Z" fill="white" stroke="#F1F1F1" stroke-width="2"/>
<mask id="mask0_3243_1149" style="mask-type:luminance" maskUnits="userSpaceOnUse" x="13" y="10" width="19" height="25">
<path d="M24.75 10.125H15.1875C14.2594 10.125 13.5 10.8844 13.5 11.8125V33.1875C13.5 34.1156 14.2594 34.875 15.1875 34.875H29.8125C30.7406 34.875 31.5 34.1156 31.5 33.1875V16.875L24.75 10.125Z" fill="white"/>
</mask>
<g mask="url(#mask0_3243_1149)">
<path d="M24.75 10.125H15.1875C14.2594 10.125 13.5 10.8844 13.5 11.8125V33.1875C13.5 34.1156 14.2594 34.875 15.1875 34.875H29.8125C30.7406 34.875 31.5 34.1156 31.5 33.1875V16.875L27.5625 14.0625L24.75 10.125Z" fill="#0F9D58"/>
</g>
<mask id="mask1_3243_1149" style="mask-type:luminance" maskUnits="userSpaceOnUse" x="13" y="10" width="19" height="25">
<path d="M24.75 10.125H15.1875C14.2594 10.125 13.5 10.8844 13.5 11.8125V33.1875C13.5 34.1156 14.2594 34.875 15.1875 34.875H29.8125C30.7406 34.875 31.5 34.1156 31.5 33.1875V16.875L24.75 10.125Z" fill="white"/>
</mask>
<g mask="url(#mask1_3243_1149)">
<path d="M18 22.2188V30.375H27V22.2188H18ZM21.9375 29.25H19.125V27.8437H21.9375V29.25ZM21.9375 27H19.125V25.5937H21.9375V27ZM21.9375 24.75H19.125V23.3438H21.9375V24.75ZM25.875 29.25H23.0625V27.8437H25.875V29.25ZM25.875 27H23.0625V25.5937H25.875V27ZM25.875 24.75H23.0625V23.3438H25.875V24.75Z" fill="#F1F1F1"/>
</g>
<mask id="mask2_3243_1149" style="mask-type:luminance" maskUnits="userSpaceOnUse" x="13" y="10" width="19" height="25">
<path d="M24.75 10.125H15.1875C14.2594 10.125 13.5 10.8844 13.5 11.8125V33.1875C13.5 34.1156 14.2594 34.875 15.1875 34.875H29.8125C30.7406 34.875 31.5 34.1156 31.5 33.1875V16.875L24.75 10.125Z" fill="white"/>
</mask>
<g mask="url(#mask2_3243_1149)">
<path d="M25.2435 16.3814L31.4999 22.6364V16.875L25.2435 16.3814Z" fill="url(#paint0_linear_3243_1149)"/>
</g>
<mask id="mask3_3243_1149" style="mask-type:luminance" maskUnits="userSpaceOnUse" x="13" y="10" width="19" height="25">
<path d="M24.75 10.125H15.1875C14.2594 10.125 13.5 10.8844 13.5 11.8125V33.1875C13.5 34.1156 14.2594 34.875 15.1875 34.875H29.8125C30.7406 34.875 31.5 34.1156 31.5 33.1875V16.875L24.75 10.125Z" fill="white"/>
</mask>
<g mask="url(#mask3_3243_1149)">
<path d="M24.75 10.125V15.1875C24.75 16.1198 25.5052 16.875 26.4375 16.875H31.5L24.75 10.125Z" fill="#87CEAC"/>
</g>
<mask id="mask4_3243_1149" style="mask-type:luminance" maskUnits="userSpaceOnUse" x="13" y="10" width="19" height="25">
<path d="M24.75 10.125H15.1875C14.2594 10.125 13.5 10.8844 13.5 11.8125V33.1875C13.5 34.1156 14.2594 34.875 15.1875 34.875H29.8125C30.7406 34.875 31.5 34.1156 31.5 33.1875V16.875L24.75 10.125Z" fill="white"/>
</mask>
<g mask="url(#mask4_3243_1149)">
<path d="M15.1875 10.125C14.2594 10.125 13.5 10.8844 13.5 11.8125V11.9531C13.5 11.025 14.2594 10.2656 15.1875 10.2656H24.75V10.125H15.1875Z" fill="white" fill-opacity="0.2"/>
</g>
<mask id="mask5_3243_1149" style="mask-type:luminance" maskUnits="userSpaceOnUse" x="13" y="10" width="19" height="25">
<path d="M24.75 10.125H15.1875C14.2594 10.125 13.5 10.8844 13.5 11.8125V33.1875C13.5 34.1156 14.2594 34.875 15.1875 34.875H29.8125C30.7406 34.875 31.5 34.1156 31.5 33.1875V16.875L24.75 10.125Z" fill="white"/>
</mask>
<g mask="url(#mask5_3243_1149)">
<path d="M29.8125 34.7344H15.1875C14.2594 34.7344 13.5 33.975 13.5 33.0469V33.1875C13.5 34.1156 14.2594 34.875 15.1875 34.875H29.8125C30.7406 34.875 31.5 34.1156 31.5 33.1875V33.0469C31.5 33.975 30.7406 34.7344 29.8125 34.7344Z" fill="#263238" fill-opacity="0.2"/>
</g>
<mask id="mask6_3243_1149" style="mask-type:luminance" maskUnits="userSpaceOnUse" x="13" y="10" width="19" height="25">
<path d="M24.75 10.125H15.1875C14.2594 10.125 13.5 10.8844 13.5 11.8125V33.1875C13.5 34.1156 14.2594 34.875 15.1875 34.875H29.8125C30.7406 34.875 31.5 34.1156 31.5 33.1875V16.875L24.75 10.125Z" fill="white"/>
</mask>
<g mask="url(#mask6_3243_1149)">
<path d="M26.4375 16.875C25.5052 16.875 24.75 16.1198 24.75 15.1875V15.3281C24.75 16.2605 25.5052 17.0156 26.4375 17.0156H31.5V16.875H26.4375Z" fill="#263238" fill-opacity="0.1"/>
</g>
<path d="M24.75 10.125H15.1875C14.2594 10.125 13.5 10.8844 13.5 11.8125V33.1875C13.5 34.1156 14.2594 34.875 15.1875 34.875H29.8125C30.7406 34.875 31.5 34.1156 31.5 33.1875V16.875L24.75 10.125Z" fill="url(#paint1_radial_3243_1149)"/>
<defs>
<linearGradient id="paint0_linear_3243_1149" x1="338.098" y1="70.0875" x2="338.098" y2="641.969" gradientUnits="userSpaceOnUse">
<stop stop-color="#263238" stop-opacity="0.2"/>
<stop offset="1" stop-color="#263238" stop-opacity="0.02"/>
</linearGradient>
<radialGradient id="paint1_radial_3243_1149" cx="0" cy="0" r="1" gradientUnits="userSpaceOnUse" gradientTransform="translate(70.5249 59.0419) scale(2902.47 2902.47)">
<stop stop-color="white" stop-opacity="0.1"/>
<stop offset="1" stop-color="white" stop-opacity="0"/>
</radialGradient>
</defs>
</svg>
