<svg width="45" height="45" viewBox="0 0 45 45" fill="none" xmlns="http://www.w3.org/2000/svg">
<circle cx="22.5" cy="22.5" r="21.5" fill="white" stroke="#F1F1F1" stroke-width="2"/>
<path d="M31.8025 13.3551C31.783 13.2137 31.6591 13.1354 31.5567 13.1267C31.4544 13.1182 29.2911 12.9579 29.2911 12.9579C29.2911 12.9579 27.7887 11.4663 27.6238 11.3012C27.4588 11.1362 27.1365 11.1864 27.0114 11.2232C26.993 11.2286 26.6832 11.3242 26.1706 11.4828C25.6687 10.0386 24.783 8.71144 23.2247 8.71144C23.1817 8.71144 23.1374 8.71318 23.0932 8.7157C22.65 8.12962 22.101 7.875 21.6268 7.875C17.9969 7.875 16.2627 12.4128 15.719 14.7187C14.3085 15.1558 13.3064 15.4665 13.1784 15.5067C12.3911 15.7537 12.3662 15.7785 12.2628 16.5204C12.185 17.082 10.125 33.0133 10.125 33.0133L26.1773 36.0209L34.875 34.1394C34.875 34.1394 31.8217 13.4966 31.8025 13.3551ZM25.2834 11.7572L23.9251 12.1776C23.9256 12.0819 23.9261 11.9877 23.9261 11.8847C23.9261 10.9872 23.8015 10.2645 23.6016 9.69156C24.4045 9.79233 24.9393 10.7059 25.2834 11.7572ZM22.6056 9.86955C22.8288 10.4289 22.974 11.2316 22.974 12.3148C22.974 12.3702 22.9735 12.4209 22.973 12.4722C22.0897 12.7458 21.1298 13.0428 20.1678 13.3409C20.7079 11.2562 21.7204 10.2494 22.6056 9.86955ZM21.5271 8.84863C21.6838 8.84863 21.8416 8.90183 21.9927 9.00579C20.8293 9.55321 19.5824 10.9319 19.0558 13.6852L16.8384 14.372C17.4552 12.2719 18.9199 8.84863 21.5271 8.84863Z" fill="#95BF46"/>
<path d="M31.5568 13.1268C31.4546 13.1182 29.2913 12.9579 29.2913 12.9579C29.2913 12.9579 27.7888 11.4663 27.6239 11.3012C27.5622 11.2398 27.479 11.2083 27.3919 11.1947L26.1782 36.0208L34.8751 34.1394C34.8751 34.1394 31.8218 13.4966 31.8026 13.3551C31.7831 13.2137 31.6592 13.1354 31.5568 13.1268Z" fill="#5E8E3E"/>
<path d="M23.2247 17.9326L22.1523 21.1228C22.1523 21.1228 21.2126 20.6213 20.0608 20.6213C18.3723 20.6213 18.2873 21.681 18.2873 21.948C18.2873 23.405 22.0853 23.9633 22.0853 27.3761C22.0853 30.0611 20.3823 31.7901 18.086 31.7901C15.3305 31.7901 13.9214 30.0752 13.9214 30.0752L14.6592 27.6375C14.6592 27.6375 16.1077 28.881 17.3299 28.881C18.1286 28.881 18.4534 28.2522 18.4534 27.7928C18.4534 25.8922 15.3375 25.8074 15.3375 22.6844C15.3375 20.0559 17.2241 17.5123 21.0324 17.5123C22.4998 17.5123 23.2247 17.9326 23.2247 17.9326Z" fill="white"/>
</svg>
