<svg width="45" height="45" viewBox="0 0 45 45" fill="none" xmlns="http://www.w3.org/2000/svg">
<path d="M44 22.5C44 34.3741 34.3741 44 22.5 44C10.6259 44 1 34.3741 1 22.5C1 10.6259 10.6259 1 22.5 1C34.3741 1 44 10.6259 44 22.5Z" fill="white" stroke="#F1F1F1" stroke-width="2"/>
<path d="M10.125 28.5799V28.581C10.1398 29.1304 10.1444 29.683 10.2371 30.229C10.3353 30.8067 10.4756 31.37 10.7435 31.8943C11.1056 32.604 11.6028 33.2033 12.2305 33.6928C12.6812 34.0443 13.1735 34.3233 13.7185 34.4994C14.5132 34.7557 15.3331 34.8539 16.1649 34.8587C16.6838 34.862 17.2025 34.875 17.7216 34.8728C21.4919 34.857 25.2622 34.9001 29.0325 34.8496C29.5328 34.8428 30.025 34.7818 30.516 34.692C31.4571 34.5197 32.2889 34.1181 33.0005 33.4832C33.8299 32.7435 34.3894 31.8382 34.642 30.7456C34.8073 30.0314 34.8487 29.3069 34.8557 28.5798V28.4347C34.8557 28.3784 34.8343 16.0801 34.8323 15.9175C34.8268 15.471 34.7939 15.0278 34.7102 14.5884C34.6084 14.053 34.4645 13.5313 34.2082 13.0469C33.9374 12.5352 33.5983 12.075 33.1789 11.6729C32.5364 11.0568 31.7951 10.6212 30.9319 10.3907C30.1523 10.1826 29.357 10.1365 28.5559 10.1373C28.5546 10.1371 28.5516 10.1289 28.5514 10.125H16.4255C16.4252 10.1291 16.4251 10.1333 16.4248 10.1373C15.9701 10.1456 15.5148 10.1422 15.0624 10.1982C14.5669 10.2599 14.0761 10.3526 13.6071 10.5259C12.8683 10.7991 12.2264 11.2247 11.6781 11.793C11.0568 12.4367 10.619 13.1812 10.3866 14.0482C10.1793 14.8217 10.1342 15.6106 10.1331 16.4051" fill="#FFFC00"/>
<path d="M22.6025 31.007C22.5511 31.007 22.5021 31.0051 22.4648 31.0033C22.4353 31.0059 22.4047 31.007 22.3741 31.007C21.2951 31.007 20.5736 30.4968 19.9369 30.0464C19.4805 29.724 19.0502 29.4197 18.546 29.3358C18.2983 29.2948 18.052 29.2739 17.814 29.2739C17.3851 29.2739 17.0462 29.3405 16.7988 29.3888C16.6465 29.4185 16.5152 29.444 16.4138 29.444C16.3075 29.444 16.1784 29.4205 16.1245 29.2367C16.0819 29.0918 16.0513 28.9513 16.0218 28.8161C15.9479 28.4782 15.8943 28.2719 15.7678 28.2523C14.4144 28.0435 13.6148 27.7359 13.4555 27.3634C13.4388 27.3242 13.4295 27.2848 13.4274 27.2459C13.4212 27.1348 13.4996 27.0374 13.6091 27.0193C14.6838 26.8423 15.6395 26.2743 16.4496 25.3303C17.0772 24.5996 17.3853 23.9014 17.4184 23.8243C17.4199 23.8208 17.4216 23.8171 17.4233 23.8138C17.5794 23.497 17.6105 23.2232 17.5159 23.0003C17.3415 22.5891 16.764 22.4058 16.3819 22.2846C16.2869 22.2545 16.197 22.226 16.1254 22.1976C15.7866 22.0638 15.2296 21.7811 15.3038 21.391C15.3578 21.1064 15.7342 20.9083 16.0383 20.9083C16.1228 20.9083 16.1976 20.9231 16.2606 20.9527C16.6043 21.1137 16.9135 21.1953 17.1794 21.1953C17.51 21.1953 17.6698 21.0694 17.7084 21.0336C17.6989 20.8572 17.6872 20.6707 17.676 20.4943C17.676 20.4941 17.6757 20.492 17.6757 20.492C17.5981 19.2572 17.5013 17.7206 17.8944 16.8394C19.0708 14.2016 21.5657 13.9965 22.3021 13.9965C22.3217 13.9965 22.6231 13.9935 22.6231 13.9935C22.6367 13.9933 22.6514 13.9931 22.6667 13.9931C23.4052 13.9931 25.9053 14.1985 27.0824 16.8378C27.4755 17.7196 27.3786 19.2575 27.3007 20.4936L27.2971 20.5528C27.2864 20.7206 27.2765 20.8795 27.2682 21.0334C27.3046 21.0669 27.4507 21.1823 27.7481 21.194C28.0016 21.1843 28.2929 21.1031 28.6136 20.9529C28.7128 20.9063 28.8226 20.8967 28.8972 20.8967C29.0098 20.8967 29.1245 20.9186 29.22 20.9585L29.2251 20.9604C29.4973 21.0571 29.6756 21.2502 29.6795 21.453C29.6829 21.6421 29.5424 21.9247 28.8512 22.1977C28.7804 22.2258 28.6901 22.2544 28.5946 22.2847C28.2122 22.4061 27.6351 22.5892 27.4608 23.0002C27.366 23.2231 27.3972 23.4968 27.5534 23.8135C27.5551 23.817 27.5566 23.8205 27.5583 23.8242C27.6064 23.9369 28.7705 26.5912 31.3677 27.0191C31.4771 27.0373 31.5556 27.1348 31.5494 27.2456C31.5471 27.2855 31.5374 27.3253 31.5206 27.3642C31.3624 27.7346 30.5628 28.0418 29.2091 28.2509C29.082 28.2705 29.0285 28.4759 28.9553 28.8121C28.925 28.9509 28.8942 29.087 28.8521 29.23C28.8127 29.3645 28.7251 29.4303 28.5844 29.4303H28.5631C28.4715 29.4303 28.3417 29.4136 28.178 29.3816C27.8919 29.3259 27.5709 29.2741 27.1628 29.2741C26.9249 29.2741 26.6786 29.295 26.4307 29.336C25.927 29.4199 25.4967 29.7237 25.0411 30.0457C24.4032 30.4968 23.6814 31.007 22.6025 31.007Z" fill="white"/>
<path d="M22.6667 14.2104C23.3619 14.2104 25.7558 14.3972 26.8839 16.9263C27.2553 17.7591 27.1601 19.2678 27.0837 20.4796C27.0718 20.672 27.06 20.8584 27.0504 21.0364L27.0463 21.1129L27.0974 21.1699C27.118 21.1928 27.3111 21.3946 27.7406 21.4111L27.7475 21.4115L27.7547 21.4114C28.0387 21.4006 28.3585 21.3124 28.7058 21.1497C28.757 21.1257 28.8251 21.114 28.8971 21.114C28.9792 21.114 29.0665 21.1295 29.1384 21.1598L29.1493 21.1641C29.3314 21.2279 29.4602 21.3482 29.4621 21.4571C29.4632 21.5187 29.4172 21.7404 28.7716 21.9955C28.7085 22.0204 28.6254 22.0469 28.5291 22.0772C28.109 22.2106 27.4743 22.412 27.2606 22.9153C27.1404 23.1989 27.1733 23.5335 27.3585 23.9098C27.4346 24.0876 28.6339 26.7889 31.3324 27.2335C31.3319 27.2463 31.3286 27.2603 31.3214 27.2768C31.2757 27.3846 30.9849 27.7567 29.1759 28.0359C28.8928 28.0793 28.8235 28.3966 28.743 28.7654C28.714 28.8975 28.6845 29.0308 28.6439 29.1685C28.6315 29.2101 28.6292 29.2125 28.5846 29.2125C28.5784 29.2125 28.5712 29.2125 28.5633 29.2125C28.4831 29.2125 28.3613 29.1958 28.2202 29.1681C27.9631 29.1181 27.612 29.0566 27.163 29.0566C26.9124 29.0566 26.6543 29.0784 26.3954 29.1217C25.8418 29.2137 25.3916 29.5321 24.9148 29.8692C24.2745 30.3216 23.6127 30.7898 22.6029 30.7898C22.5588 30.7898 22.5158 30.7883 22.4726 30.7862L22.4613 30.7857L22.4499 30.7865C22.4251 30.7887 22.4001 30.7898 22.3747 30.7898C21.365 30.7898 20.703 30.3218 20.0629 29.8692C19.586 29.5321 19.1356 29.2137 18.5821 29.1217C18.3234 29.0786 18.065 29.0566 17.8146 29.0566C17.3657 29.0566 17.0141 29.1253 16.7576 29.1755C16.6165 29.2031 16.4943 29.2267 16.4143 29.2267C16.3488 29.2267 16.3475 29.2229 16.3337 29.1756C16.2931 29.0378 16.2634 28.9013 16.2345 28.7694C16.1539 28.4002 16.0845 28.0811 15.8016 28.0377C13.9927 27.7583 13.7019 27.3855 13.656 27.2781C13.6489 27.2611 13.6456 27.2467 13.6449 27.2339C16.3434 26.7896 17.5424 24.0883 17.6188 23.9098C17.8043 23.5338 17.8372 23.1992 17.7165 22.9153C17.5029 22.4122 16.8683 22.2106 16.4484 22.0775C16.3519 22.0469 16.2688 22.0204 16.2057 21.9955C15.6605 21.7801 15.4928 21.5631 15.5177 21.4316C15.5466 21.28 15.8095 21.1258 16.0389 21.1258C16.0904 21.1258 16.1356 21.1341 16.1691 21.1497C16.5416 21.3243 16.8817 21.4129 17.1801 21.4129C17.649 21.4129 17.8577 21.1947 17.8802 21.1698L17.931 21.1129L17.9269 21.0368C17.9174 20.8589 17.9057 20.6725 17.8934 20.4806C17.8173 19.2684 17.7221 17.7608 18.0934 16.9279C19.2173 14.4081 21.5995 14.2138 22.3027 14.2138C22.32 14.2138 22.6257 14.2107 22.6257 14.2107C22.6383 14.2106 22.6522 14.2104 22.6667 14.2104ZM22.6667 13.7758H22.6659C22.6499 13.7758 22.6348 13.7758 22.6205 13.7759C22.5062 13.7771 22.3184 13.7789 22.3015 13.7791C21.8895 13.7791 21.0653 13.8373 20.1799 14.2281C19.6737 14.4514 19.2183 14.7533 18.8266 15.1255C18.3595 15.569 17.979 16.1158 17.6958 16.7509C17.2811 17.6808 17.3796 19.2471 17.4586 20.5059L17.4589 20.5078C17.4674 20.6426 17.4763 20.7834 17.4844 20.9206C17.4236 20.9485 17.3249 20.978 17.1795 20.978C16.9456 20.978 16.6674 20.9032 16.353 20.7558C16.2604 20.7127 16.1548 20.691 16.0383 20.691C15.8511 20.691 15.6537 20.7461 15.4825 20.8467C15.2671 20.9732 15.1279 21.152 15.0901 21.3502C15.0652 21.4813 15.0664 21.7404 15.3542 22.0032C15.5125 22.1478 15.7451 22.2812 16.0453 22.3999C16.1241 22.4309 16.2176 22.4605 16.3166 22.4919C16.6602 22.6012 17.1803 22.7662 17.3159 23.0854C17.3846 23.2472 17.3551 23.4601 17.2283 23.7175C17.2249 23.7246 17.2216 23.7314 17.2186 23.7386C17.1869 23.8127 16.8912 24.4824 16.2847 25.1887C15.9401 25.5904 15.5605 25.9261 15.1571 26.1868C14.6647 26.505 14.1319 26.713 13.5737 26.805C13.3545 26.841 13.198 27.0363 13.2102 27.2582C13.214 27.3222 13.229 27.3859 13.255 27.4477C13.2552 27.448 13.2554 27.4484 13.2556 27.4488C13.3442 27.6561 13.5497 27.8322 13.8838 27.9875C14.2921 28.1772 14.9027 28.3367 15.6985 28.4615C15.7387 28.538 15.7804 28.7301 15.8093 28.8617C15.8396 29.0016 15.8711 29.1454 15.9161 29.2981C15.9646 29.4636 16.0905 29.6614 16.4138 29.6614C16.5363 29.6614 16.6773 29.6338 16.8404 29.6021C17.0794 29.5552 17.4062 29.4913 17.8141 29.4913C18.0402 29.4913 18.2746 29.5112 18.5105 29.5504C18.9652 29.6261 19.3572 29.903 19.8107 30.2237C20.4746 30.6929 21.2261 31.2241 22.3742 31.2241C22.4055 31.2241 22.4369 31.2231 22.4679 31.221C22.5059 31.2227 22.5529 31.2241 22.6025 31.2241C23.751 31.2241 24.5022 30.6928 25.1654 30.2239L25.1664 30.2229C25.6201 29.9026 26.0117 29.6261 26.4662 29.5504C26.702 29.5112 26.9363 29.4913 27.1626 29.4913C27.5522 29.4913 27.8607 29.5409 28.1362 29.5947C28.316 29.6301 28.4557 29.6471 28.5629 29.6471L28.5734 29.6473H28.5842C28.8207 29.6473 28.9945 29.5175 29.0608 29.2903C29.1048 29.1408 29.1363 29.0004 29.1673 28.8582C29.1943 28.7349 29.2375 28.5372 29.2777 28.4599C30.0741 28.3349 30.6844 28.1757 31.0927 27.9861C31.426 27.8315 31.6313 27.6556 31.7205 27.4491C31.7472 27.3872 31.7628 27.323 31.7663 27.2577C31.7789 27.0362 31.6221 26.8405 31.4028 26.8045C28.9219 26.3956 27.8043 23.8465 27.7581 23.7382C27.7551 23.7311 27.7517 23.724 27.7482 23.7171C27.6214 23.4597 27.5921 23.2469 27.6609 23.0848C27.7962 22.7659 28.3159 22.6009 28.6598 22.4917C28.7593 22.4604 28.8532 22.4306 28.9313 22.3997C29.2699 22.266 29.5118 22.121 29.6714 21.9562C29.8621 21.7599 29.8992 21.5717 29.8969 21.4486C29.8911 21.1507 29.6633 20.886 29.3011 20.7564C29.1788 20.7058 29.0392 20.6791 28.8972 20.6791C28.8005 20.6791 28.6572 20.6924 28.5217 20.7557C28.2314 20.8915 27.9714 20.9658 27.7482 20.9763C27.6296 20.9703 27.5463 20.9446 27.4924 20.92C27.4992 20.8038 27.5067 20.6845 27.5144 20.56L27.5176 20.5067C27.5971 19.2472 27.6959 17.6796 27.281 16.749C26.9967 16.1117 26.6148 15.5635 26.1458 15.1191C25.7525 14.7467 25.2957 14.4448 24.7876 14.2216C23.9035 13.8337 23.0793 13.7758 22.6667 13.7758Z" fill="#020202"/>
</svg>
