<svg width="45" height="45" viewBox="0 0 45 45" fill="none" xmlns="http://www.w3.org/2000/svg">
<path d="M44 22.5C44 34.3741 34.3741 44 22.5 44C10.6259 44 1 34.3741 1 22.5C1 10.6259 10.6259 1 22.5 1C34.3741 1 44 10.6259 44 22.5Z" fill="white" stroke="#F1F1F1" stroke-width="2"/>
<path d="M11.8644 22.0356C11.8644 21.7675 12.0844 21.6644 12.4488 21.6644C12.9712 21.6644 13.6313 21.8225 14.1537 22.1044V20.4887C13.5831 20.2619 13.0194 20.1725 12.4488 20.1725C11.0531 20.1725 10.125 20.9012 10.125 22.1181C10.125 24.0156 12.7375 23.7131 12.7375 24.5312C12.7375 24.8475 12.4625 24.9506 12.0775 24.9506C11.5069 24.9506 10.7781 24.7169 10.2006 24.4006V26.0369C10.84 26.3119 11.4862 26.4288 12.0775 26.4288C13.5075 26.4288 14.4906 25.7206 14.4906 24.49C14.4837 22.4413 11.8644 22.8056 11.8644 22.0356ZM16.5119 18.7975L14.8344 19.155L14.8275 24.6619C14.8275 25.6794 15.5906 26.4288 16.6081 26.4288C17.1719 26.4288 17.5844 26.3256 17.8112 26.2019V24.8063C17.5912 24.8956 16.505 25.2119 16.505 24.1944V21.7538H17.8112V20.2894H16.505L16.5119 18.7975ZM19.9494 20.7981L19.8394 20.2894H18.3544V26.305H20.0731V22.2281C20.4788 21.6988 21.1663 21.795 21.3794 21.8706V20.2894C21.1594 20.2069 20.355 20.0556 19.9494 20.7981ZM21.7987 20.2894H23.5244V26.305H21.7987V20.2894ZM21.7987 19.7669L23.5244 19.3956V18L21.7987 18.3644V19.7669ZM27.1131 20.1725C26.4394 20.1725 26.0062 20.4887 25.7656 20.7088L25.6762 20.2825H24.1638V28.2987L25.8825 27.9344L25.8894 25.9887C26.1369 26.1675 26.5012 26.4219 27.1062 26.4219C28.3369 26.4219 29.4575 25.4319 29.4575 23.2525C29.4506 21.2587 28.3162 20.1725 27.1131 20.1725ZM26.7006 24.9094C26.295 24.9094 26.0544 24.765 25.8894 24.5862L25.8825 22.0356C26.0612 21.8363 26.3088 21.6988 26.7006 21.6988C27.3263 21.6988 27.7594 22.4 27.7594 23.3006C27.7594 24.2219 27.3331 24.9094 26.7006 24.9094ZM34.875 23.3212C34.875 21.5612 34.0225 20.1725 32.3931 20.1725C30.7569 20.1725 29.7669 21.5612 29.7669 23.3075C29.7669 25.3769 30.9356 26.4219 32.6131 26.4219C33.4312 26.4219 34.05 26.2362 34.5175 25.975V24.6C34.05 24.8338 33.5138 24.9781 32.8331 24.9781C32.1663 24.9781 31.575 24.7444 31.4994 23.9331H34.8612C34.8612 23.8438 34.875 23.4862 34.875 23.3212ZM31.4788 22.6681C31.4788 21.8912 31.9531 21.5681 32.3862 21.5681C32.8056 21.5681 33.2525 21.8912 33.2525 22.6681H31.4788Z" fill="#6772E5"/>
</svg>
