<svg width="45" height="45" viewBox="0 0 45 45" fill="none" xmlns="http://www.w3.org/2000/svg">
<path d="M44 22.5C44 34.3741 34.3741 44 22.5 44C10.6259 44 1 34.3741 1 22.5C1 10.6259 10.6259 1 22.5 1C34.3741 1 44 10.6259 44 22.5Z" fill="white" stroke="#F1F1F1" stroke-width="2"/>
<path d="M28.4678 19.0957C30.2736 20.3859 32.4859 21.145 34.8752 21.145V16.5496C34.423 16.5497 33.972 16.5026 33.5296 16.4089V20.0262C31.1405 20.0262 28.9285 19.267 27.1222 17.9769V27.3548C27.1222 32.0461 23.3172 35.8488 18.6238 35.8488C16.8726 35.8488 15.2449 35.3197 13.8928 34.4122C15.436 35.9893 17.5882 36.9676 19.9692 36.9676C24.6628 36.9676 28.468 33.1649 28.468 28.4734V19.0957H28.4678ZM30.1278 14.4595C29.2049 13.4518 28.5989 12.1495 28.4678 10.7097V10.1187H27.1927C27.5136 11.9486 28.6084 13.512 30.1278 14.4595ZM16.8614 30.8122C16.3458 30.1365 16.0671 29.3099 16.0684 28.4599C16.0684 26.3143 17.8088 24.5746 19.9559 24.5746C20.3561 24.5745 20.7538 24.6358 21.1352 24.7567V20.0586C20.6895 19.9976 20.2397 19.9716 19.7901 19.9811V23.6379C19.4085 23.517 19.0106 23.4556 18.6103 23.4559C16.4632 23.4559 14.7229 25.1954 14.7229 27.3413C14.7229 28.8587 15.5928 30.1723 16.8614 30.8122Z" fill="#FF004F"/>
<path d="M27.122 17.9768C28.9283 19.2669 31.1403 20.0261 33.5294 20.0261V16.4088C32.1958 16.1249 31.0152 15.4284 30.1275 14.4595C28.6081 13.5119 27.5134 11.9485 27.1925 10.1187H23.843V28.4732C23.8354 30.6129 22.098 32.3455 19.9555 32.3455C18.6929 32.3455 17.5713 31.744 16.8609 30.8122C15.5924 30.1723 14.7225 28.8586 14.7225 27.3414C14.7225 25.1957 16.4628 23.456 18.6099 23.456C19.0213 23.456 19.4178 23.5201 19.7897 23.638V19.9812C15.1788 20.0765 11.4705 23.8421 11.4705 28.4733C11.4705 30.7851 12.3939 32.8809 13.8927 34.4123C15.2448 35.3197 16.8725 35.8489 18.6237 35.8489C23.3172 35.8489 27.1221 32.046 27.1221 27.3548V17.9768H27.122Z" fill="black"/>
<path d="M33.5294 16.4089V15.4308C32.3268 15.4326 31.1479 15.096 30.1276 14.4594C31.0308 15.4478 32.2201 16.1293 33.5294 16.4089ZM27.1925 10.1187C27.1619 9.94381 27.1384 9.76777 27.122 9.59107V9H22.4974V27.3547C22.49 29.4942 20.7527 31.2268 18.6099 31.2268C17.9809 31.2268 17.3869 31.0775 16.8609 30.8123C17.5713 31.744 18.693 32.3455 19.9555 32.3455C22.0979 32.3455 23.8356 30.6131 23.8431 28.4733V10.1187H27.1925ZM19.79 19.9813V18.94C19.4035 18.8873 19.0139 18.8608 18.6239 18.861C13.93 18.8609 10.125 22.6638 10.125 27.3547C10.125 30.2957 11.6204 32.8875 13.8928 34.4121C12.394 32.8809 11.4706 30.785 11.4706 28.4732C11.4706 23.8421 15.1788 20.0765 19.79 19.9813Z" fill="#00F2EA"/>
</svg>
