<svg width="45" height="45" viewBox="0 0 45 45" fill="none" xmlns="http://www.w3.org/2000/svg">
<path d="M44 22.5C44 34.3741 34.3741 44 22.5 44C10.6259 44 1 34.3741 1 22.5C1 10.6259 10.6259 1 22.5 1C34.3741 1 44 10.6259 44 22.5Z" fill="white" stroke="#F1F1F1" stroke-width="2"/>
<path d="M24.5379 20.6049L33.5535 10.125H31.4171L23.5888 19.2246L17.3364 10.125H10.125L19.5799 23.8852L10.125 34.875H12.2615L20.5284 25.2655L27.1314 34.875H34.3428L24.5374 20.6049H24.5379ZM21.6116 24.0064L20.6536 22.6362L13.0314 11.7334H16.313L22.4642 20.5323L23.4222 21.9025L31.4181 33.3398H28.1365L21.6116 24.0069V24.0064Z" fill="black"/>
</svg>
