<svg width="45" height="45" viewBox="0 0 45 45" fill="none" xmlns="http://www.w3.org/2000/svg">
<path d="M44 22.5C44 34.3741 34.3741 44 22.5 44C10.6259 44 1 34.3741 1 22.5C1 10.6259 10.6259 1 22.5 1C34.3741 1 44 10.6259 44 22.5Z" fill="white" stroke="#F1F1F1" stroke-width="2"/>
<path fill-rule="evenodd" clip-rule="evenodd" d="M32.568 16.875H12.422C11.1471 16.875 10.115 17.9172 10.1251 19.182V26.8721C10.1251 28.147 11.1572 29.1791 12.4322 29.1791H21.9739L26.335 31.6075L25.3434 29.1791H32.568C33.843 29.1791 34.875 28.147 34.875 26.8721V19.182C34.875 17.9071 33.843 16.875 32.568 16.875ZM11.9971 18.6559C11.7138 18.6761 11.5013 18.7773 11.3596 18.9695C11.218 19.1517 11.1674 19.3844 11.1978 19.6475C11.7947 23.4419 12.3513 26.0019 12.8673 27.3274C13.0697 27.8131 13.3024 28.0459 13.5756 28.0256C14.0006 27.9952 14.5065 27.4084 15.1035 26.265C15.4172 25.6174 15.9029 24.646 16.5606 23.3508C17.1069 25.2632 17.8557 26.7001 18.7968 27.6613C19.0599 27.9345 19.3331 28.056 19.5961 28.0357C19.8289 28.0155 20.0109 27.894 20.1324 27.6714C20.2336 27.4792 20.274 27.2566 20.2538 27.0036C20.1931 26.0828 20.2842 24.7978 20.5372 23.1485C20.8002 21.4486 21.124 20.2242 21.5186 19.4957C21.5996 19.3439 21.6299 19.1921 21.6198 19.01C21.5996 18.7773 21.4984 18.585 21.3062 18.4332C21.1139 18.2815 20.9014 18.2106 20.6687 18.2309C20.3752 18.2511 20.1526 18.3928 20.0009 18.6761C19.3735 19.8195 18.9283 21.6712 18.6652 24.2413C18.2807 23.2699 17.9569 22.1265 17.7039 20.7807C17.5927 20.1838 17.3195 19.9004 16.8742 19.9308C16.5707 19.951 16.3177 20.1534 16.1153 20.5379L13.8994 24.7573C13.5351 23.2901 13.1911 21.4992 12.8774 19.3844C12.8066 18.8582 12.5132 18.6154 11.9971 18.6559ZM31.4955 19.3844C32.2139 19.5362 32.7502 19.9207 33.1144 20.5582C33.4383 21.1046 33.6001 21.7623 33.6001 22.5515C33.6001 23.5937 33.3371 24.5448 32.8109 25.415C32.2038 26.4269 31.4145 26.9328 30.433 26.9328C30.2611 26.9328 30.0789 26.9126 29.8866 26.8721C29.1682 26.7203 28.6319 26.3359 28.2676 25.6984C27.9439 25.1419 27.782 24.474 27.782 23.6949C27.782 22.6527 28.0451 21.7016 28.5712 20.8415C29.1885 19.8296 29.9777 19.3237 30.9491 19.3237C31.1211 19.3237 31.3032 19.3439 31.4955 19.3844ZM31.0705 24.8585C31.4449 24.5246 31.6979 24.0288 31.8395 23.361C31.88 23.1283 31.9103 22.8753 31.9103 22.6122C31.9103 22.3188 31.8496 22.0051 31.7282 21.6914C31.5764 21.2968 31.374 21.0843 31.1312 21.0337C30.767 20.9629 30.4128 21.1653 30.0789 21.6611C29.8057 22.0456 29.6337 22.4503 29.5426 22.8652C29.492 23.0979 29.4717 23.3509 29.4717 23.6038C29.4717 23.8973 29.5325 24.2109 29.6539 24.5246C29.8057 24.9192 30.008 25.1317 30.2509 25.1823C30.5039 25.2329 30.777 25.1216 31.0705 24.8585ZM26.7701 20.5582C26.4058 19.9207 25.8594 19.5362 25.1512 19.3844C24.9589 19.3439 24.7768 19.3237 24.6047 19.3237C23.6334 19.3237 22.8442 19.8296 22.2269 20.8415C21.7007 21.7016 21.4377 22.6527 21.4377 23.6949C21.4377 24.474 21.5996 25.1419 21.9233 25.6984C22.2876 26.3359 22.8239 26.7203 23.5423 26.8721C23.7345 26.9126 23.9167 26.9328 24.0887 26.9328C25.0702 26.9328 25.8594 26.4269 26.4665 25.415C26.9927 24.5448 27.2558 23.5937 27.2558 22.5515C27.2558 21.7623 27.0939 21.1046 26.7701 20.5582ZM25.4952 23.361C25.3535 24.0288 25.1005 24.5246 24.7262 24.8585C24.4327 25.1216 24.1595 25.2329 23.9066 25.1823C23.6637 25.1317 23.4613 24.9192 23.3096 24.5246C23.1881 24.2109 23.1274 23.8973 23.1274 23.6038C23.1274 23.3509 23.1477 23.0979 23.1983 22.8652C23.2893 22.4503 23.4613 22.0456 23.7345 21.6611C24.0685 21.1653 24.4226 20.9629 24.7869 21.0337C25.0297 21.0843 25.2321 21.2968 25.3839 21.6914C25.5053 22.0051 25.566 22.3188 25.566 22.6122C25.566 22.8753 25.5458 23.1283 25.4952 23.361Z" fill="#7F54B3"/>
</svg>
