<svg width="45" height="45" viewBox="0 0 45 45" fill="none" xmlns="http://www.w3.org/2000/svg">
<path d="M44 22.5C44 34.3741 34.3741 44 22.5 44C10.6259 44 1 34.3741 1 22.5C1 10.6259 10.6259 1 22.5 1C34.3741 1 44 10.6259 44 22.5Z" fill="white" stroke="#F1F1F1" stroke-width="2"/>
<path d="M22.487 30.569C22.487 30.569 30.2403 30.569 32.1635 30.0569C33.2464 29.7667 34.0607 28.9303 34.3465 27.8977C34.875 26.003 34.875 22.0174 34.875 22.0174C34.875 22.0174 34.875 18.0574 34.3465 16.1798C34.0607 15.1216 33.2464 14.3022 32.1635 14.0206C30.2403 13.5 22.487 13.5 22.487 13.5C22.487 13.5 14.751 13.5 12.8365 14.0206C11.771 14.3022 10.9393 15.1216 10.6361 16.1798C10.125 18.0574 10.125 22.0174 10.125 22.0174C10.125 22.0174 10.125 26.003 10.6361 27.8977C10.9393 28.9303 11.771 29.7667 12.8365 30.0569C14.751 30.569 22.487 30.569 22.487 30.569Z" fill="#FF0033"/>
<path d="M26.3405 22.0345L19.9396 18.4073V25.6617L26.3405 22.0345Z" fill="white"/>
</svg>
