<?xml version="1.0" encoding="UTF-8"?>
<svg version="1.1" xmlns="http://www.w3.org/2000/svg" width="3000" height="3000">
<path d="M0 0 C4.9550899 3.47356807 9.18530989 7.80373958 10.6875 13.8125 C11.98699319 25.16807127 6.32888315 33.7223786 1.1875 43.5 C0.66051514 44.50619385 0.13353027 45.5123877 -0.40942383 46.54907227 C-4.34903858 54.04447794 -8.38339872 61.48486082 -12.45898438 68.90698242 C-16.98620863 77.16887611 -21.4032337 85.48731272 -25.8125 93.8125 C-31.10070722 103.79490858 -36.42958874 113.75112326 -41.85986328 123.65722656 C-45.84588888 130.93582036 -49.77374181 138.24483521 -53.6875 145.5625 C-54.00398499 146.15421997 -54.32046997 146.74593994 -54.64654541 147.35559082 C-54.96315125 147.94755249 -55.27975708 148.53951416 -55.60595703 149.14941406 C-56.24510506 150.34440753 -56.8842652 151.53939451 -57.5234375 152.734375 C-57.9982103 153.62204559 -57.9982103 153.62204559 -58.48257446 154.52764893 C-61.74718195 160.62908847 -65.02905846 166.72118187 -68.3125 172.8125 C-73.15914445 181.80539885 -77.99120843 190.80598509 -82.8125 199.8125 C-89.38179001 212.08372961 -95.9752871 224.34178449 -102.57861328 236.59472656 C-105.49120264 241.99995436 -108.40176645 247.40627268 -111.3125 252.8125 C-114.79979306 259.28959543 -118.28747164 265.76648122 -121.77734375 272.2421875 C-127.8029666 283.42487496 -133.81712839 294.61356183 -139.8125 305.8125 C-146.38189483 318.08367371 -152.97528692 330.34178416 -159.57861328 342.59472656 C-162.49120264 347.99995436 -165.40176645 353.40627268 -168.3125 358.8125 C-171.79979306 365.28959543 -175.28747164 371.76648122 -178.77734375 378.2421875 C-184.8029666 389.42487496 -190.81712839 400.61356183 -196.8125 411.8125 C-203.38189483 424.08367371 -209.97528692 436.34178416 -216.57861328 448.59472656 C-219.49120264 453.99995436 -222.40176645 459.40627268 -225.3125 464.8125 C-228.79979306 471.28959543 -232.28747164 477.76648122 -235.77734375 484.2421875 C-241.8029666 495.42487496 -247.81712839 506.61356183 -253.8125 517.8125 C-260.38035032 530.08078867 -266.97233265 542.33593665 -273.57421875 554.5859375 C-275.3318246 557.84836993 -277.08800646 561.11156499 -278.84375 564.375 C-286.64166915 578.86775473 -294.46583686 593.34607782 -302.3125 607.8125 C-299.54264996 608.58556234 -297.01652914 608.96073205 -294.14473182 609.04455233 C-292.90023392 609.08409107 -292.90023392 609.08409107 -291.63059464 609.12442857 C-290.72254156 609.14878958 -289.81448849 609.17315059 -288.87891865 609.19824982 C-287.90760157 609.22780642 -286.93628449 609.25736302 -285.93553355 609.28781527 C-282.65531873 609.38654303 -279.37495548 609.47894057 -276.09455872 609.57141113 C-273.72890282 609.64130574 -271.36325837 609.71158828 -268.99762458 609.78222704 C-263.84066445 609.93532499 -258.68363157 610.08567282 -253.52652168 610.23362923 C-245.85671689 610.45369096 -238.18706612 610.67880071 -230.51743927 610.9049689 C-217.61028107 611.28544723 -204.7030071 611.66185272 -191.79566383 612.03599548 C-178.99619139 612.40703271 -166.19677779 612.78000979 -153.39743614 613.15553284 C-152.60141713 613.17888687 -151.80539811 613.2022409 -150.98525731 613.22630263 C-146.94215583 613.34493323 -142.89905546 613.46360132 -138.85595556 613.5822857 C-110.1917488 614.42366859 -81.52742966 615.26116354 -52.86303711 616.09619141 C-25.07523673 616.90569979 2.71253196 617.71627784 30.50024414 618.52880859 C31.35471171 618.55379295 32.20917929 618.57877732 33.08953982 618.60451878 C52.62226092 619.17565716 72.15496967 619.74721712 91.68766499 620.31923676 C93.34804619 620.36786015 95.0084274 620.41648355 96.66880861 620.46510693 C103.2427559 620.65762448 109.81670318 620.85014233 116.39064888 621.0427143 C135.60474478 621.60554754 154.8188757 622.16715248 174.03307167 622.72655952 C186.104734 623.07803319 198.17637067 623.43037879 210.24798789 623.78339827 C217.20383224 623.98677819 224.15968906 624.18970776 231.11558342 624.39137077 C237.5001084 624.57650507 243.88459537 624.76289971 250.26905612 624.95023578 C252.56275747 625.01731881 254.85647196 625.08395449 257.15020158 625.15006357 C263.29840768 625.32739081 269.44602221 625.51714765 275.59349225 625.71832788 C278.89694198 625.81887477 282.2005793 625.89776426 285.50461447 625.97657108 C287.75068719 626.04133703 289.99674537 626.10660935 292.24278736 626.17243195 C293.7871724 626.20185539 293.7871724 626.20185539 295.36275713 626.23187324 C305.54870623 626.56197291 312.62969413 629.28308959 319.6875 636.8125 C323.6380667 642.41975596 324.33259114 649.54391819 323.3203125 656.2421875 C319.93019126 668.33780525 307.85208325 676.07674052 298.6875 683.8125 C297.56361643 684.76540608 296.43990848 685.71851934 295.31640625 686.671875 C293.18993384 688.47425505 291.0605863 690.27316893 288.9296875 692.0703125 C283.74480314 696.44830908 278.60198309 700.87558118 273.45361328 705.29638672 C270.53307725 707.80350985 267.61017689 710.30787328 264.6875 712.8125 C263.52082184 713.81248659 262.35415518 714.8124866 261.1875 715.8125 C203.4375 765.3125 145.6875 814.8125 16.1875 925.8125 C15.6097583 926.3077417 15.0320166 926.8029834 14.43676758 927.31323242 C13.27268023 928.31095195 12.10845544 929.30851114 10.9440918 930.3059082 C7.98680113 932.83948743 5.03211631 935.37600137 2.08203125 937.91796875 C-3.25085322 942.50856553 -8.59435945 947.07011398 -14.0625 951.5 C-18.43757747 955.04995321 -22.61799192 958.76813821 -26.78125 962.5625 C-30.29049486 965.68182876 -33.94412123 968.60999133 -37.59375 971.5625 C-40.23397729 973.74751569 -42.7797972 976.00421391 -45.3125 978.3125 C-49.61241791 982.23141252 -54.07169547 985.90420869 -58.59375 989.5625 C-61.23397729 991.74751569 -63.7797972 994.00421391 -66.3125 996.3125 C-70.61241791 1000.23141252 -75.07169547 1003.90420869 -79.59375 1007.5625 C-82.23397729 1009.74751569 -84.7797972 1012.00421391 -87.3125 1014.3125 C-91.61241791 1018.23141252 -96.07169547 1021.90420869 -100.59375 1025.5625 C-103.23397729 1027.74751569 -105.7797972 1030.00421391 -108.3125 1032.3125 C-112.61241791 1036.23141252 -117.07169547 1039.90420869 -121.59375 1043.5625 C-124.23397729 1045.74751569 -126.7797972 1048.00421391 -129.3125 1050.3125 C-133.61241791 1054.23141252 -138.07169547 1057.90420869 -142.59375 1061.5625 C-145.23397729 1063.74751569 -147.7797972 1066.00421391 -150.3125 1068.3125 C-154.61241791 1072.23141252 -159.07169547 1075.90420869 -163.59375 1079.5625 C-166.23397729 1081.74751569 -168.7797972 1084.00421391 -171.3125 1086.3125 C-175.61241791 1090.23141252 -180.07169547 1093.90420869 -184.59375 1097.5625 C-187.23397729 1099.74751569 -189.7797972 1102.00421391 -192.3125 1104.3125 C-196.61241791 1108.23141252 -201.07169547 1111.90420869 -205.59375 1115.5625 C-208.23397729 1117.74751569 -210.7797972 1120.00421391 -213.3125 1122.3125 C-217.61241791 1126.23141252 -222.07169547 1129.90420869 -226.59375 1133.5625 C-229.23397729 1135.74751569 -231.7797972 1138.00421391 -234.3125 1140.3125 C-238.61241791 1144.23141252 -243.07169547 1147.90420869 -247.59375 1151.5625 C-250.23397729 1153.74751569 -252.7797972 1156.00421391 -255.3125 1158.3125 C-259.61241791 1162.23141252 -264.07169547 1165.90420869 -268.59375 1169.5625 C-271.23397729 1171.74751569 -273.7797972 1174.00421391 -276.3125 1176.3125 C-280.61241791 1180.23141252 -285.07169547 1183.90420869 -289.59375 1187.5625 C-292.23397729 1189.74751569 -294.7797972 1192.00421391 -297.3125 1194.3125 C-300.63239486 1197.33532421 -304.01014112 1200.23762161 -307.5 1203.0625 C-313.93961993 1208.27768515 -320.16705403 1213.72581752 -326.41601562 1219.16601562 C-329.39105189 1221.74887409 -332.3819406 1224.31306914 -335.375 1226.875 C-335.94839111 1227.36589111 -336.52178223 1227.85678223 -337.11254883 1228.36254883 C-338.26780518 1229.35135203 -339.42315976 1230.34004049 -340.57861328 1231.32861328 C-343.49144046 1233.82145524 -346.40184061 1236.31712766 -349.3125 1238.8125 C-350.47915518 1239.8125134 -351.64582184 1240.81251341 -352.8125 1241.8125 C-353.39 1242.3075 -353.9675 1242.8025 -354.5625 1243.3125 C-412.3125 1292.8125 -470.0625 1342.3125 -583.8125 1439.8125 C-584.3902417 1440.3077417 -584.9679834 1440.8029834 -585.56323242 1441.31323242 C-586.72731977 1442.31095195 -587.89154456 1443.30851114 -589.0559082 1444.3059082 C-592.01319887 1446.83948743 -594.96788369 1449.37600137 -597.91796875 1451.91796875 C-603.25085322 1456.50856553 -608.59435945 1461.07011398 -614.0625 1465.5 C-618.43757747 1469.04995321 -622.61799192 1472.76813821 -626.78125 1476.5625 C-630.29049486 1479.68182876 -633.94412123 1482.60999133 -637.59375 1485.5625 C-640.23397729 1487.74751569 -642.7797972 1490.00421391 -645.3125 1492.3125 C-649.61241791 1496.23141252 -654.07169547 1499.90420869 -658.59375 1503.5625 C-661.23397729 1505.74751569 -663.7797972 1508.00421391 -666.3125 1510.3125 C-670.61241791 1514.23141252 -675.07169547 1517.90420869 -679.59375 1521.5625 C-682.23397729 1523.74751569 -684.7797972 1526.00421391 -687.3125 1528.3125 C-691.61241791 1532.23141252 -696.07169547 1535.90420869 -700.59375 1539.5625 C-703.23397729 1541.74751569 -705.7797972 1544.00421391 -708.3125 1546.3125 C-712.61241791 1550.23141252 -717.07169547 1553.90420869 -721.59375 1557.5625 C-724.23397729 1559.74751569 -726.7797972 1562.00421391 -729.3125 1564.3125 C-733.61241791 1568.23141252 -738.07169547 1571.90420869 -742.59375 1575.5625 C-745.23397729 1577.74751569 -747.7797972 1580.00421391 -750.3125 1582.3125 C-754.61241791 1586.23141252 -759.07169547 1589.90420869 -763.59375 1593.5625 C-766.23397729 1595.74751569 -768.7797972 1598.00421391 -771.3125 1600.3125 C-775.61241791 1604.23141252 -780.07169547 1607.90420869 -784.59375 1611.5625 C-787.23397729 1613.74751569 -789.7797972 1616.00421391 -792.3125 1618.3125 C-796.61241791 1622.23141252 -801.07169547 1625.90420869 -805.59375 1629.5625 C-808.23397729 1631.74751569 -810.7797972 1634.00421391 -813.3125 1636.3125 C-817.61241791 1640.23141252 -822.07169547 1643.90420869 -826.59375 1647.5625 C-829.23397729 1649.74751569 -831.7797972 1652.00421391 -834.3125 1654.3125 C-838.61241791 1658.23141252 -843.07169547 1661.90420869 -847.59375 1665.5625 C-850.23397729 1667.74751569 -852.7797972 1670.00421391 -855.3125 1672.3125 C-859.61241791 1676.23141252 -864.07169547 1679.90420869 -868.59375 1683.5625 C-871.23397729 1685.74751569 -873.7797972 1688.00421391 -876.3125 1690.3125 C-880.61241791 1694.23141252 -885.07169547 1697.90420869 -889.59375 1701.5625 C-892.23397729 1703.74751569 -894.7797972 1706.00421391 -897.3125 1708.3125 C-900.63239486 1711.33532421 -904.01014112 1714.23762161 -907.5 1717.0625 C-913.93961993 1722.27768515 -920.16705403 1727.72581752 -926.41601562 1733.16601562 C-929.39105189 1735.74887409 -932.3819406 1738.31306914 -935.375 1740.875 C-935.94839111 1741.36589111 -936.52178223 1741.85678223 -937.11254883 1742.36254883 C-938.26780518 1743.35135203 -939.42315976 1744.34004049 -940.57861328 1745.32861328 C-943.49144046 1747.82145524 -946.40184061 1750.31712766 -949.3125 1752.8125 C-950.47915518 1753.8125134 -951.64582184 1754.81251341 -952.8125 1755.8125 C-953.39 1756.3075 -953.9675 1756.8025 -954.5625 1757.3125 C-956.3125 1758.8125 -958.0625 1760.3125 -959.8125 1761.8125 C-960.39008057 1762.30758057 -960.96766113 1762.80266113 -961.56274414 1763.31274414 C-962.72855104 1764.31198396 -963.89440386 1765.31117023 -965.06030273 1766.31030273 C-968.57991765 1769.32662402 -972.0981426 1772.34454957 -975.61401367 1775.36523438 C-976.78291333 1776.36737988 -977.95363694 1777.36740205 -979.1262207 1778.36523438 C-982.01967289 1780.82899004 -984.88171367 1783.31631989 -987.6953125 1785.87109375 C-988.25081787 1786.36536865 -988.80632324 1786.85964355 -989.37866211 1787.36889648 C-990.89044231 1788.71495224 -992.3891228 1790.07568068 -993.88671875 1791.4375 C-1003.87279564 1799.04862404 -1018.95912805 1800.44472986 -1030.91015625 1803.14453125 C-1033.16058612 1803.65837896 -1035.41087301 1804.17285317 -1037.661026 1804.68791199 C-1043.65992792 1806.0591969 -1049.66076079 1807.42183782 -1055.66208649 1808.7824707 C-1061.85824116 1810.18849371 -1068.05281827 1811.60143302 -1074.24755859 1813.01367188 C-1081.6578531 1814.70244946 -1089.06838904 1816.39014606 -1096.4798584 1818.07376099 C-1109.78879148 1821.09708254 -1123.09419422 1824.13473794 -1136.39285851 1827.2029171 C-1140.99024397 1828.26294432 -1145.58852916 1829.31906072 -1150.18686008 1830.37497807 C-1153.62413238 1831.16455732 -1157.06086131 1831.95634295 -1160.49636841 1832.75357056 C-1164.20672813 1833.61440797 -1167.91961552 1834.46397992 -1171.6328125 1835.3125 C-1172.67365494 1835.55606735 -1173.71449738 1835.7996347 -1174.78688049 1836.05058289 C-1184.76882592 1838.31301389 -1194.75673219 1840.55955885 -1204.3125 1835.8125 C-1211.75346426 1830.71146161 -1216.41482121 1824.65076327 -1218.3125 1815.8125 C-1219.29380433 1803.30086975 -1212.12419998 1794.54205363 -1205.3125 1784.8125 C-1204.03579498 1782.9731165 -1202.75979447 1781.13324388 -1201.484375 1779.29296875 C-1198.7259273 1775.31749061 -1195.9609991 1771.34662712 -1193.19140625 1767.37890625 C-1190.04568086 1762.86990639 -1186.91999338 1758.34790533 -1183.8125 1753.8125 C-1178.6507272 1746.28248887 -1173.43253958 1738.7921099 -1168.21484375 1731.30078125 C-1164.39678476 1725.8163967 -1160.59097717 1720.32422358 -1156.8125 1714.8125 C-1151.65051536 1707.2826325 -1146.43254103 1699.79211198 -1141.21484375 1692.30078125 C-1137.39678476 1686.8163967 -1133.59097717 1681.32422358 -1129.8125 1675.8125 C-1124.65051536 1668.2826325 -1119.43254103 1660.79211198 -1114.21484375 1653.30078125 C-1110.39678476 1647.8163967 -1106.59097717 1642.32422358 -1102.8125 1636.8125 C-1097.65051536 1629.2826325 -1092.43254103 1621.79211198 -1087.21484375 1614.30078125 C-1083.39678476 1608.8163967 -1079.59097717 1603.32422358 -1075.8125 1597.8125 C-1070.65051536 1590.2826325 -1065.43254103 1582.79211198 -1060.21484375 1575.30078125 C-1056.39678476 1569.8163967 -1052.59097717 1564.32422358 -1048.8125 1558.8125 C-1043.65051536 1551.2826325 -1038.43254103 1543.79211198 -1033.21484375 1536.30078125 C-1029.39678476 1530.8163967 -1025.59097717 1525.32422358 -1021.8125 1519.8125 C-1016.65051536 1512.2826325 -1011.43254103 1504.79211198 -1006.21484375 1497.30078125 C-1002.39678476 1491.8163967 -998.59097717 1486.32422358 -994.8125 1480.8125 C-989.65051536 1473.2826325 -984.43254103 1465.79211198 -979.21484375 1458.30078125 C-975.39678476 1452.8163967 -971.59097717 1447.32422358 -967.8125 1441.8125 C-962.65051536 1434.2826325 -957.43254103 1426.79211198 -952.21484375 1419.30078125 C-948.39678476 1413.8163967 -944.59097717 1408.32422358 -940.8125 1402.8125 C-935.65051536 1395.2826325 -930.43254103 1387.79211198 -925.21484375 1380.30078125 C-921.39678476 1374.8163967 -917.59097717 1369.32422358 -913.8125 1363.8125 C-908.65051536 1356.2826325 -903.43254103 1348.79211198 -898.21484375 1341.30078125 C-894.39678476 1335.8163967 -890.59097717 1330.32422358 -886.8125 1324.8125 C-881.65051536 1317.2826325 -876.43254103 1309.79211198 -871.21484375 1302.30078125 C-867.39678476 1296.8163967 -863.59097717 1291.32422358 -859.8125 1285.8125 C-854.65051536 1278.2826325 -849.43254103 1270.79211198 -844.21484375 1263.30078125 C-840.39678476 1257.8163967 -836.59097717 1252.32422358 -832.8125 1246.8125 C-827.65051536 1239.2826325 -822.43254103 1231.79211198 -817.21484375 1224.30078125 C-812.96499114 1218.19615426 -808.73626631 1212.07785736 -804.53076172 1205.94262695 C-800.52725365 1200.10917652 -796.48251826 1194.30471547 -792.4375 1188.5 C-787.53140174 1181.45841431 -782.64814281 1174.4026592 -777.8125 1167.3125 C-772.29543268 1159.22321649 -766.71135204 1151.18182722 -761.11328125 1143.1484375 C-757.32833013 1137.71531884 -753.55624466 1132.27408863 -749.8125 1126.8125 C-744.65055348 1119.28260667 -739.43254076 1111.7921116 -734.21484375 1104.30078125 C-730.39678476 1098.8163967 -726.59097717 1093.32422358 -722.8125 1087.8125 C-717.65051536 1080.2826325 -712.43254103 1072.79211198 -707.21484375 1065.30078125 C-702.96708445 1059.19916115 -698.73951793 1053.08450032 -694.53735352 1046.95141602 C-691.1676561 1042.0398552 -687.76387259 1037.15258711 -684.35546875 1032.26782227 C-677.55761052 1022.52427801 -670.83743662 1012.74106942 -664.3125 1002.8125 C-664.87026652 1002.77572173 -665.42803304 1002.73894346 -666.00270158 1002.7010507 C-675.9691328 1001.92397679 -685.80832039 1000.29079846 -695.68009949 998.76039124 C-697.75995898 998.44050725 -699.83986425 998.12092083 -701.91981107 997.80160517 C-707.62087828 996.92549098 -713.32128754 996.04516056 -719.02159655 995.16412866 C-725.17840804 994.21329933 -731.33582304 993.26639323 -737.49316406 992.31900024 C-748.17074249 990.67555076 -758.84793657 989.02962801 -769.52486229 987.38194466 C-780.76082711 985.64799638 -791.99700076 983.91541156 -803.23345375 982.18462944 C-804.28518142 982.02262733 -804.28518142 982.02262733 -805.35815611 981.85735244 C-808.92080799 981.3085881 -812.48346333 980.75984626 -816.04611985 980.21111207 C-841.29915887 976.32148976 -866.55169649 972.42862105 -891.80395508 968.53393555 C-916.17279986 964.77550384 -940.54191537 961.01883473 -964.91137695 957.2644043 C-965.6582648 957.14933604 -966.40515264 957.03426778 -967.17467344 956.91571261 C-973.18721468 955.98939935 -979.19975688 955.06309239 -985.21230087 954.13679707 C-1011.44658241 950.0951267 -1037.68064094 946.05200922 -1063.9146531 942.0085908 C-1068.80840009 941.25432641 -1073.70215411 940.50010765 -1078.59591079 939.74590611 C-1084.75938669 938.79601841 -1090.92285016 937.84605005 -1097.08630004 936.89599348 C-1100.43003186 936.38057897 -1103.77376803 935.86519266 -1107.11751544 935.3498793 C-1121.01356226 933.20829244 -1134.9092252 931.06427994 -1148.80366802 928.91230869 C-1153.46661997 928.19030628 -1158.12959211 927.46843437 -1162.79257202 926.74661255 C-1163.90948949 926.57366117 -1165.02640695 926.40070979 -1166.1771704 926.22251745 C-1179.80030009 924.11391041 -1193.42737838 922.03542144 -1207.06183397 920.00136093 C-1211.66592852 919.31282412 -1216.26878352 918.61605354 -1220.87152228 917.9185173 C-1225.47828794 917.22158397 -1230.08802623 916.54754817 -1234.69892406 915.87838078 C-1236.96185713 915.53582178 -1239.22464738 915.19231736 -1241.48725891 914.84764099 C-1242.45999004 914.71266878 -1243.43272118 914.57769656 -1244.43492901 914.43863428 C-1254.27656459 912.8958254 -1262.63332402 909.16085572 -1268.6484375 901 C-1273.09926428 894.41380545 -1275.00494986 887.84491833 -1274.3125 879.8125 C-1270.92655049 864.31622011 -1259.91234047 856.65979017 -1247.796875 847.4765625 C-1244.10582022 844.67161224 -1240.48774643 841.77974887 -1236.875 838.875 C-1230.30080113 833.59472223 -1223.68430197 828.37124304 -1217.04638672 823.17138672 C-1214.13283173 820.88796697 -1211.22285807 818.59999197 -1208.3125 816.3125 C-1207.14585027 815.39581177 -1205.97918361 814.4791451 -1204.8125 813.5625 C-1204.235 813.10875 -1203.6575 812.655 -1203.0625 812.1875 C-1183.8125 797.0625 -1183.8125 797.0625 -1182.06274414 795.68774414 C-1180.8951959 794.77034991 -1179.72771551 793.85286933 -1178.56030273 792.93530273 C-1175.6576721 790.65405755 -1172.75390726 788.37428786 -1169.84765625 786.09765625 C-1164.49554902 781.90249658 -1159.15607675 777.6942142 -1153.85742188 773.43164062 C-1147.92578649 768.66013582 -1141.93915005 763.97710272 -1135.875 759.375 C-1129.58788217 754.60251572 -1123.43408029 749.69421826 -1117.33227539 744.68774414 C-1111.87254626 740.22544618 -1106.28753219 735.94567558 -1100.66796875 731.6875 C-1095.80377417 727.98822222 -1091.03661368 724.18869584 -1086.3125 720.3125 C-1080.19946961 715.29668019 -1073.97004586 710.4628444 -1067.66796875 705.6875 C-1062.80377417 701.98822222 -1058.03661368 698.18869584 -1053.3125 694.3125 C-1047.19946961 689.29668019 -1040.97004586 684.4628444 -1034.66796875 679.6875 C-1029.80377417 675.98822222 -1025.03661368 672.18869584 -1020.3125 668.3125 C-1014.19946961 663.29668019 -1007.97004586 658.4628444 -1001.66796875 653.6875 C-996.80377417 649.98822222 -992.03661368 646.18869584 -987.3125 642.3125 C-981.19946961 637.29668019 -974.97004586 632.4628444 -968.66796875 627.6875 C-963.80377417 623.98822222 -959.03661368 620.18869584 -954.3125 616.3125 C-948.19946961 611.29668019 -941.97004586 606.4628444 -935.66796875 601.6875 C-930.80377417 597.98822222 -926.03661368 594.18869584 -921.3125 590.3125 C-915.19946961 585.29668019 -908.97004586 580.4628444 -902.66796875 575.6875 C-897.80377417 571.98822222 -893.03661368 568.18869584 -888.3125 564.3125 C-882.19946961 559.29668019 -875.97004586 554.4628444 -869.66796875 549.6875 C-864.80377417 545.98822222 -860.03661368 542.18869584 -855.3125 538.3125 C-849.19946961 533.29668019 -842.97004586 528.4628444 -836.66796875 523.6875 C-831.80377417 519.98822222 -827.03661368 516.18869584 -822.3125 512.3125 C-816.19946961 507.29668019 -809.97004586 502.4628444 -803.66796875 497.6875 C-798.80377417 493.98822222 -794.03661368 490.18869584 -789.3125 486.3125 C-783.19946961 481.29668019 -776.97004586 476.4628444 -770.66796875 471.6875 C-765.80377417 467.98822222 -761.03661368 464.18869584 -756.3125 460.3125 C-750.19946961 455.29668019 -743.97004586 450.4628444 -737.66796875 445.6875 C-732.80377417 441.98822222 -728.03661368 438.18869584 -723.3125 434.3125 C-717.19946961 429.29668019 -710.97004586 424.4628444 -704.66796875 419.6875 C-699.80377417 415.98822222 -695.03661368 412.18869584 -690.3125 408.3125 C-684.19946961 403.29668019 -677.97004586 398.4628444 -671.66796875 393.6875 C-666.80377417 389.98822222 -662.03661368 386.18869584 -657.3125 382.3125 C-651.19946961 377.29668019 -644.97004586 372.4628444 -638.66796875 367.6875 C-633.80377417 363.98822222 -629.03661368 360.18869584 -624.3125 356.3125 C-618.19946961 351.29668019 -611.97004586 346.4628444 -605.66796875 341.6875 C-600.80377417 337.98822222 -596.03661368 334.18869584 -591.3125 330.3125 C-585.19946961 325.29668019 -578.97004586 320.4628444 -572.66796875 315.6875 C-567.80377417 311.98822222 -563.03661368 308.18869584 -558.3125 304.3125 C-552.19946961 299.29668019 -545.97004586 294.4628444 -539.66796875 289.6875 C-534.80377417 285.98822222 -530.03661368 282.18869584 -525.3125 278.3125 C-519.19946961 273.29668019 -512.97004586 268.4628444 -506.66796875 263.6875 C-501.80377417 259.98822222 -497.03661368 256.18869584 -492.3125 252.3125 C-486.19946961 247.29668019 -479.97004586 242.4628444 -473.66796875 237.6875 C-468.80377417 233.98822222 -464.03661368 230.18869584 -459.3125 226.3125 C-453.19946961 221.29668019 -446.97004586 216.4628444 -440.66796875 211.6875 C-435.80377417 207.98822222 -431.03661368 204.18869584 -426.3125 200.3125 C-420.19946961 195.29668019 -413.97004586 190.4628444 -407.66796875 185.6875 C-402.80377417 181.98822222 -398.03661368 178.18869584 -393.3125 174.3125 C-387.19946961 169.29668019 -380.97004586 164.4628444 -374.66796875 159.6875 C-369.80377417 155.98822222 -365.03661368 152.18869584 -360.3125 148.3125 C-354.19946961 143.29668019 -347.97004586 138.4628444 -341.66796875 133.6875 C-336.80377417 129.98822222 -332.03661368 126.18869584 -327.3125 122.3125 C-321.19946961 117.29668019 -314.97004586 112.4628444 -308.66796875 107.6875 C-303.80377417 103.98822222 -299.03661368 100.18869584 -294.3125 96.3125 C-288.19946961 91.29668019 -281.97004586 86.4628444 -275.66796875 81.6875 C-270.80376729 77.98821699 -266.03674222 74.1885472 -261.3125 70.3125 C-253.76718569 64.12515458 -246.0869996 58.11587934 -238.25 52.30126953 C-236.30478107 50.845725 -236.30478107 50.845725 -234.5625 49.24169922 C-230.61040092 45.84429939 -226.98465884 44.24422977 -221.93676758 42.94604492 C-221.28983098 42.77959284 -220.64289438 42.61314075 -219.97635365 42.44164467 C-210.33334762 40.00394575 -200.60257775 37.92738749 -190.88671875 35.8046875 C-188.68613412 35.32131491 -186.48561491 34.83764442 -184.28515625 34.35369873 C-178.40613287 33.06157452 -172.52622538 31.77351732 -166.64614487 30.48621368 C-160.53478055 29.14747634 -154.42429439 27.80474293 -148.3137207 26.46240234 C-134.80741874 23.49613795 -121.29997717 20.5350864 -107.79229736 17.57510376 C-102.29374525 16.37008632 -96.79530237 15.16457083 -91.296875 13.95898438 C-90.27044482 13.73393408 -89.24401464 13.50888378 -88.18648052 13.27701378 C-83.24511065 12.19355379 -78.30377669 11.10993029 -73.36250305 10.02603149 C-72.42801173 9.82104727 -71.49352041 9.61606304 -70.53071117 9.40486717 C-68.68876998 9.0008273 -66.84683128 8.59677605 -65.00489521 8.19271278 C-59.72638095 7.03493056 -54.44754806 5.87861553 -49.16843224 4.72357941 C-45.93063281 4.01499053 -42.69303249 3.305495 -39.45547485 2.59580231 C-37.97927961 2.27243722 -36.50299521 1.94947875 -35.02661133 1.62697601 C-26.26407027 -0.27417827 -26.26407027 -0.27417827 -17.55004883 -2.38354492 C-11.29479556 -3.93686285 -5.5896333 -3.26325108 0 0 Z " fill="#282829" transform="translate(1975.3125,582.1875)"/>
<path d="M0 0 C-3.36448013 3.48704771 -6.82075753 6.52101581 -10.6875 9.4375 C-11.84419747 10.31581727 -13.00042066 11.19475937 -14.15625 12.07421875 C-14.775 12.5439209 -15.39375 13.01362305 -16.03125 13.49755859 C-19.60284679 16.22320426 -23.14364936 18.9884386 -26.6875 21.75 C-28.22783473 22.9492571 -29.76819967 24.14847539 -31.30859375 25.34765625 C-32.08187012 25.94980957 -32.85514648 26.55196289 -33.65185547 27.17236328 C-35.98697983 28.98986598 -38.3233471 30.80575788 -40.66015625 32.62109375 C-48.01302566 38.33384553 -55.35706179 44.05696853 -62.67285156 49.81713867 C-68.20668407 54.17070599 -73.76773655 58.48903024 -79.328125 62.80859375 C-83.89613978 66.35890456 -88.45448382 69.92093702 -93 73.5 C-99.08970936 78.29493471 -105.20720917 83.05358699 -111.328125 87.80859375 C-115.89614024 91.35890492 -120.4544354 94.9209981 -125 98.5 C-134.07784108 105.64596467 -143.20835724 112.72424735 -152.33203125 119.81152344 C-160.461255 126.12704223 -168.58481513 132.44893135 -176.67285156 138.81713867 C-182.20668407 143.17070599 -187.76773655 147.48903024 -193.328125 151.80859375 C-197.89613978 155.35890456 -202.45448382 158.92093702 -207 162.5 C-213.08970936 167.29493471 -219.20720917 172.05358699 -225.328125 176.80859375 C-229.89613978 180.35890456 -234.45448382 183.92093702 -239 187.5 C-245.08970936 192.29493471 -251.20720917 197.05358699 -257.328125 201.80859375 C-261.89614024 205.35890492 -266.4544354 208.9209981 -271 212.5 C-280.07784108 219.64596467 -289.20835724 226.72424735 -298.33203125 233.81152344 C-306.461255 240.12704223 -314.58481513 246.44893135 -322.67285156 252.81713867 C-328.20668407 257.17070599 -333.76773655 261.48903024 -339.328125 265.80859375 C-343.89613978 269.35890456 -348.45448382 272.92093702 -353 276.5 C-359.08970936 281.29493471 -365.20720917 286.05358699 -371.328125 290.80859375 C-375.89614024 294.35890492 -380.4544354 297.9209981 -385 301.5 C-394.07784108 308.64596467 -403.20835724 315.72424735 -412.33203125 322.81152344 C-420.461255 329.12704223 -428.58481513 335.44893135 -436.67285156 341.81713867 C-442.20668407 346.17070599 -447.76773655 350.48903024 -453.328125 354.80859375 C-457.89613978 358.35890456 -462.45448382 361.92093702 -467 365.5 C-473.08970936 370.29493471 -479.20720917 375.05358699 -485.328125 379.80859375 C-489.89614024 383.35890492 -494.4544354 386.9209981 -499 390.5 C-508.07784108 397.64596467 -517.20835724 404.72424735 -526.33203125 411.81152344 C-534.461255 418.12704223 -542.58481513 424.44893135 -550.67285156 430.81713867 C-556.20668407 435.17070599 -561.76773655 439.48903024 -567.328125 443.80859375 C-571.89613978 447.35890456 -576.45448382 450.92093702 -581 454.5 C-587.08970936 459.29493471 -593.20720917 464.05358699 -599.328125 468.80859375 C-603.89613978 472.35890456 -608.45448382 475.92093702 -613 479.5 C-619.08970936 484.29493471 -625.20720917 489.05358699 -631.328125 493.80859375 C-635.89614024 497.35890492 -640.4544354 500.9209981 -645 504.5 C-654.07784108 511.64596467 -663.20835724 518.72424735 -672.33203125 525.81152344 C-680.461255 532.12704223 -688.58481513 538.44893135 -696.67285156 544.81713867 C-702.20668407 549.17070599 -707.76773655 553.48903024 -713.328125 557.80859375 C-717.89613978 561.35890456 -722.45448382 564.92093702 -727 568.5 C-733.08970936 573.29493471 -739.20720917 578.05358699 -745.328125 582.80859375 C-749.89614024 586.35890492 -754.4544354 589.9209981 -759 593.5 C-768.07784108 600.64596467 -777.20835724 607.72424735 -786.33203125 614.81152344 C-794.461255 621.12704223 -802.58481513 627.44893135 -810.67285156 633.81713867 C-816.20668407 638.17070599 -821.76773655 642.48903024 -827.328125 646.80859375 C-831.89613978 650.35890456 -836.45448382 653.92093702 -841 657.5 C-847.08970936 662.29493471 -853.20720917 667.05358699 -859.328125 671.80859375 C-863.89613978 675.35890456 -868.45448382 678.92093702 -873 682.5 C-879.08970936 687.29493471 -885.20720917 692.05358699 -891.328125 696.80859375 C-895.89614024 700.35890492 -900.4544354 703.9209981 -905 707.5 C-914.07784108 714.64596467 -923.20835724 721.72424735 -932.33203125 728.81152344 C-940.461255 735.12704223 -948.58481513 741.44893135 -956.67285156 747.81713867 C-962.20668407 752.17070599 -967.76773655 756.48903024 -973.328125 760.80859375 C-977.89613978 764.35890456 -982.45448382 767.92093702 -987 771.5 C-993.08970936 776.29493471 -999.20720917 781.05358699 -1005.328125 785.80859375 C-1009.89614024 789.35890492 -1014.4544354 792.9209981 -1019 796.5 C-1028.07784108 803.64596467 -1037.20835724 810.72424735 -1046.33203125 817.81152344 C-1047.09902344 818.40739258 -1047.86601563 819.00326172 -1048.65625 819.6171875 C-1049.41808594 820.20894775 -1050.17992187 820.80070801 -1050.96484375 821.41040039 C-1052.47895139 822.5878779 -1053.99198701 823.76673531 -1055.50390625 824.94702148 C-1058.99436009 827.67143767 -1062.49355202 830.38010092 -1066.03125 833.04296875 C-1077.08391222 840.7094404 -1077.08391222 840.7094404 -1082.484375 852.32421875 C-1082.75089632 859.2907898 -1082.35700306 865.3573239 -1078 871 C-1071.69992211 877.47508005 -1062.8619356 878.56723314 -1054.30859375 879.68359375 C-1052.77598656 879.89605492 -1052.77598656 879.89605492 -1051.2124176 880.11280823 C-1047.95523728 880.56309888 -1044.69656817 881.00110194 -1041.4375 881.4375 C-1037.18543327 882.01404593 -1032.93420506 882.59641573 -1028.68359375 883.18359375 C-1027.62755951 883.32908661 -1026.57152527 883.47457947 -1025.48348999 883.6244812 C-1017.34163764 884.76575612 -1009.25315334 886.13447169 -1001.1605072 887.57981873 C-993.19672769 888.99340679 -985.21590447 890.15230628 -977.19799805 891.20947266 C-966.59577053 892.61085561 -956.02122947 894.07174416 -945.5 896 C-935.97372452 897.74322152 -926.40750768 899.08094979 -916.8125 900.375 C-903.75074862 902.13727797 -890.75698947 904.156751 -877.7666626 906.38269043 C-865.49855899 908.47936117 -853.20778051 910.2735945 -840.87402344 911.93701172 C-831.16583236 913.24842549 -821.51297576 914.71471186 -811.87573242 916.48095703 C-802.95269765 918.08147983 -793.98161434 919.28368222 -785 920.5 C-774.24804688 921.95606249 -763.5532873 923.52376403 -752.87890625 925.48046875 C-743.95476076 927.08092526 -734.98268973 928.28353659 -726 929.5 C-716.1330341 930.8362148 -706.29628008 932.20460771 -696.5 934 C-686.97372452 935.74322152 -677.40750768 937.08094979 -667.8125 938.375 C-654.75074862 940.13727797 -641.75698947 942.156751 -628.7666626 944.38269043 C-616.49855899 946.47936117 -604.20778051 948.2735945 -591.87402344 949.93701172 C-582.16583236 951.24842549 -572.51297576 952.71471186 -562.87573242 954.48095703 C-553.95269141 956.08148095 -544.98160753 957.28359676 -536 958.5 C-525.07580369 959.97977441 -514.20370157 961.56795677 -503.35595703 963.54418945 C-494.34585267 965.16713264 -485.29019415 966.43711915 -476.22265625 967.69360352 C-475.09472656 967.85014404 -473.96679688 968.00668457 -472.8046875 968.16796875 C-471.80421387 968.30485107 -470.80374023 968.4417334 -469.77294922 968.58276367 C-467.16054247 968.97584372 -464.58520348 969.45809363 -462 970 C-465.10514338 975.67256681 -468.63596214 980.91545662 -472.375 986.1875 C-473.63289365 987.97259907 -474.89070382 989.75775697 -476.1484375 991.54296875 C-476.7887793 992.44966309 -477.42912109 993.35635742 -478.08886719 994.29052734 C-481.07119325 998.51866412 -484.03515255 1002.75959813 -487 1007 C-488.16916139 1008.67064951 -489.33843245 1010.34122228 -490.5078125 1012.01171875 C-491.08563477 1012.83720215 -491.66345703 1013.66268555 -492.25878906 1014.51318359 C-493.98182936 1016.97404849 -495.7056522 1019.43436336 -497.4296875 1021.89453125 C-503.63561076 1030.75207626 -509.82683281 1039.61958929 -516 1048.5 C-522.74072179 1058.19686646 -529.5048139 1067.87709183 -536.28222656 1077.54833984 C-539.18962089 1081.69786427 -542.09470708 1085.84900414 -545 1090 C-548.47545225 1094.96562251 -551.95131432 1099.93095424 -555.4296875 1104.89453125 C-561.63561076 1113.75207626 -567.82683281 1122.61958929 -574 1131.5 C-581.87682997 1142.83121508 -589.78881741 1154.13752975 -597.70898438 1165.43847656 C-604.4892934 1175.1141399 -611.25626587 1184.79880013 -618 1194.5 C-625.87682997 1205.83121508 -633.78881741 1217.13752975 -641.70898438 1228.43847656 C-648.4892934 1238.1141399 -655.25626587 1247.79880013 -662 1257.5 C-669.87682997 1268.83121508 -677.78881741 1280.13752975 -685.70898438 1291.43847656 C-692.4892934 1301.1141399 -699.25626587 1310.79880013 -706 1320.5 C-713.87682997 1331.83121508 -721.78881741 1343.13752975 -729.70898438 1354.43847656 C-736.4892934 1364.1141399 -743.25626587 1373.79880013 -750 1383.5 C-756.74072179 1393.19686646 -763.5048139 1402.87709183 -770.28222656 1412.54833984 C-773.18962089 1416.69786427 -776.09470708 1420.84900414 -779 1425 C-782.47545225 1429.96562251 -785.95131432 1434.93095424 -789.4296875 1439.89453125 C-795.63561076 1448.75207626 -801.82683281 1457.61958929 -808 1466.5 C-815.87682997 1477.83121508 -823.78881741 1489.13752975 -831.70898438 1500.43847656 C-838.4892934 1510.1141399 -845.25626587 1519.79880013 -852 1529.5 C-859.87682997 1540.83121508 -867.78881741 1552.13752975 -875.70898438 1563.43847656 C-882.4892934 1573.1141399 -889.25626587 1582.79880013 -896 1592.5 C-903.87682997 1603.83121508 -911.78881741 1615.13752975 -919.70898438 1626.43847656 C-926.4892934 1636.1141399 -933.25626587 1645.79880013 -940 1655.5 C-947.87682997 1666.83121508 -955.78881741 1678.13752975 -963.70898438 1689.43847656 C-971.16591579 1700.07969626 -978.60235933 1710.73481275 -986.01879883 1721.40429688 C-991.60157958 1729.4334037 -997.20468317 1737.44813392 -1002.81640625 1745.45703125 C-1003.33017822 1746.19123291 -1003.8439502 1746.92543457 -1004.37329102 1747.68188477 C-1005.54695371 1749.35439374 -1006.72508263 1751.02377172 -1007.90600586 1752.69116211 C-1008.53514893 1753.58198486 -1009.16429199 1754.47280762 -1009.8125 1755.390625 C-1010.38742187 1756.20176758 -1010.96234375 1757.01291016 -1011.5546875 1757.84863281 C-1015.50502828 1763.72876845 -1015.89026417 1770.10279546 -1015 1777 C-1012.70315409 1784.34990692 -1008.38653027 1789.74231316 -1002 1794 C-998.37102759 1795.74618313 -995.19092319 1796.33559591 -991.1875 1796.625 C-989.72376953 1796.73714844 -989.72376953 1796.73714844 -988.23046875 1796.8515625 C-987.49441406 1796.90054688 -986.75835938 1796.94953125 -986 1797 C-986 1797.33 -986 1797.66 -986 1798 C-993.17443863 1799.64731199 -1000.34892303 1801.29442458 -1007.5234375 1802.94140625 C-1008.63467735 1803.19650404 -1009.74591721 1803.45160183 -1010.89083099 1803.71442986 C-1024.3926937 1806.81379948 -1037.89493406 1809.91151424 -1051.39794922 1813.00585938 C-1052.63739603 1813.28989309 -1053.87684284 1813.57392681 -1055.15384865 1813.86656761 C-1060.15125634 1815.01174289 -1065.1486748 1816.15687106 -1070.14613724 1817.3018074 C-1083.12989037 1820.27648637 -1096.11310933 1823.25336415 -1109.09260368 1826.24657726 C-1115.3581376 1827.69144395 -1121.624594 1829.13224074 -1127.89201546 1830.5688982 C-1131.32250911 1831.35549029 -1134.75238724 1832.14455816 -1138.18084717 1832.93997192 C-1141.89224736 1833.80102739 -1145.60612642 1834.65103716 -1149.3203125 1835.5 C-1150.36121033 1835.74358749 -1151.40210815 1835.98717499 -1152.47454834 1836.23814392 C-1162.45647485 1838.50049278 -1172.44426115 1840.74704446 -1182 1836 C-1189.44096426 1830.89896161 -1194.10232121 1824.83826327 -1196 1816 C-1196.98130433 1803.48836975 -1189.81169998 1794.72955363 -1183 1785 C-1181.72329498 1783.1606165 -1180.44729447 1781.32074388 -1179.171875 1779.48046875 C-1176.4134273 1775.50499061 -1173.6484991 1771.53412712 -1170.87890625 1767.56640625 C-1167.73318086 1763.05740639 -1164.60749338 1758.53540533 -1161.5 1754 C-1156.3382272 1746.46998887 -1151.12003958 1738.9796099 -1145.90234375 1731.48828125 C-1142.08428476 1726.0038967 -1138.27847717 1720.51172358 -1134.5 1715 C-1129.33801536 1707.4701325 -1124.12004103 1699.97961198 -1118.90234375 1692.48828125 C-1115.08428476 1687.0038967 -1111.27847717 1681.51172358 -1107.5 1676 C-1102.33801536 1668.4701325 -1097.12004103 1660.97961198 -1091.90234375 1653.48828125 C-1088.08428476 1648.0038967 -1084.27847717 1642.51172358 -1080.5 1637 C-1075.33801536 1629.4701325 -1070.12004103 1621.97961198 -1064.90234375 1614.48828125 C-1061.08428476 1609.0038967 -1057.27847717 1603.51172358 -1053.5 1598 C-1048.33801536 1590.4701325 -1043.12004103 1582.97961198 -1037.90234375 1575.48828125 C-1034.08428476 1570.0038967 -1030.27847717 1564.51172358 -1026.5 1559 C-1021.33801536 1551.4701325 -1016.12004103 1543.97961198 -1010.90234375 1536.48828125 C-1007.08428476 1531.0038967 -1003.27847717 1525.51172358 -999.5 1520 C-994.33801536 1512.4701325 -989.12004103 1504.97961198 -983.90234375 1497.48828125 C-980.08428476 1492.0038967 -976.27847717 1486.51172358 -972.5 1481 C-967.33801536 1473.4701325 -962.12004103 1465.97961198 -956.90234375 1458.48828125 C-953.08428476 1453.0038967 -949.27847717 1447.51172358 -945.5 1442 C-940.33801536 1434.4701325 -935.12004103 1426.97961198 -929.90234375 1419.48828125 C-926.08428476 1414.0038967 -922.27847717 1408.51172358 -918.5 1403 C-913.33801536 1395.4701325 -908.12004103 1387.97961198 -902.90234375 1380.48828125 C-899.08428476 1375.0038967 -895.27847717 1369.51172358 -891.5 1364 C-886.33801536 1356.4701325 -881.12004103 1348.97961198 -875.90234375 1341.48828125 C-872.08428476 1336.0038967 -868.27847717 1330.51172358 -864.5 1325 C-859.33801536 1317.4701325 -854.12004103 1309.97961198 -848.90234375 1302.48828125 C-845.08428476 1297.0038967 -841.27847717 1291.51172358 -837.5 1286 C-832.33801536 1278.4701325 -827.12004103 1270.97961198 -821.90234375 1263.48828125 C-818.08428476 1258.0038967 -814.27847717 1252.51172358 -810.5 1247 C-805.33801536 1239.4701325 -800.12004103 1231.97961198 -794.90234375 1224.48828125 C-790.65249114 1218.38365426 -786.42376631 1212.26535736 -782.21826172 1206.13012695 C-778.21475365 1200.29667652 -774.17001826 1194.49221547 -770.125 1188.6875 C-765.21890174 1181.64591431 -760.33564281 1174.5901592 -755.5 1167.5 C-749.98293268 1159.41071649 -744.39885204 1151.36932722 -738.80078125 1143.3359375 C-735.01583013 1137.90281884 -731.24374466 1132.46158863 -727.5 1127 C-722.33805348 1119.47010667 -717.12004076 1111.9796116 -711.90234375 1104.48828125 C-708.08428476 1099.0038967 -704.27847717 1093.51172358 -700.5 1088 C-695.33801536 1080.4701325 -690.12004103 1072.97961198 -684.90234375 1065.48828125 C-680.65458445 1059.38666115 -676.42701793 1053.27200032 -672.22485352 1047.13891602 C-668.8551561 1042.2273552 -665.45137259 1037.34008711 -662.04296875 1032.45532227 C-655.24511052 1022.71177801 -648.52493662 1012.92856942 -642 1003 C-642.55776652 1002.96322173 -643.11553304 1002.92644346 -643.69020158 1002.8885507 C-653.6566328 1002.11147679 -663.49582039 1000.47829846 -673.36759949 998.94789124 C-675.44745898 998.62800725 -677.52736425 998.30842083 -679.60731107 997.98910517 C-685.30837828 997.11299098 -691.00878754 996.23266056 -696.70909655 995.35162866 C-702.86590804 994.40079933 -709.02332304 993.45389323 -715.18066406 992.50650024 C-725.85824249 990.86305076 -736.53543657 989.21712801 -747.21236229 987.56944466 C-758.44832711 985.83549638 -769.68450076 984.10291156 -780.92095375 982.37212944 C-781.97268142 982.21012733 -781.97268142 982.21012733 -783.04565611 982.04485244 C-786.60830799 981.4960881 -790.17096333 980.94734626 -793.73361985 980.39861207 C-818.98665887 976.50898976 -844.23919649 972.61612105 -869.49145508 968.72143555 C-893.86029986 964.96300384 -918.22941537 961.20633473 -942.59887695 957.4519043 C-943.3457648 957.33683604 -944.09265264 957.22176778 -944.86217344 957.10321261 C-950.87471468 956.17689935 -956.88725688 955.25059239 -962.89980087 954.32429707 C-989.13408241 950.2826267 -1015.36814094 946.23950922 -1041.6021531 942.1960908 C-1046.49590009 941.44182641 -1051.38965411 940.68760765 -1056.28341079 939.93340611 C-1062.44688669 938.98351841 -1068.61035016 938.03355005 -1074.77380004 937.08349348 C-1078.11753186 936.56807897 -1081.46126803 936.05269266 -1084.80501544 935.5373793 C-1098.70106226 933.39579244 -1112.5967252 931.25177994 -1126.49116802 929.09980869 C-1131.15411997 928.37780628 -1135.81709211 927.65593437 -1140.48007202 926.93411255 C-1141.59698949 926.76116117 -1142.71390695 926.58820979 -1143.8646704 926.41001745 C-1157.48780009 924.30141041 -1171.11487838 922.22292144 -1184.74933397 920.18886093 C-1189.35342852 919.50032412 -1193.95628352 918.80355354 -1198.55902228 918.1060173 C-1203.16578794 917.40908397 -1207.77552623 916.73504817 -1212.38642406 916.06588078 C-1214.64935713 915.72332178 -1216.91214738 915.37981736 -1219.17475891 915.03514099 C-1220.14749004 914.90016878 -1221.12022118 914.76519656 -1222.12242901 914.62613428 C-1231.96406459 913.0833254 -1240.32082402 909.34835572 -1246.3359375 901.1875 C-1250.78676428 894.60130545 -1252.69244986 888.03241833 -1252 880 C-1248.61405049 864.50372011 -1237.59984047 856.84729017 -1225.484375 847.6640625 C-1221.79332022 844.85911224 -1218.17524643 841.96724887 -1214.5625 839.0625 C-1207.98830113 833.78222223 -1201.37180197 828.55874304 -1194.73388672 823.35888672 C-1191.82033173 821.07546697 -1188.91035807 818.78749197 -1186 816.5 C-1184.83335027 815.58331177 -1183.66668361 814.6666451 -1182.5 813.75 C-1181.9225 813.29625 -1181.345 812.8425 -1180.75 812.375 C-1161.5 797.25 -1161.5 797.25 -1159.75024414 795.87524414 C-1158.5826959 794.95784991 -1157.41521551 794.04036933 -1156.24780273 793.12280273 C-1153.3451721 790.84155755 -1150.44140726 788.56178786 -1147.53515625 786.28515625 C-1142.18304902 782.08999658 -1136.84357675 777.8817142 -1131.54492188 773.61914062 C-1125.61328649 768.84763582 -1119.62665005 764.16460272 -1113.5625 759.5625 C-1107.27538217 754.79001572 -1101.12158029 749.88171826 -1095.01977539 744.87524414 C-1089.56004626 740.41294618 -1083.97503219 736.13317558 -1078.35546875 731.875 C-1073.49127417 728.17572222 -1068.72411368 724.37619584 -1064 720.5 C-1057.88696961 715.48418019 -1051.65754586 710.6503444 -1045.35546875 705.875 C-1040.49127417 702.17572222 -1035.72411368 698.37619584 -1031 694.5 C-1024.88696961 689.48418019 -1018.65754586 684.6503444 -1012.35546875 679.875 C-1007.49127417 676.17572222 -1002.72411368 672.37619584 -998 668.5 C-991.88696961 663.48418019 -985.65754586 658.6503444 -979.35546875 653.875 C-974.49127417 650.17572222 -969.72411368 646.37619584 -965 642.5 C-958.88696961 637.48418019 -952.65754586 632.6503444 -946.35546875 627.875 C-941.49127417 624.17572222 -936.72411368 620.37619584 -932 616.5 C-925.88696961 611.48418019 -919.65754586 606.6503444 -913.35546875 601.875 C-908.49127417 598.17572222 -903.72411368 594.37619584 -899 590.5 C-892.88696961 585.48418019 -886.65754586 580.6503444 -880.35546875 575.875 C-875.49127417 572.17572222 -870.72411368 568.37619584 -866 564.5 C-859.88696961 559.48418019 -853.65754586 554.6503444 -847.35546875 549.875 C-842.49127417 546.17572222 -837.72411368 542.37619584 -833 538.5 C-826.88696961 533.48418019 -820.65754586 528.6503444 -814.35546875 523.875 C-809.49127417 520.17572222 -804.72411368 516.37619584 -800 512.5 C-793.88696961 507.48418019 -787.65754586 502.6503444 -781.35546875 497.875 C-776.49127417 494.17572222 -771.72411368 490.37619584 -767 486.5 C-760.88696961 481.48418019 -754.65754586 476.6503444 -748.35546875 471.875 C-743.49127417 468.17572222 -738.72411368 464.37619584 -734 460.5 C-727.88696961 455.48418019 -721.65754586 450.6503444 -715.35546875 445.875 C-710.49127417 442.17572222 -705.72411368 438.37619584 -701 434.5 C-694.88696961 429.48418019 -688.65754586 424.6503444 -682.35546875 419.875 C-677.49127417 416.17572222 -672.72411368 412.37619584 -668 408.5 C-661.88696961 403.48418019 -655.65754586 398.6503444 -649.35546875 393.875 C-644.49127417 390.17572222 -639.72411368 386.37619584 -635 382.5 C-628.88696961 377.48418019 -622.65754586 372.6503444 -616.35546875 367.875 C-611.49127417 364.17572222 -606.72411368 360.37619584 -602 356.5 C-595.88696961 351.48418019 -589.65754586 346.6503444 -583.35546875 341.875 C-578.49127417 338.17572222 -573.72411368 334.37619584 -569 330.5 C-562.88696961 325.48418019 -556.65754586 320.6503444 -550.35546875 315.875 C-545.49127417 312.17572222 -540.72411368 308.37619584 -536 304.5 C-529.88696961 299.48418019 -523.65754586 294.6503444 -517.35546875 289.875 C-512.49127417 286.17572222 -507.72411368 282.37619584 -503 278.5 C-496.88696961 273.48418019 -490.65754586 268.6503444 -484.35546875 263.875 C-479.49127417 260.17572222 -474.72411368 256.37619584 -470 252.5 C-463.88696961 247.48418019 -457.65754586 242.6503444 -451.35546875 237.875 C-446.49127417 234.17572222 -441.72411368 230.37619584 -437 226.5 C-430.88696961 221.48418019 -424.65754586 216.6503444 -418.35546875 211.875 C-413.49127417 208.17572222 -408.72411368 204.37619584 -404 200.5 C-397.88696961 195.48418019 -391.65754586 190.6503444 -385.35546875 185.875 C-380.49127417 182.17572222 -375.72411368 178.37619584 -371 174.5 C-364.88696961 169.48418019 -358.65754586 164.6503444 -352.35546875 159.875 C-347.49127417 156.17572222 -342.72411368 152.37619584 -338 148.5 C-331.88696961 143.48418019 -325.65754586 138.6503444 -319.35546875 133.875 C-314.49127417 130.17572222 -309.72411368 126.37619584 -305 122.5 C-298.88696961 117.48418019 -292.65754586 112.6503444 -286.35546875 107.875 C-281.49127417 104.17572222 -276.72411368 100.37619584 -272 96.5 C-265.88696961 91.48418019 -259.65754586 86.6503444 -253.35546875 81.875 C-248.49126729 78.17571699 -243.72424222 74.3760472 -239 70.5 C-231.45468569 64.31265458 -223.7744996 58.30337934 -215.9375 52.48876953 C-213.99228107 51.033225 -213.99228107 51.033225 -212.25 49.42919922 C-208.3013601 46.03477305 -204.67855882 44.43314988 -199.63525391 43.13574219 C-198.98867136 42.96936091 -198.34208881 42.80297964 -197.67591286 42.63155651 C-187.97101149 40.17843526 -178.1768535 38.09212383 -168.3984375 35.95703125 C-166.18390272 35.47082189 -163.96943703 34.98429775 -161.7550354 34.4974823 C-155.84850811 33.19981938 -149.94111379 31.90614764 -144.0335083 30.61340332 C-137.90731204 29.27228543 -131.78178703 27.92810951 -125.65625 26.58398438 C-124.43455738 26.3159091 -123.21286476 26.04783382 -121.95415115 25.77163506 C-119.48380759 25.22956358 -117.01346686 24.68747921 -114.54312897 24.14538193 C-110.83292527 23.33137037 -107.12261486 22.5178466 -103.41229248 21.70437622 C-89.15789783 18.57814944 -74.90774233 15.43362389 -60.6632576 12.26254845 C-57.89837556 11.64713844 -55.13334376 11.0324062 -52.36825562 10.41792297 C-50.60308739 10.02560869 -48.83792014 9.63329004 -47.07275391 9.2409668 C-46.22400129 9.05233346 -45.37524868 8.86370012 -44.50077629 8.66935062 C-39.55041484 7.56864922 -34.60106589 6.46352234 -29.65236473 5.35538197 C-26.63466725 4.68077488 -23.6160354 4.01042903 -20.59711838 3.34130287 C-19.22132875 3.0353904 -17.84594827 2.72763076 -16.47102737 2.41783714 C-14.61718199 2.00029441 -12.76175309 1.58980083 -10.90625 1.1796875 C-9.87822266 0.95007324 -8.85019531 0.72045898 -7.79101562 0.48388672 C-5.12789342 0.02217326 -2.69582462 -0.09327899 0 0 Z " fill="#15708F" transform="translate(1953,582)"/>
</svg>
