<svg width="15" height="15" viewBox="0 0 15 15"  xmlns="http://www.w3.org/2000/svg">
<path d="M14.2682 9.89174C14.2617 9.69845 14.1636 9.54362 14.0183 9.42338C13.7058 9.16479 13.3154 9.19324 13.0039 9.49934C12.5629 9.93312 12.1245 10.3695 11.691 10.8107C11.6097 10.8934 11.5706 10.885 11.4942 10.8078C10.4322 9.73239 9.36796 8.65926 8.30016 7.59C8.21339 7.50305 8.2176 7.46136 8.30178 7.37699C9.36926 6.30742 10.4338 5.23428 11.4955 4.15889C11.5748 4.0784 11.6136 4.07937 11.692 4.15986C12.1207 4.59816 12.5555 5.03032 12.9893 5.46378C13.2173 5.69166 13.4896 5.7883 13.7978 5.67194C14.1306 5.5462 14.2818 5.28535 14.2812 4.93012C14.2792 3.78555 14.2838 2.64099 14.2789 1.49642C14.277 1.00834 13.9933 0.717754 13.507 0.714845C12.3551 0.708057 11.2031 0.707411 10.0511 0.716138C9.72313 0.718724 9.45311 0.857068 9.32814 1.18386C9.20251 1.51291 9.30515 1.78959 9.54765 2.02943C9.98312 2.46095 10.4144 2.89699 10.8515 3.32689C10.9153 3.3896 10.9195 3.41869 10.8524 3.48269C10.5844 3.73901 10.3195 3.99921 10.0602 4.26491C9.22259 5.12244 8.38823 5.98257 7.55258 6.84172L7.44768 6.83752C6.34815 5.7159 5.2496 4.59364 4.14748 3.47493C4.08208 3.40867 4.10248 3.38087 4.15493 3.32947C4.45766 3.03113 4.75779 2.73085 5.05793 2.42992C5.22855 2.2586 5.40728 2.09376 5.5643 1.91048C5.79321 1.64317 5.78673 1.286 5.57693 1.00672C5.40371 0.775936 5.15991 0.714522 4.89442 0.713552C3.79069 0.71032 2.68728 0.712259 1.58355 0.712259C1.00756 0.712259 0.720049 0.99929 0.720049 1.574C0.720049 2.65941 0.719726 3.74483 0.720697 4.83057C0.720697 4.92172 0.72523 5.01351 0.737857 5.1037C0.789336 5.4696 1.17786 5.79638 1.58743 5.69295C1.77198 5.6464 1.92448 5.55752 2.05593 5.42596C2.47391 5.00737 2.89384 4.5904 3.30698 4.16729C3.38824 4.0839 3.42904 4.07355 3.51775 4.16374C4.57842 5.2401 5.6433 6.31259 6.71045 7.38281C6.78686 7.45974 6.79755 7.49917 6.71466 7.58224C5.64719 8.65182 4.58231 9.72431 3.52196 10.8013C3.42645 10.8983 3.38144 10.8776 3.29953 10.7942C2.88445 10.3727 2.46452 9.95606 2.04492 9.53877C1.91023 9.40495 1.76712 9.28406 1.56703 9.25982C1.18239 9.21295 0.717135 9.52455 0.718754 10.023C0.722963 11.1782 0.714545 12.3338 0.722639 13.489C0.725877 13.9496 1.02698 14.2499 1.48544 14.2528C2.64292 14.2602 3.80008 14.2596 4.95756 14.2521C5.24539 14.2502 5.49405 14.1393 5.63942 13.8694C5.81199 13.5488 5.75177 13.2159 5.48854 12.9421C5.03462 12.4692 4.58457 11.9921 4.16464 11.5499C5.24248 10.45 6.36337 9.30604 7.48491 8.16115C8.64466 9.30734 9.78465 10.4338 10.9295 11.5648C10.8651 11.6275 10.8026 11.6863 10.742 11.7474C10.3037 12.1909 9.85005 12.6201 9.43109 13.0827C9.31065 13.2155 9.25302 13.381 9.28345 13.5582C9.36472 14.0301 9.64284 14.2538 10.1016 14.2547C11.2105 14.2573 12.3195 14.2557 13.4284 14.2554C14.0034 14.2554 14.2805 13.9793 14.2805 13.4056C14.2809 12.5296 14.2815 11.6537 14.2802 10.778C14.2799 10.4826 14.2783 10.1872 14.2682 9.89206V9.89174ZM10.6485 1.67808C10.631 1.67388 10.618 1.66547 10.6303 1.65998L10.6485 1.67808C10.6546 1.67937 10.6611 1.68034 10.6672 1.68034C11.5061 1.67937 12.3454 1.68131 13.1842 1.67743C13.2882 1.67679 13.3205 1.70167 13.3202 1.80931C13.3157 2.66814 13.3176 3.52665 13.3176 4.34248C12.4412 3.46749 11.5447 2.57311 10.6485 1.67808ZM1.68262 4.41392C1.68262 3.51986 1.68327 2.65133 1.68165 1.78313C1.68165 1.71169 1.69525 1.67776 1.77813 1.67808C2.64907 1.68099 3.52034 1.68034 4.39128 1.68131C4.39905 1.68131 4.40715 1.69101 4.39679 1.68422C3.50059 2.58572 2.60148 3.49012 1.68294 4.41392H1.68262ZM4.401 13.3054L4.39484 13.2993C4.38513 13.2938 4.36506 13.2873 4.34855 13.2873C3.50448 13.2879 2.66008 13.286 1.81601 13.2902C1.71273 13.2909 1.67906 13.2673 1.67971 13.1587C1.68424 12.3001 1.6823 11.4413 1.6823 10.5709C2.58885 11.4827 3.4857 12.3848 4.39484 13.2993C4.39905 13.3015 4.40132 13.3038 4.401 13.3054ZM13.237 13.2892C12.357 13.2873 11.4767 13.2879 10.6119 13.2879C11.512 12.3894 12.4137 11.4892 13.3176 10.5867C13.3176 11.4488 13.3176 12.3173 13.318 13.1861C13.318 13.2437 13.3193 13.2892 13.237 13.2892Z" />
</svg>
