<svg width="19" height="16" viewBox="0 0 19 16" fill="none" xmlns="http://www.w3.org/2000/svg">
<path d="M15.8063 6.66638C15.1837 6.66638 14.561 6.67172 13.9384 6.66504C13.1689 6.65658 12.668 6.19228 12.6471 5.388C12.6114 3.99644 12.6084 2.60355 12.6505 1.21199C12.6697 0.58996 13.0642 0.144823 13.6209 0.0311991C14.2457 -0.0962377 14.7896 0.172003 15.0581 0.739231C15.1654 0.966033 15.1701 1.21066 15.1709 1.45484C15.173 2.23238 15.1777 3.01037 15.1671 3.78791C15.1645 3.96882 15.219 4.00491 15.3799 4.00313C16.1511 3.99466 16.9222 3.99422 17.6938 4.0009C18.3497 4.00625 18.8072 4.3645 18.9532 4.96915C19.1694 5.86344 18.6182 6.63251 17.7381 6.66549C17.724 6.66593 17.71 6.66638 17.6955 6.66638C17.0657 6.66638 16.4362 6.66638 15.8063 6.66638Z" fill="white"/>
<path d="M12.6425 12.6675C12.6425 11.9715 12.619 11.2742 12.6488 10.5795C12.6808 9.82469 13.1625 9.34658 13.8843 9.33856C15.1722 9.32475 16.46 9.32653 17.7475 9.33856C18.3837 9.34435 18.8553 9.75607 18.9693 10.3572C19.0936 11.0122 18.82 11.6195 18.2824 11.8806C18.079 11.9795 17.8615 12.0009 17.6411 12.0009C16.8912 12.0009 16.1408 12.0067 15.3909 11.9965C15.2203 11.9942 15.1645 12.0299 15.1662 12.2224C15.1739 13.0815 15.179 13.941 15.1556 14.7992C15.1369 15.4974 14.6159 15.9858 13.9269 16C13.2455 16.0138 12.7169 15.5366 12.6488 14.8446C12.6425 14.7782 12.6335 14.7118 12.6335 14.6455C12.6322 13.9864 12.6327 13.327 12.6327 12.668H12.6425V12.6675Z" fill="white"/>
<path d="M6.35636 3.33123C6.35636 4.03436 6.37254 4.73838 6.35168 5.44106C6.33168 6.1237 5.87672 6.59646 5.22896 6.65706C5.17279 6.66241 5.11618 6.66597 5.05958 6.66597C3.80748 6.66642 2.55538 6.66731 1.30371 6.66597C0.157581 6.66463 -0.252692 5.49676 0.1712 4.65595C0.408256 4.18496 0.821083 4.00005 1.3169 3.9996C2.07361 3.99916 2.83074 3.99247 3.58745 4.00406C3.77684 4.00673 3.83387 3.96128 3.83216 3.75364C3.8245 2.895 3.81642 2.03547 3.84876 1.17817C3.87345 0.516032 4.35309 0.0566357 4.99361 0.00539364C5.64562 -0.0467396 6.18527 0.342255 6.32615 0.980775C6.36062 1.13717 6.36275 1.30382 6.36402 1.46557C6.36828 2.0876 6.36573 2.70964 6.36573 3.33167H6.35636V3.33123Z" fill="white"/>
<path d="M6.35467 12.6693C6.35467 13.38 6.37084 14.0911 6.34999 14.8014C6.32956 15.4983 5.80906 15.9867 5.12002 16.0005C4.43864 16.0138 3.89431 15.5375 3.84707 14.8442C3.79174 14.0314 3.8343 13.216 3.82664 12.4019C3.82281 12.0014 3.82579 12.0014 3.43807 12.0014C2.70945 12.0014 1.98083 12.008 1.25222 11.9973C0.73512 11.9898 0.326549 11.7527 0.124392 11.2452C-0.0786164 10.7355 -0.0428665 10.2266 0.306121 9.78414C0.572543 9.44639 0.936426 9.33143 1.34585 9.33321C2.2796 9.33677 3.21336 9.33454 4.14711 9.33454C4.45822 9.33454 4.76975 9.3292 5.08086 9.33588C5.84906 9.35192 6.33041 9.82469 6.35637 10.6267C6.3785 11.3071 6.36105 11.9889 6.36105 12.6702H6.35467V12.6693Z" fill="white"/>
</svg>
