<svg width="14" height="15" viewBox="0 0 14 15" xmlns="http://www.w3.org/2000/svg">
<path d="M6.19326 14.4845C4.68011 14.288 3.42786 13.6214 2.43651 12.4847C1.44514 11.348 0.949463 10.0164 0.949463 8.4898C0.949463 7.66961 1.11133 6.88382 1.43506 6.13242C1.75879 5.38102 2.21232 4.7209 2.79565 4.15204L3.65822 5.01462C3.1628 5.4666 2.78917 5.99124 2.53733 6.58853C2.28548 7.18583 2.15955 7.81959 2.15955 8.4898C2.15955 9.67302 2.53732 10.7158 3.29286 11.6182C4.04842 12.5207 5.01521 13.0727 6.19326 13.2744V14.4845ZM7.80674 14.5V13.2899C8.97134 13.0541 9.93477 12.4896 10.6971 11.5965C11.4593 10.7034 11.8404 9.66784 11.8404 8.4898C11.8404 7.14523 11.3698 6.00235 10.4286 5.06115C9.48745 4.11995 8.34457 3.64935 7 3.64935H6.71451L7.80363 4.73847L6.95347 5.58864L4.40915 3.04432L6.95347 0.5L7.80363 1.35016L6.71451 2.43926H7C8.68794 2.43926 10.1183 3.0257 11.2912 4.19858C12.4641 5.37145 13.0505 6.80186 13.0505 8.4898C13.0505 10.0081 12.5536 11.333 11.5596 12.4645C10.5657 13.596 9.31471 14.2745 7.80674 14.5Z" />
</svg>
