<?xml version="1.0" encoding="UTF-8"?><svg xmlns="http://www.w3.org/2000/svg" viewBox="0 0 400 400"><defs><style>.d{fill:#030404;}.e{fill:#fff;opacity:0;}</style></defs><g id="a"/><g id="b"><g id="c"><g><rect class="e" width="400" height="400"/><g><path class="d" d="M221.91,342.72h-7.11c-1.13-.15-1.59-.92-1.79-1.93-.12-.59-.07-1.18-.07-1.78,0-24.43,0-48.85,0-73.28,0-2.14-.33-4.27-.2-6.42,.28-4.48,.08-8.96,.24-13.44,.08-2.17,.16-4.34,.14-6.52-.07-7.05-1.55-13.79-4.42-20.23-2.67-5.99-6.4-11.27-10.8-16.1-5.15-5.66-10.79-10.81-16.55-15.83-4.82-4.19-9.67-8.34-14.36-12.69-3.58-3.32-7.05-6.74-10.38-10.29-6.33-6.73-12.08-13.94-16.81-21.91-3.35-5.65-5.73-11.71-7.5-18.02-2.33-8.34-3.58-16.88-4.56-25.47-.58-5.07-.99-10.16-1.32-15.25-.25-3.93-.42-7.88-.33-11.82l-.02-2.12c-.07-2.37-.19-4.68-.25-7.09,0-.18,0-.37,0-.56l.12-3.21c.04-.17,.06-.31,.14-.52,.17-.72,.64-1.08,1.36-1.11,.15,0,.31,0,.46,0,.16,0,.32,0,.48,0,.56,0,1.12,0,1.68,0,.65,0,1.29,0,1.93,0,.72,0,1.44,0,2.16,0,.79,0,1.58,0,2.37,0,.92,0,1.85,0,2.77,0,1.12,0,2.24,0,3.37,0,1.65,0,3.3,0,4.95,0,4.39,0,8.78,0,13.17,0,1.58,0,3.17,0,4.75,0,1.12,0,2.24,0,3.36,0,.92,0,1.84,0,2.77,0,.73,0,1.46,0,2.19,0,.72,0,1.44,0,2.17,0,.59,0,1.19,0,1.78,0,.87,0,1.74,0,2.61,0,.16,0,.33,0,.49,0,.93,.08,1.39,.65,1.59,1.5,.07,.32,.14,.65,.13,.98-.11,3.23,.18,6.45,.21,9.68,.04,4.58,.29,9.14,.57,13.71,.38,6.19,.99,12.34,2.17,18.43,1.4,7.19,4.68,13.44,9.51,18.93,3.03,3.44,6.23,6.71,9.54,9.87,3.76,3.59,7.68,7.01,11.62,10.41,3.94,3.4,7.88,6.79,11.77,10.24,2.89,2.55,5.65,5.24,8.39,7.94,2.29,2.26,4.55,4.57,6.68,7,3.23,3.7,6.37,7.47,9.27,11.43,6.86,9.37,12.25,19.51,16.13,30.46,2.49,7.04,4.3,14.25,5.29,21.65,.27,2.03,.38,4.09,.37,6.14,0,.39,0,.78,0,1.17,0,.22,0,.44,0,.66,0,.51,0,1.02,0,1.52,0,.35,0,.7,0,1.06,0,1.21,0,2.42,0,3.64,0,.72,0,1.45,0,2.17,0,.42,0,.85,0,1.27,0,.86,0,1.71,0,2.57,0,1.5,0,2.99,0,4.49,0,1.12,0,2.24,0,3.36,0,.68,0,1.37,0,2.05,0,1.58,0,3.15,0,4.73,0,2.24,0,4.49,0,6.73,0,8.88,0,17.77,0,26.65,0,3.04,0,6.07,0,9.11,0,2.3,0,4.6,0,6.9,0,1.13,0,2.26,0,3.39,0,1.06,0,2.12,0,3.18,0,1.06,0,2.13,0,3.19,0,2.03,0,4.07,0,6.1,0,2.09,0,4.19,0,6.28,0,1.53,0,3.05,0,4.58,0,.17,0,.34,0,.51-.08,1.71-.57,1.98-3.15,2-2.02-.1-3.37-.04-5.39-.14-.82-.01-1.9-.05-2.78-.06-2.33-.02-4.65,0-6.98,0-8.08,0-16.15,0-24.23,0-2.92,0-5.85,0-8.77,0-.32,0-.66-.09-.96,.1Z"/><path class="d" d="M273.63,195.15c-.91-1.49-1.72-2.84-2.55-4.19-3.99-6.51-8.14-12.92-12.59-19.13-8.2-11.45-17.78-21.6-28.6-30.59-2.53-2.1-5.11-4.16-7.72-6.16-.24-.18-.47-.36-.7-.55-1.3-1.08-1.92-2.48-1.93-4.15-.01-1.88,0-3.76,0-5.64,0-13.78,.01-27.56,.01-41.34,0-4.45-.02-8.9-.03-13.35,0-.56,0-1.12,.18-1.66,.21-.65,.63-1.06,1.29-1.22,.51-.12,1.03-.18,1.57-.18,3.46,.02,6.91,.04,10.37,.06,2.14,.01,4.28,.04,6.42,.04,5.27,0,10.54,.01,15.8,0,5.2-.01,10.4-.05,15.61-.08,.56,0,1.12,.03,1.67,.14,.65,.13,1.05,.52,1.23,1.14,.16,.51,.19,1.03,.18,1.56,0,2.08,0,4.15,0,6.23-.01,9.3-.02,18.59-.04,27.89,0,5.7-.02,11.41-.02,17.11,0,24.29-.01,48.59-.03,72.88,0,.35,.08,.71-.14,1.2Z"/></g></g></g></g></svg>