<svg width="43" height="49" viewBox="0 0 43 49" fill="none" xmlns="http://www.w3.org/2000/svg">
<path d="M13.2812 18.375V18.875H13.7812H29.0938H29.5938V18.375V13.7812C29.5938 9.27503 25.9437 5.625 21.4375 5.625C16.9313 5.625 13.2812 9.27503 13.2812 13.7812V18.375ZM7.65625 18.875H8.15625V18.375V13.7812C8.15625 6.44899 14.1052 0.5 21.4375 0.5C28.7698 0.5 34.7188 6.44899 34.7188 13.7812V18.375V18.875H35.2188H36.75C39.8522 18.875 42.375 21.3978 42.375 24.5V42.875C42.375 45.9772 39.8522 48.5 36.75 48.5H6.125C3.02282 48.5 0.5 45.9772 0.5 42.875V24.5C0.5 21.3978 3.02282 18.875 6.125 18.875H7.65625Z" fill="#274156" stroke="black"/>
</svg>
