<?xml version="1.0" encoding="UTF-8"?><svg xmlns="http://www.w3.org/2000/svg" viewBox="0 0 419.6 479.77"><defs></defs><g id="a"/><g id="b"><g id="c"><g id="d"><g><path class="f" d="M209.55,150.12c-68.91,0-137.83-.01-206.74,.06-2.29,0-2.82-.59-2.8-2.83,.11-13.48-.03-26.97,.08-40.45,.1-11.86,3.65-22.6,11.5-31.63,6.68-7.68,15.39-11.95,25.23-14.04,4-.85,8.07-1.04,12.16-1.02,12.9,.05,25.8-.02,38.7,.06,1.85,.01,2.34-.41,2.32-2.3-.1-9.65-.19-19.31,.02-28.97,.22-10.03,4.3-18.32,12.81-23.8,10.19-6.56,21.15-6.81,31.79-1.4,9.83,5,14.77,13.72,15.15,24.67,.34,9.81,.15,19.64,.06,29.46-.02,1.84,.39,2.33,2.29,2.32,38.45-.06,76.9-.06,115.36,0,1.88,0,2.32-.46,2.3-2.32-.09-9.65-.19-19.31,.02-28.97,.22-10.03,4.31-18.32,12.83-23.79,10.2-6.55,21.16-6.8,31.79-1.38,9.82,5,14.76,13.73,15.13,24.68,.33,9.81,.15,19.64,.06,29.46-.02,1.88,.45,2.32,2.31,2.3,13.82-.09,27.63-.12,41.45-.02,11.26,.08,21.45,3.56,30.19,10.67,8.34,6.79,12.84,15.93,14.98,26.31,.85,4.09,1.04,8.24,1.02,12.41-.05,12.65-.07,25.31,.03,37.96,.02,2.06-.46,2.57-2.55,2.57-69.16-.06-138.33-.05-207.49-.05Z"/><path class="e" d="M416.72,180.05c-68.9,.05-137.81,.04-206.71,.04s-137.97,.02-206.96-.07C.51,180.02,0,180.66,0,183.12c.07,82.39,.07,164.79,.04,247.18,0,4.17,.21,8.31,1.01,12.41,1.87,9.55,5.91,18.07,13.09,24.68,9.34,8.59,20.67,12.37,33.3,12.37,107.85,0,215.7,0,323.55,.01,2.92,0,5.83-.07,8.71-.49,10.5-1.54,19.92-5.58,27.23-13.34,8.64-9.16,12.57-20.45,12.58-32.97,.05-83.39,.01-166.79,.09-250.18,0-2.4-.75-2.74-2.88-2.74Zm-116.99,75.27c.15-9.39,5.99-15.14,15.45-15.27,9.65-.13,19.3-.13,28.95,0,9.54,.13,15.35,5.97,15.46,15.52,.12,9.57,.09,19.14,0,28.7-.08,9.63-5.98,15.51-15.6,15.67-4.82,.08-9.65,.01-15.54,.01-4.58-.27-10.27,.56-15.88-.35-8.33-1.36-12.71-6.34-12.85-14.84-.17-9.81-.16-19.64,0-29.45Zm-239.69-.19c.19-9.29,6.02-14.94,15.37-15.07,9.65-.14,19.3-.12,28.95,0,9.55,.12,15.39,5.92,15.52,15.46,.13,9.65,.12,19.3,0,28.95-.11,9.49-6.01,15.31-15.53,15.48-4.82,.09-9.65,.02-15.54,.02-4.58-.26-10.27,.56-15.87-.34-8.37-1.35-12.75-6.29-12.91-14.78-.18-9.9-.2-19.8,0-29.7Zm59.84,149.39c-.14,9.42-6.14,15.17-15.7,15.3-4.82,.07-9.65,.01-15.52,.01-4.59-.29-10.28,.57-15.89-.38-8.13-1.37-12.57-6.38-12.73-14.67-.18-9.9-.19-19.8,0-29.7,.17-9.29,5.96-14.99,15.31-15.14,9.73-.16,19.47-.16,29.2,0,9.44,.15,15.2,5.95,15.34,15.38,.14,9.73,.14,19.47,0,29.2Zm119.86-.16c-.11,9.37-5.9,15.26-15.3,15.43-9.73,.17-19.47,.16-29.2,0-9.5-.15-15.26-6.09-15.38-15.61-.06-4.83-.01-9.65-.01-15.52,.2-4.53-.53-10.13,.3-15.66,1.28-8.44,6.33-12.91,14.9-13.07,9.81-.19,19.64-.19,29.45,0,9.43,.17,15.13,6.01,15.25,15.47,.12,9.65,.12,19.3,0,28.96Zm0-119.86c-.12,9.48-6.04,15.28-15.57,15.44-4.82,.08-9.65,.01-15.54,.01-4.58-.26-10.27,.56-15.87-.35-8.35-1.35-12.73-6.32-12.87-14.82-.17-9.9-.21-19.8,.01-29.7,.2-9.28,6.05-14.91,15.41-15.04,9.65-.13,19.3-.13,28.95,0,9.55,.12,15.36,5.95,15.48,15.5,.12,9.65,.12,19.3,0,28.95Zm119.83,120.17c-.17,9.23-6.02,14.98-15.34,15.12-9.73,.15-19.47,.16-29.2,0-9.5-.16-15.21-6.12-15.33-15.66-.06-4.74-.01-9.49-.01-15.29,.22-4.59-.54-10.28,.31-15.88,1.28-8.41,6.37-12.87,14.94-13.02,9.81-.17,19.64-.19,29.45,0,9.33,.19,15.02,5.94,15.18,15.27,.16,9.82,.17,19.64,0,29.45Z"/></g></g></g></g></svg>