<?xml version="1.0" encoding="UTF-8"?><svg xmlns="http://www.w3.org/2000/svg" viewBox="0 0 599.16 479.28"><defs></defs><g id="a"/><g id="b"><g id="c"><g id="d"><g><path class="e" d="M188.64,.18c3.86-.21,7.72-.25,11.58-.07,35.7,1.58,68.91,9.13,99.61,26.12,26.11,14.45,48.54,33.33,65.24,58.35,10.78,16.14,17.77,33.91,21.49,53.02,6.14,31.5,1.63,61.52-12.01,90.32-11.07,23.36-27.97,41.91-48.2,57.67-24.91,19.41-52.93,31.94-83.77,38.47-15.69,3.33-31.55,5.17-47.52,5.31-14.31,.13-28.56-1.52-42.67-4.08-18.75-3.41-36.73-9.21-53.94-17.37-1.5-.71-2.66-.65-4.1,.12-14.1,7.6-28.77,13.75-44.49,17.18-11.16,2.44-22.47,3.72-33.87,4.22-6.48,.28-12.76-3.96-15.02-9.96-2.09-5.56-.64-12.78,3.81-16.26,7.84-6.13,14.37-13.44,20.56-21.14,4.83-6.02,8.37-12.77,11.52-19.76,.64-1.41-.25-1.98-.89-2.75-6.53-7.79-12.48-15.99-17.49-24.86-9.11-16.11-14.63-33.37-17.22-51.69-3.18-22.57-.14-44.47,6.97-65.85,5.56-16.71,14.16-31.91,25.59-45.36C58.46,42.81,89.02,22.55,125.21,10.95,145.08,4.58,165.55,1.05,186.44,.29c.74-.03,1.48-.06,2.19-.1Z"/><path class="f" d="M217.27,358.57c9.58-1.14,19.05-2.45,28.41-4.36,37.17-7.56,71.08-22.32,101.03-45.82,24.09-18.9,43.41-41.66,56.14-69.65,7.58-16.67,12.45-34.15,14.7-52.36,1.04-8.43,1.99-16.86,1.84-25.36-.06-3.24-.34-6.48-.64-9.71-.1-1.12-.15-1.67,1.29-1.52,28.15,2.89,55.49,8.91,81.03,21.5,22.53,11.1,42.48,25.72,59.27,44.56,13.73,15.41,24.26,32.68,30.9,52.23,4.21,12.41,6.68,25.2,7.59,38.28,1.56,22.34-2.6,43.73-11.18,64.25-5.58,13.34-13.17,25.59-22.73,36.48-2.59,2.95-2.75,5.11-.96,8.55,6.16,11.86,13.9,22.44,23.72,31.52,2.63,2.43,5.21,4.92,7.65,7.54,3.8,4.09,4.67,9.12,3.01,14.18-1.73,5.26-5.57,8.86-11.22,9.91-6.06,1.12-12.11,.05-18.12-.56-13.78-1.4-27.23-4.36-40.21-9.27-8.25-3.12-16.17-6.97-23.94-11.13-1.37-.73-2.43-.79-3.88-.11-16.46,7.77-33.61,13.57-51.49,16.92-22.25,4.17-44.64,5.76-67.29,3.41-24.44-2.53-48.01-8.17-70.24-18.69-32.36-15.32-59.82-36.57-79.09-67.31-6.55-10.45-11.62-21.65-15.58-33.48Z"/></g></g></g></g></svg>