<?xml version="1.0" encoding="UTF-8"?><svg xmlns="http://www.w3.org/2000/svg" viewBox="0 0 479.06 479.42"><defs></defs><g id="a"/><g id="b"><g id="c"><path class="d" d="M239.72,0C109.85-.13,.07,103.37,0,239.61c-.07,135.6,109.01,239.36,239.34,239.81,129.73-.18,239.64-103.29,239.72-239.68C479.15,104.28,370.19,.14,239.72,0Zm85.79,314.19c-2.93,7.12-7.55,12.92-13.62,17.49-4.18,3.14-8.58,6.04-13.12,8.63-16.41,9.33-25.88,23.38-29.17,41.84-3.06,17.14-12.73,29.12-28.71,35.89-9.05,3.84-17.51,2.18-24.85-4.11-4.92-4.21-6.41-10.14-6.47-16.43-.05-5.83-.01-11.65-.01-18.8-.31-6.15,.62-13.67-.49-21.11-1.17-7.76-4.85-14.07-11.4-18.54-4.24-2.89-8.88-5.17-12.09-9.46-4.06-5.41-5.93-11.46-5.97-18.12-.06-11.57,.11-23.14-.06-34.71-.11-7.23-1.76-14.16-5.48-20.49-5.28-8.97-13.42-14.14-23.11-17.03-18.15-5.43-36.37-10.63-54.53-16.06-15.29-4.57-26.36-14.39-34.2-28.08-2.44-4.25-4.82-8.53-7.26-12.78-.56-.97-.79-1.8-.38-3,6.74-19.81,15.94-38.35,28.39-55.21,12.97-17.54,28.44-32.52,46.34-45,22.58-15.74,47.41-25.93,74.5-30.76,13.72-2.45,27.54-3.34,41.45-3.59,3.78-.07,5.41,1.77,6.73,4.53,5.98,12.49,4.23,23.98-4.46,34.63-5.52,6.76-11.75,12.96-16.54,20.3-6.72,10.29-6.51,20.79-.46,31.29,3.9,6.77,9.68,12.04,14.7,17.91,7.31,8.56,6.05,20.91-3.14,27.35-5.14,3.6-10.87,3.17-16.54,1.53-7.58-2.19-15.08-4.66-22.66-6.82-10.59-3.03-24.9,2.34-31.05,11.49-5.02,7.47-3.09,19.93,4.54,24.8,12.18,7.78,24.56,15.29,37.45,21.87,8.69,4.44,18.11,5.96,27.77,6.02,11.9,.07,23.81,.32,35.7-.06,16.13-.52,28.93,5.69,39.62,17.49,8.36,9.22,12.45,19.81,12.52,32.17,.05,8.55-.65,16.91-3.95,24.94Zm105.09-48.76c-8.94-2.59-17.93-5.04-26.89-7.55-10.52-2.95-17-10.02-20.3-20.18-4.84-14.86-9.59-29.75-14.29-44.65-2.87-9.09-2.93-17.99,2.17-26.47,3.48-5.79,8.44-9.78,14.66-12.22,7.43-2.91,14.92-5.69,22.33-8.64,1.47-.58,1.94-.14,2.61,1.09,11.77,21.59,18.68,44.71,21.74,69.02,1.02,8.09,1.46,16.24,1.68,24.05-.2,8.25-.72,16.14-1.6,24-.16,1.43-.43,2.02-2.12,1.53Z"/></g></g></svg>