<svg width="42" height="36" viewBox="0 0 42 36"  xmlns="http://www.w3.org/2000/svg">
<path d="M41.8312 8.80896C41.5566 7.306 40.9617 5.92957 40.1539 4.63878C39.2505 3.19523 38.0522 2.07109 36.5423 1.28566C35.2469 0.611334 33.8659 0.226335 32.413 0.0751126C30.9186 -0.0807388 29.4411 0.00876001 27.9736 0.317377C26.5902 0.608248 25.3311 1.17302 24.19 2.00937C23.0157 2.87041 21.9972 3.88653 21.1115 5.03921C21.0174 5.16111 20.9788 5.16266 20.8847 5.03921C20.232 4.18434 19.5036 3.39814 18.6866 2.69758C17.689 1.84194 16.5941 1.14138 15.3388 0.725522C13.9207 0.254882 12.4587 0.045794 10.3786 0.0419363C9.78529 0.0419363 8.62412 0.196245 7.48686 0.511805C6.00628 0.923036 4.66534 1.60585 3.51574 2.6374C2.24501 3.77697 1.38937 5.20123 0.755938 6.7636C0.160308 8.22953 -0.0765551 9.75873 0.0214306 11.3419C0.0839254 12.3526 0.260608 13.3387 0.55148 14.307C1.23584 16.583 2.43018 18.5882 3.84133 20.4762C5.00096 22.0278 6.32878 23.4343 7.66586 24.83C10.0175 27.2843 12.4633 29.6398 15.0912 31.8024C16.8487 33.2491 18.6634 34.6124 20.6308 35.7658C20.8885 35.9171 21.0799 35.9032 21.3167 35.7635C22.2241 35.2281 23.1137 34.6641 23.9678 34.0476C26.6867 32.0856 29.2011 29.8821 31.6083 27.5536C33.2247 25.9904 34.7886 24.3771 36.2993 22.7114C37.4875 21.4005 38.5792 20.0156 39.5058 18.5049C40.7742 16.4364 41.7047 14.2445 41.9447 11.801C42.0434 10.7988 42.0126 9.80039 41.8312 8.8105V8.80896ZM39.1926 14.8656C39.0661 15.5684 38.465 16.0969 37.7483 16.1039C37.1804 16.1093 36.7283 15.8655 36.432 15.3748C36.3572 15.2506 36.2808 15.2151 36.1435 15.2158C34.21 15.2266 32.2765 15.232 30.3438 15.239C29.8045 15.2413 29.6301 15.1171 29.4511 14.6055C29.1348 13.7044 28.8169 12.804 28.4844 11.8604C28.3455 12.4167 28.2159 12.9313 28.0878 13.4459C27.5084 15.7652 26.9305 18.0844 26.3495 20.4037C26.2014 20.9962 25.6297 21.2107 25.1853 20.8481C25.0911 20.7717 25.0441 20.6668 24.9939 20.5634C24.3543 19.2271 23.7155 17.8892 23.0759 16.5521C23.0458 16.4897 23.0134 16.4279 22.9632 16.3276C22.8938 16.583 22.8328 16.8029 22.775 17.0236C21.9648 20.1275 21.1555 23.2314 20.3461 26.3353C20.2744 26.6115 20.1401 26.8322 19.8439 26.9116C19.5245 26.9973 19.2274 26.88 19.0831 26.5845C18.874 26.1578 18.7352 25.7019 18.5685 25.2575C17.108 21.365 15.6505 17.4718 14.1923 13.5786C14.1684 13.5154 14.1399 13.4536 14.0959 13.3487C13.9624 13.7738 13.8405 14.1542 13.7225 14.5369C13.2402 16.0923 12.7603 17.6485 12.2774 19.2039C12.1362 19.6584 11.9171 19.8173 11.4464 19.8173C10.1749 19.8173 8.90264 19.8189 7.63114 19.815C7.50693 19.815 7.42128 19.8451 7.33564 19.9469C6.92132 20.4407 6.22848 20.5958 5.61742 20.3458C5.05188 20.1136 4.6692 19.5064 4.70006 18.8899C4.73246 18.2434 5.18381 17.6794 5.8049 17.5089C6.42445 17.3391 7.11035 17.5714 7.43826 18.1191C7.57791 18.3522 7.72681 18.4 7.97139 18.3961C8.94122 18.383 9.91105 18.3876 10.8809 18.3938C11.0198 18.3946 11.0815 18.3537 11.1231 18.2187C11.8445 15.8863 12.5713 13.5563 13.2973 11.2254C13.349 11.0611 13.3868 10.889 13.5041 10.7532C13.8768 10.3212 14.4832 10.4331 14.71 10.9824C14.842 11.3026 14.9554 11.6305 15.0765 11.9553C16.537 15.8554 17.9976 19.7556 19.4589 23.6565C19.4874 23.7329 19.5183 23.8077 19.5707 23.9412C19.6818 23.5238 19.7798 23.1635 19.874 22.8016C20.62 19.9361 21.3654 17.0699 22.1122 14.2043C22.2457 13.6913 22.6793 13.4737 23.126 13.6874C23.315 13.7777 23.4007 13.9513 23.484 14.1249C24.1213 15.4627 24.7563 16.8014 25.392 18.14C25.4082 18.1747 25.4252 18.2086 25.4684 18.2958C25.605 17.7473 25.7292 17.2512 25.8526 16.7551C26.4598 14.3147 27.067 11.8751 27.675 9.43468C27.8069 8.90617 28.1657 8.67163 28.6101 8.81668C28.8454 8.89306 28.9743 9.06665 29.0522 9.28886C29.5684 10.7586 30.0869 12.2277 30.5976 13.699C30.6532 13.8595 30.7203 13.922 30.9039 13.922C32.6576 13.9158 34.4106 13.922 36.1643 13.9297C36.3001 13.9297 36.3819 13.8957 36.4598 13.7761C36.8548 13.1682 37.6055 12.9359 38.2714 13.2029C38.9387 13.4691 39.3191 14.1573 39.1918 14.8656H39.1926Z" />
</svg>
