<?xml version="1.0" encoding="UTF-8"?><svg xmlns="http://www.w3.org/2000/svg" viewBox="0 0 599 479.58"><defs></defs><g id="a"/><g id="b"><g id="c"><g id="d"><g><path class="e" d="M354.18,359.87c-6.99,0-13.99-.03-20.98,.03-1.38,.01-1.87-.21-1.61-1.77,3.51-21.11,10.44-40.94,21.65-59.25,11.94-19.51,24.82-38.36,38.59-56.64,11.29-14.98,20.12-31.32,24.11-49.85,8.89-41.37-.26-78.25-28.75-109.69-17.85-19.7-40.52-31.07-66.7-35.56-24.28-4.17-47.86-1.62-70.26,8.47-36.13,16.26-58.68,44.11-67.48,82.69-6.98,30.58-1.99,59.6,13.25,86.89,6.67,11.94,15.39,22.48,23.49,33.45,12.25,16.6,23.65,33.78,32.94,52.22,7.51,14.92,12.43,30.75,15.02,47.28,.25,1.57-.25,1.77-1.62,1.76-14.07-.04-28.14-.05-42.21,0-1.44,0-1.97-.38-2.23-1.83-2.88-16.33-10.24-30.72-19.01-44.59-11.53-18.22-24.68-35.28-37.23-52.77-14.13-19.69-23.24-41.48-27.51-65.32-2.77-15.49-3.69-31.03-1.92-46.71,3.58-31.69,14.32-60.5,34.64-85.35,16.15-19.75,35.17-36.04,58.41-47,16.51-7.79,33.89-12.49,52.01-14.75,24.58-3.06,48.45,.05,71.82,7.67,28.24,9.21,51.39,26.05,71.01,48.06,19.02,21.33,31.34,46.04,36.92,74.01,9.17,45.93,.99,88.52-25.29,127.42-3.9,5.78-8.62,11.01-12.57,16.77-12.89,18.8-26.97,36.86-36.99,57.5-3.86,7.96-6.4,16.37-8.04,25.05-.28,1.47-.8,1.84-2.23,1.83-7.08-.07-14.15-.03-21.23-.03Z"/><path class="f" d="M299.54,389.84c24.14,0,48.27,.03,72.41-.05,2.09,0,2.57,.5,2.56,2.57-.03,9.65,.1,19.3-2.03,28.8-3.67,16.38-11.37,30.42-24.38,41.25-10.65,8.87-23.02,14.18-36.66,16.24-20.09,3.03-38.64-1.3-55.51-12.6-15.07-10.1-23.97-24.5-28.64-41.78-2.95-10.9-2.78-22.05-2.72-33.2,0-1.02,.39-1.31,1.32-1.23,.58,.05,1.16,0,1.75,0,23.97,0,47.94,0,71.91,0Z"/><path class="f" d="M52.22,150.08c9.57,0,19.15-.17,28.72,.06,7.4,.17,14.12,2.38,18.82,8.59,9.97,13.15,3.2,32.77-13.03,35.49-2.71,.46-5.39,.85-8.16,.84-18.23-.04-36.46,.06-54.69-.07-5.81-.04-11.4-1.39-16.02-5.26C2.17,184.96-.45,178.56,.06,171.4c.66-9.19,5.07-16.23,14.18-19.55,3.31-1.21,6.73-1.78,10.26-1.77,9.24,.02,18.48,0,27.72,0Z"/><path class="f" d="M546.8,150.08c9.57,0,19.15-.17,28.72,.06,7.4,.18,14.12,2.38,18.82,8.59,9.97,13.15,3.19,32.77-13.03,35.49-2.71,.45-5.39,.85-8.16,.84-18.23-.04-36.46,.06-54.69-.07-5.81-.04-11.4-1.39-16.02-5.26-5.69-4.77-8.31-11.16-7.8-18.32,.66-9.19,5.07-16.23,14.18-19.55,3.31-1.2,6.73-1.78,10.26-1.77,9.24,.02,18.48,0,27.72,0Z"/><path class="f" d="M501.06,75.22c-9.43,.03-18.77-7.94-21.17-18.06-2.12-8.96,1.28-17.34,10.1-23.35,14.69-10.02,29.47-19.93,44.41-29.56,7.16-4.62,15.05-6.07,22.83-1.31,8.02,4.91,12.48,12.14,12.04,21.75-.35,7.63-4.97,13-10.87,17.04-14.53,9.96-29.24,19.66-43.95,29.35-4,2.64-8.5,4.13-13.38,4.14Z"/><path class="f" d="M51.34,344.95c-9.41,0-18.72-8.02-21.08-18.16-2.08-8.95,1.38-17.31,10.2-23.31,14.63-9.96,29.32-19.84,44.2-29.43,7.13-4.6,14.98-6.21,22.82-1.44,8.14,4.95,12.65,12.21,12.17,21.92-.38,7.62-5.04,12.96-10.95,17-14.47,9.9-29.11,19.56-43.74,29.21-4.08,2.69-8.64,4.22-13.61,4.22Z"/><path class="f" d="M119.32,50.43c-.23,11.31-4.5,17.96-12.41,22.11-7.74,4.06-15.52,2.85-22.52-1.65-14.68-9.44-29.16-19.2-43.61-29.01-10.76-7.31-13.91-19.09-7.52-30.4C38.4,2.41,49.28-2.41,60.95,2.42c2.07,.86,4.03,1.92,5.91,3.18,13.74,9.21,27.59,18.27,41.26,27.59,6.78,4.62,11.15,10.88,11.21,17.24Z"/><path class="f" d="M568.9,322.4c-.2,9.08-4.47,15.72-12.39,19.87-7.74,4.06-15.52,2.85-22.52-1.66-14.68-9.45-29.15-19.22-43.61-29.01-9.29-6.29-12.6-16.49-9.44-26.37,3.18-9.93,16.02-19.01,29.62-13.09,2.06,.9,4.03,1.93,5.91,3.18,13.75,9.21,27.53,18.36,41.28,27.55,7.1,4.75,11.32,12.19,11.15,19.52Z"/></g></g></g></g></svg>