<?xml version="1.0" encoding="UTF-8"?><svg xmlns="http://www.w3.org/2000/svg" viewBox="0 0 479.61 475.6"><defs></defs><g id="a"/><g id="b"><g id="c"><g><path class="d" d="M449.58,220.75c0-9.65-.07-19.29,.03-28.94,.05-5.18,1.41-9.94,5.98-13.02,5.18-3.49,10.73-3.77,16.29-1.02,5.46,2.7,7.57,7.65,7.61,13.34,.14,19.79,.16,39.58,0,59.37-.05,6.3-2.56,11.51-8.89,14-6.12,2.4-12.91,1.07-17.02-3.32-3.02-3.22-3.96-7.23-3.98-11.48-.05-9.65-.02-19.29-.02-28.94Z"/><path class="d" d="M419.61,220.83c0-58.85,0-117.71,0-176.56,0-3.66,.05-7.31-.46-10.96-1.66-11.69-6.4-21.49-16.96-27.63-7.75-4.51-16.02-6.74-25.09-5.18-9.14,1.57-16.62,6.13-23.01,12.6-6.96,7.05-13.76,14.25-20.62,21.4-10.56,11.02-21.87,21.19-34.08,30.36-22.97,17.25-48.2,30.05-75.7,38.31-16.52,4.96-33.34,8.45-50.54,9.92-17.16,1.47-34.31,3.05-51.57,2.9-19.48-.16-38.96-.03-58.44-.05-4.09,0-8.13,.37-12.17,1.01-15.42,2.42-27.92,9.96-37.69,21.96C4.22,150.04,.18,163.12,.09,177.32c-.17,28.39-.04,56.77-.06,85.16,0,4.17,.32,8.31,1.03,12.41,3.25,18.97,13.34,33.2,29.89,42.9,8.2,4.8,17.18,7.05,26.58,7.66,2.01,.13,2.51,.75,2.51,2.77-.08,30.47-.05,60.94-.06,91.4,0,5,.39,9.96,1.51,14.85,4.82,20.97,17.58,34.1,38.5,39.35,7.69,1.93,15.5,1.67,23.31,1.76,8.16,.1,16.11-1.02,23.71-3.98,9.82-3.83,18.13-9.61,23.84-18.8,6.05-9.74,8.95-20.33,8.99-31.71,.08-20.23,.02-40.46,.02-60.69,0-9.91,.05-19.81-.04-29.72-.02-1.91,.57-2.26,2.27-1.8,1.44,.39,2.93,.57,4.41,.8,20.06,3,39.46,8.36,58.24,16.03,20.14,8.23,38.72,19.14,56.07,32.21,13.47,10.15,25.5,21.87,37.22,33.95,6.77,6.98,12.95,14.57,20.58,20.69,8.91,7.15,18.9,10.68,30.42,8.47,8.85-1.7,16.45-5.72,22.18-12.83,6-7.45,8.35-16.25,8.37-25.59,.1-60.6,.05-121.2,.05-181.81Zm-269.73,124.59c0,25.39,.03,50.77-.02,76.16-.01,5.51-1.42,10.7-4.67,15.24-4.29,5.98-10.65,8.21-17.51,8.64-6.11,.38-12.29,.54-18.43-.33-10.05-1.42-17.43-8.77-18.84-18.81-.35-2.49-.47-4.96-.47-7.45,.01-14.57,0-29.13,0-43.7,0-15.73,.04-31.46-.05-47.19-.01-1.89,.47-2.31,2.32-2.3,13.98,.09,27.97-.03,41.95,.09,4.73,.04,9.46,.64,14.2,.84,1.45,.06,1.54,.7,1.54,1.83-.04,5.66-.02,11.32-.02,16.98Zm27.27-46.99c-11.36-.91-22.73-1.65-34.12-2.15-27.28-1.2-54.58-.25-81.88-.52-7.32-.07-14.22-1.49-20.11-6.16-7.83-6.2-11-14.55-11.04-24.3-.03-7.66,0-15.31,0-22.97,0-21.81,0-43.61,0-65.42,0-9.91,3.05-18.42,11.05-24.8,5.76-4.6,12.44-6.13,19.58-6.19,9.07-.07,18.14-.02,27.22-.02,13.23,0,26.47-.09,39.7,.03,11.42,.11,22.76-1.18,34.14-1.74,5.57-.28,11.14-.51,16.69-.92,1.94-.14,1.46,1.05,1.46,2.01,.01,15.4,0,30.79,0,46.19v29.46c0,24.97-.02,49.94,.04,74.91,0,2.15-.24,2.78-2.74,2.58Zm212.48,104.58c0,5.08-2.04,7.73-6.57,8.41-2.87,.43-5.15-.78-7.1-2.83-4.64-4.89-9.33-9.73-13.97-14.63-12.89-13.61-26.24-26.72-41.12-38.19-12.88-9.92-26.56-18.59-40.95-26.14-21.48-11.26-44.12-19.32-67.73-24.75-1.92-.44-2.44-1.14-2.43-3.09,.06-53.69,.06-107.37,0-161.06,0-1.84,.53-2.53,2.3-2.95,20.86-4.97,40.97-12.15,60.22-21.54,18.14-8.84,35.06-19.68,50.9-32.24,13.34-10.58,25.49-22.4,37.26-34.65,5.13-5.34,10.28-10.67,15.4-16.02,2.04-2.14,4.27-3.71,7.45-3.01,4.64,1.02,6.33,3.24,6.33,8.37,0,60.76,0,121.52,0,182.29s0,121.36,0,182.04Z"/></g></g></g></svg>