<?xml version="1.0" encoding="UTF-8"?><svg xmlns="http://www.w3.org/2000/svg" viewBox="0 0 507.42 479.28"><defs></defs><g id="a"/><g id="b"><g id="c"><g id="d"><g><path class="e" d="M209.65,157.78c0,36.46,.01,72.92-.04,109.38,0,1.83,.56,3.06,1.83,4.33,48,47.94,95.97,95.91,143.94,143.89,3.6,3.6,6.11,7.7,5.24,13.09-.68,4.26-3,7.69-6.38,10.07-22.53,15.84-47.04,27.44-73.87,33.95-17.93,4.36-36.17,6.64-54.59,6.79-14.4,.12-28.74-1.32-42.92-4-35.47-6.7-67.45-21.21-95.86-43.39-25.39-19.81-45.67-44.02-60.89-72.44-11.33-21.15-18.72-43.6-22.79-67.22C1.25,280.31,.18,268.29,.02,256.24c-.18-13.49,1.27-26.9,3.52-40.22,3.51-20.71,9.71-40.56,18.95-59.41,8.35-17.03,18.81-32.68,31.15-47.11,16.41-19.2,35.17-35.61,56.89-48.54,19.51-11.61,40.42-19.75,62.48-25.07,6.47-1.56,13.01-2.71,19.55-3.88,7.72-1.38,14.93,3.82,16.54,11.71,.38,1.88,.58,3.76,.57,5.69-.03,36.13-.02,72.25-.02,108.38Z"/><path class="e" d="M359.72,224.68c-34.21,0-68.42-.02-102.64,.05-2.12,0-2.54-.55-2.54-2.59,.06-68.17,.05-136.34,.05-204.51,0-11.51,6.94-17.99,18.37-17.62,22,.71,43.49,4.26,64.35,11.32,13.51,4.57,26.23,10.88,38.59,17.97,14.95,8.58,28.67,18.82,40.92,30.9,14.29,14.1,26.04,30.16,35.8,47.75,10.61,19.14,18.23,39.32,22.49,60.76,2.6,13.08,4.13,26.32,4.1,39.64-.03,9.64-5.97,16.23-16.86,16.3-18.15,.11-36.29,.03-54.44,.03h-48.2Z"/><path class="e" d="M269.73,269.63h2.87c72.67,0,145.34-.02,218.01,.04,6.37,0,11.99,1.98,15.2,8.13,1.51,2.89,1.92,6.02,1.41,9.22-3.6,22.45-9.84,44.1-19.59,64.68-8.82,18.61-20.06,35.61-33.92,50.88-4.7,5.18-9.47,10.29-14.6,15.05-3.57,3.32-7.64,5.62-12.81,4.87-3.74-.54-6.54-2.74-9.09-5.28-35.39-35.36-70.76-70.74-106.14-106.11-13.07-13.07-26.13-26.13-39.2-39.2-.62-.62-1.2-1.27-2.14-2.26Z"/></g></g></g></g></svg>