<?xml version="1.0" encoding="UTF-8"?><svg xmlns="http://www.w3.org/2000/svg" viewBox="0 0 464.28 389.69"><defs></defs><g id="a"/><g id="b"><g id="c"><g id="d"><g><path class="e" d="M299.45,67.45c-46.76,0-93.53,.04-140.29-.04-7.39-.01-14.29-2.01-19.01-8.17-5.4-7.04-6.55-14.9-3.15-23.23,3.08-7.53,9.02-11.43,16.76-12.96,2.54-.5,5.11-.56,7.69-.56,92.86,.02,185.73,0,278.59,.06,7.75,0,14.83,2.16,19.75,8.75,9.02,12.08,3.77,30.2-9.78,34.41-3.53,1.09-7.06,1.75-10.76,1.75-46.6-.02-93.2-.01-139.8-.01Z"/><path class="e" d="M299.69,172.31c46.85,0,93.7-.05,140.54,.05,7.76,.02,14.83,2.26,19.68,8.89,8.86,12.12,3.57,30.03-9.85,34.24-3.61,1.13-7.23,1.77-11.01,1.77-93.2-.02-186.39,0-279.59-.04-7.48,0-14.47-1.93-19.28-8.14-5.44-7.02-6.58-14.89-3.2-23.22,3.1-7.63,9.11-11.55,16.96-13.04,2.55-.48,5.11-.53,7.7-.53,46.02,.02,92.03,.01,138.05,.01Z"/><path class="e" d="M299.6,367.04c-46.85,0-93.7,.04-140.54-.04-7.39-.01-14.28-2.06-18.98-8.24-5.3-6.97-6.46-14.75-3.13-23.01,3.08-7.65,9.06-11.58,16.9-13.12,2.54-.5,5.11-.54,7.7-.54,92.86,.01,185.73-.01,278.59,.05,7.75,0,14.83,2.2,19.71,8.82,8.93,12.1,3.66,30.04-9.7,34.29-3.6,1.14-7.22,1.81-11,1.8-46.52-.02-93.03-.01-139.55-.01Z"/><path class="e" d="M89.95,44.99c0,7.07,.19,14.14-.05,21.2-.25,7.47-2.36,14.31-8.7,19.01-4.33,3.21-9.41,4.63-14.73,4.68-14.31,.12-28.61,.11-42.92,.02C9.85,89.82,.16,80.13,.08,66.44c-.09-14.3-.08-28.61,0-42.91C.16,9.85,9.86,.14,23.55,.06c14.31-.08,28.61-.09,42.92,0,13.7,.08,23.34,9.78,23.47,23.47,.07,7.15,.01,14.3,.01,21.46Z"/><path class="e" d="M89.95,194.77c0,7.07,.18,14.14-.05,21.2-.25,7.47-2.36,14.31-8.69,19.01-4.33,3.22-9.41,4.64-14.73,4.68-14.31,.13-28.61,.11-42.92,.03-13.7-.08-23.41-9.75-23.49-23.44-.09-14.3-.08-28.61,0-42.91,.08-13.69,9.78-23.4,23.46-23.48,14.31-.09,28.61-.08,42.92,0,13.7,.08,23.35,9.76,23.49,23.46,.07,7.15,.01,14.3,.01,21.45Z"/><path class="e" d="M45.11,299.63c7.07,0,14.15-.2,21.21,.06,7.47,.27,14.26,2.44,18.96,8.81,3.16,4.29,4.57,9.27,4.62,14.48,.15,14.39,.46,28.79-.06,43.16-.54,14.78-8.57,22.71-23.22,23.26-14.37,.54-28.78,.2-43.17,.09-13.59-.1-23.26-9.73-23.37-23.31-.12-14.39-.11-28.77,0-43.16,.1-13.67,9.85-23.28,23.57-23.38,7.15-.05,14.31,0,21.46,0Z"/></g></g></g></g></svg>