<?xml version="1.0" encoding="UTF-8"?><svg xmlns="http://www.w3.org/2000/svg" viewBox="0 0 599.26 479.42"><defs></defs><g id="a"/><g id="b"><g id="c"><g><path class="d" d="M379.44,299.6c4.18-4.29,8.12-8.08,11.67-12.24,13.07-15.34,21.37-32.96,25.43-52.63,2.39-11.61,3.66-23.33,2.53-35.2-.28-2.89-.57-5.8-1.12-8.65-.29-1.51,.26-2,1.48-2.55,13.11-5.87,26.87-8.58,41.19-8.6,12.57-.02,25.14-.14,37.71,.03,20.2,.27,39.2,4.98,56.24,16.19,11.62,7.64,21.2,17.38,28.82,29.01,10.74,16.41,15.64,34.64,15.88,54.03,.13,10.07-5.47,17.75-16.02,19.99-2.2,.47-4.42,.64-6.68,.64-64.6-.03-129.19-.02-193.79-.02h-3.32Z"/><path class="d" d="M220.2,299.6h-2.73c-65.34,0-130.69,.03-196.03-.04-7.82,0-14.52-2.73-18.63-9.94-1.84-3.23-2.91-6.81-2.81-10.48,.73-26.73,9.39-50.32,28.37-69.59,15.44-15.67,34.07-25.14,55.89-28.39,8.35-1.24,16.73-1.5,25.13-1.41,12.57,.14,25.14-.43,37.7,.37,11.57,.74,22.59,3.66,33.18,8.37,1.2,.53,1.28,1.1,1.15,2.26-.46,4.04-1.17,8.05-1.3,12.14-.97,30.35,7.08,57.84,25.96,81.87,4.09,5.21,8.66,10.02,14.13,14.85Z"/><path class="d" d="M59.88,74.6C60.82,35.11,91.74-.22,135.12,0c44.04,.23,74.73,36.46,74.46,75.21-.28,39.79-31.97,74.61-74.94,74.48-44.22-.14-74.2-36.54-74.76-75.08Z"/><path class="e" d="M554.45,74.92c-.81,39.59-31.74,74.86-75.06,74.77-44.15-.1-74.79-36.42-74.64-75.04C404.9,35.6,435.92-.02,479.54,0c43.57,.02,74.22,35.61,74.91,74.92Z"/><path class="d" d="M478.11,436.89c-2.86-20.86-10.35-39.77-23.02-56.64-10.48-13.96-23.14-25.52-38.21-34.27-19.67-11.43-41.17-16.29-63.77-16.37-34.63-.12-69.27-.03-103.9-.04-6.33,0-12.64,.27-18.93,1.01-11.11,1.3-21.94,3.8-32.34,7.97-22.9,9.18-41.1,24.35-55.5,44.14-11.46,15.76-18.23,33.51-21,52.76-1.08,7.48-2.25,15.02-1.05,22.58,.97,6.14,3.47,11.55,8.54,15.56,5.35,4.23,11.53,5.8,18.16,5.81,50.87,.03,101.74,.02,152.61,.02s101.74,0,152.61,0c4.54,0,8.95-.78,13.07-2.72,10.13-4.75,13.89-13.4,14.01-23.9,.06-5.3-.55-10.61-1.27-15.9Zm-49.36-2.43c-86.09,0-172.17,0-258.26,0-2.85,0-2.84,0-2.06-2.68,6.54-22.68,20.85-38.9,41.78-49.25,11.01-5.45,22.95-7.94,35.24-7.97,36.13-.1,72.27-.18,108.4,.02,18.31,.1,35.01,5.6,49.72,16.71,13.49,10.19,24.7,27.33,28.05,43.17h-2.88Z"/><path class="d" d="M299.63,119.8c-49.12,.06-89.96,40.67-89.82,89.83,.14,49.62,40.62,90.02,89.92,89.96,49.19-.06,89.91-40.59,89.8-89.81-.11-50.12-41.18-90.03-89.9-89.98Zm.08,134.63c-24.53,.05-45.52-18.7-44.92-45.93,.55-24.8,19.94-43.46,44.83-43.52,24.51-.06,45.01,18.51,44.93,44.93-.11,25.87-20.16,44.47-44.84,44.52Z"/></g></g></g></svg>