<?xml version="1.0" encoding="UTF-8"?><svg xmlns="http://www.w3.org/2000/svg" viewBox="0 0 495.2 488.46"><defs></defs><g id="a"/><g id="b"><g id="c"><g><path class="e" d="M179.81,488.46c-8.57-17.15-16.79-33.59-25.01-50.04-6.4-12.8-12.8-25.6-19.2-38.4-1.33-2.65-1.34-2.64-3.44-.54-28.78,28.78-57.57,57.55-86.3,86.39-1.49,1.5-2.16,1.41-3.59-.03-13.06-13.19-26.18-26.32-39.38-39.37-1.71-1.69-1.41-2.5,.1-4.01,28.71-28.62,57.36-57.3,86.02-85.96,2.23-2.23,2.23-2.24-.6-3.66-28.42-14.22-56.85-28.43-85.28-42.65-.81-.41-1.63-.81-3.13-1.57,85.18-25.06,169.77-49.93,254.73-74.93-24.96,84.88-49.85,169.49-74.92,254.76Z"/><path class="d" d="M490.75,194.06c-5.46-28.97-16.05-55.96-31.8-80.97-16.24-25.8-36.34-47.95-60.9-66-15.26-11.21-31.5-20.8-48.96-28.19-17.91-7.59-36.52-12.74-55.75-15.71C280.41,1.19,267.4-.17,254.34,.02c-23.04,.34-45.71,3.62-67.87,10.11-30.44,8.92-57.65,23.97-82.24,43.8-19.63,15.83-36.25,34.46-49.88,55.74-12.18,19.02-22,39.1-28.32,60.83-4.68,16.09-7.62,32.5-9.17,49.18-1.43,15.39-1.21,30.74,.6,46.09,.12,1.03-.09,2.12,1.79,1.55,13.65-4.14,27.33-8.16,41.01-12.18,1.18-.35,1.53-.88,1.38-2.12-.36-3.05-.72-6.12-.79-9.19-.35-15.96,1.2-31.72,5.02-47.25,.38-1.55,1.02-1.92,2.5-1.88,3.99,.1,7.99,.03,11.99,.03,18.9,0,37.79,.03,56.69-.04,1.84,0,2.44,.33,2.15,2.28-.71,4.77-1.3,9.56-1.77,14.35-.7,7.19-1.24,14.4-1.85,21.59,.41,.05,.58,.12,.71,.08,14.64-4.17,29.27-8.36,43.92-12.48,1.26-.36,1.43-1.03,1.53-2.11,.59-7.04,1.35-14.07,2.23-21.09,.27-2.19,.94-2.63,3.02-2.63,45.7,.06,91.4,.05,137.1,.05,.25,0,.5,.03,.75,0,1.41-.21,2.05,.23,2.21,1.8,.39,3.72,1.1,7.4,1.53,11.11,2.91,24.94,2.57,49.81-1.42,74.63-.34,2.11-1.11,2.42-2.98,2.41-12.49-.08-24.97,0-37.46-.08-1.6,0-2.26,.43-2.72,1.97-2.74,9.04-5.61,18.03-8.43,27.04-1.65,5.26-3.29,10.53-4.99,15.99h43.88c-.12,.44-.17,.76-.28,1.05-5.05,12.4-10.61,24.57-17.08,36.31-10.81,19.6-24.77,36.81-40.08,53-1.15,1.21-1.74,1.26-2.82-.08-2.14-2.64-4.48-5.11-6.89-7.82-.22,.55-.35,.83-.44,1.12-6.3,20.93-12.58,41.87-18.94,62.78-.45,1.48,.06,1.69,1.26,1.8,3.98,.36,7.94,.89,11.93,1.13,21.04,1.28,41.9-.38,62.54-4.49,28.08-5.59,54.26-16.01,78.52-31.31,25.78-16.25,47.93-36.34,65.99-60.91,10.82-14.73,20.13-30.36,27.4-47.13,11.15-25.72,17.21-52.7,19.13-80.63,1.39-20.29-.19-40.42-3.95-60.35ZM157.15,127.49c-2.69,6.79-5.17,13.66-7.71,20.5-.4,1.07-.73,1.81-2.17,1.8-21.46-.05-42.92-.04-64.97-.04,26.18-48.26,65.3-79.84,117.16-95.89-3.83,5.17-7.82,10.15-11.5,15.36-12.77,18.1-22.67,37.72-30.82,58.26Zm39.5,22.22c1.73-4.26,3.29-8.42,5.09-12.47,7.75-17.44,16.59-34.27,28.24-49.48,7.44-9.72,15.25-19.11,24.17-27.54,1.58-1.49,2.15-.52,3.11,.4,20.39,19.7,36.32,42.55,48.24,68.25,3.14,6.77,6.1,13.63,9.06,20.84h-117.91Zm116-94.14c-.37-.44-.72-.89-1.13-1.39,9-.79,49.47,19.9,68.29,35.48,20.13,16.66,36.37,36.64,48.86,60.1h-2.69c-20.39,0-40.77-.04-61.16,.06-2.05,0-2.8-.64-3.45-2.51-7.47-21.55-16.34-42.49-27.95-62.18-6.13-10.4-13.02-20.29-20.77-29.56Zm66.72,333.87c-20.3,16.59-42.69,29.13-67.7,36.89,13.31-16.36,23.89-34.19,32.96-52.97,6.47-13.41,11.84-27.27,16.74-41.31,.64-1.82,1.34-2.55,3.43-2.54,21.21,.1,42.43,.06,63.99,.06-12.4,23.54-29.02,43.19-49.42,59.86Zm70.44-136.28c-.67,10.06-2.26,19.98-4.63,29.78-.36,1.49-1.04,1.72-2.38,1.72-11.4-.05-22.8-.03-34.21-.03s-22.47-.04-33.71,.04c-1.78,.01-2.2-.44-2-2.18,1.39-12.66,2.38-25.34,2.51-38.09,.15-15.25-.53-30.44-2.36-45.58-.5-4.1-.47-4.1,3.63-4.1,21.81,0,43.61,.04,65.42-.06,2.24-.01,2.83,.76,3.31,2.76,4.45,18.35,5.68,36.95,4.42,55.75Z"/></g></g></g></svg>